<svg width="960" height="720" xmlns="http://www.w3.org/2000/svg" xmlns:xlink="http://www.w3.org/1999/xlink" overflow="hidden"><defs><clipPath id="clip0"><rect x="0" y="0" width="960" height="720"/></clipPath></defs><g clip-path="url(#clip0)"><rect x="0" y="0" width="960" height="720" fill="#FFFFFF"/><rect x="204.5" y="63.5001" width="740" height="591" stroke="#000000" stroke-width="3" stroke-miterlimit="8" fill="none"/><text font-family="Century Gothic,Century Gothic_MSFontService,sans-serif" font-weight="400" font-size="18" transform="translate(59.564 37)">ARCHITECT TEAM GOALS CANVAS</text><rect x="774" y="16" width="83" height="40" fill="#D9D9D9"/><text font-family="Century Gothic,Century Gothic_MSFontService,sans-serif" font-weight="400" font-size="8" transform="translate(783.734 29)">DATE:</text><rect x="861" y="16" width="83" height="40" fill="#D9D9D9"/><text font-family="Century Gothic,Century Gothic_MSFontService,sans-serif" font-weight="400" font-size="8" transform="translate(870.541 29)">VERSION:</text><text font-family="Century Gothic,Century Gothic_MSFontService,sans-serif" font-weight="400" font-size="8" transform="translate(59.564 668)">Designed By:</text><text font-family="Century Gothic,Century Gothic_MSFontService,sans-serif" font-weight="700" font-size="8" transform="translate(111.897 668)">Paul Preiss</text><text font-family="Century Gothic,Century Gothic_MSFontService,sans-serif" font-weight="400" font-size="8" transform="translate(154.064 668)">for</text><text font-family="Century Gothic,Century Gothic_MSFontService,sans-serif" font-weight="700" font-size="8" transform="translate(166.231 668)">IASA Global</text><text font-family="Century Gothic,Century Gothic_MSFontService,sans-serif" font-weight="400" font-size="8" transform="translate(59.564 677)">This work is licensed under a Creative Commons Attribution</text><text font-family="Century Gothic,Century Gothic_MSFontService,sans-serif" font-weight="400" font-size="8" transform="translate(286.731 677)">-</text><text font-family="Century Gothic,Century Gothic_MSFontService,sans-serif" font-weight="400" font-size="8" transform="translate(289.397 677)">ShareAlike 4.0 International License. http://creativecommons.org/lice</text><text font-family="Century Gothic,Century Gothic_MSFontService,sans-serif" font-weight="400" font-size="8" transform="translate(556.897 677)">nses/by</text><text font-family="Century Gothic,Century Gothic_MSFontService,sans-serif" font-weight="400" font-size="8" transform="translate(586.564 677)">-</text><text font-family="Century Gothic,Century Gothic_MSFontService,sans-serif" font-weight="400" font-size="8" transform="translate(589.231 677)">sa/4.0</text><rect x="338" y="65" width="146" height="590" fill="#D9D9D9"/><text font-family="Century Gothic,Century Gothic_MSFontService,sans-serif" font-weight="400" font-size="11" transform="translate(347.644 80)">Objectives</text><rect x="64" y="63" width="265" height="591" fill="#AFABAB"/><text font-family="Century Gothic,Century Gothic_MSFontService,sans-serif" font-weight="400" font-size="11" transform="translate(73.9954 78)">Strategy</text><rect x="493" y="65" width="146" height="590" fill="#D9D9D9"/><text font-family="Century Gothic,Century Gothic_MSFontService,sans-serif" font-weight="400" font-size="11" transform="translate(502.716 80)">Measures</text><rect x="645" y="66" width="146" height="588" fill="#D9D9D9"/><text font-family="Century Gothic,Century Gothic_MSFontService,sans-serif" font-weight="400" font-size="11" transform="translate(654.724 81)">Initiatives</text><rect x="795" y="66" width="146" height="588" fill="#D9D9D9"/><text font-family="Century Gothic,Century Gothic_MSFontService,sans-serif" font-weight="400" font-size="11" transform="translate(804.69 81)">Stakeholders</text><rect x="64.5001" y="115.5" width="877" height="134" stroke="#000000" stroke-width="3" stroke-miterlimit="8" fill="none"/><rect x="64.5001" y="385.5" width="877" height="134" stroke="#000000" stroke-width="3" stroke-miterlimit="8" fill="none"/><rect x="64.5001" y="250.5" width="878" height="135" stroke="#000000" stroke-width="3" stroke-miterlimit="8" fill="none"/><rect x="64.5001" y="519.5" width="878" height="135" stroke="#000000" stroke-width="3" stroke-miterlimit="8" fill="none"/><text font-family="Century Gothic,Century Gothic_MSFontService,sans-serif" font-weight="400" font-size="18" transform="matrix(-1.83697e-16 -1 1 -1.83697e-16 48.6587 217)">Value</text><text font-family="Century Gothic,Century Gothic_MSFontService,sans-serif" font-weight="400" font-size="18" transform="matrix(-1.83697e-16 -1 1 -1.83697e-16 47.2419 368)">Customer</text><text font-family="Century Gothic,Century Gothic_MSFontService,sans-serif" font-weight="400" font-size="18" transform="matrix(-1.83697e-16 -1 1 -1.83697e-16 48.4981 498)">Processes</text><text font-family="Century Gothic,Century Gothic_MSFontService,sans-serif" font-weight="400" font-size="18" transform="matrix(-1.83697e-16 -1 1 -1.83697e-16 45.5785 647)">Peaple</text><rect x="64.5001" y="63.5001" width="264" height="591" stroke="#000000" stroke-width="3" stroke-miterlimit="8" fill="none"/><path d="M1-1.93606e-07 1.0001 535.602-0.999896 535.602-1 1.93606e-07ZM4.0001 534.269 0.000104987 542.269-3.9999 534.269Z" transform="matrix(1 0 0 -1 23 657.27)"/><text font-family="Century Gothic,Century Gothic_MSFontService,sans-serif" font-weight="400" font-size="8" transform="matrix(-1.83697e-16 -1 1 -1.83697e-16 15.5176 435)">Architecture</text><text font-family="Century Gothic,Century Gothic_MSFontService,sans-serif" font-weight="400" font-size="8" transform="matrix(-1.83697e-16 -1 1 -1.83697e-16 15.5176 385)">Impacts</text></g></svg>