<svg width="960" height="720" xmlns="http://www.w3.org/2000/svg" xmlns:xlink="http://www.w3.org/1999/xlink" overflow="hidden"><defs><clipPath id="clip0"><rect x="0" y="0" width="960" height="720"/></clipPath></defs><g clip-path="url(#clip0)"><rect x="0" y="0" width="960" height="720" fill="#FFFFFF"/><text fill="#555555" font-family="Century Gothic,Century Gothic_MSFontService,sans-serif" font-weight="400" font-size="16" transform="translate(23.7667 81)">Stakeholder List</text><rect x="558" y="67" width="172" height="18" fill="#D9D9D9"/><text fill="#555555" font-family="Century Gothic,Century Gothic_MSFontService,sans-serif" font-weight="400" font-size="7" transform="translate(567.1 79)">ORGANISATION:</text><rect x="736" y="67" width="69" height="18" fill="#D9D9D9"/><text fill="#555555" font-family="Century Gothic,Century Gothic_MSFontService,sans-serif" font-weight="400" font-size="7" transform="translate(745.267 79)">DATE:</text><rect x="808" y="67" width="70" height="18" fill="#D9D9D9"/><text fill="#555555" font-family="Century Gothic,Century Gothic_MSFontService,sans-serif" font-weight="400" font-size="7" transform="translate(817.933 79)">VERSION:</text><rect x="20.5001" y="100.5" width="932" height="542" stroke="#555555" stroke-width="3" stroke-linejoin="round" stroke-miterlimit="10" fill="none"/><text fill="#555555" font-family="Century Gothic,Century Gothic_MSFontService,sans-serif" font-weight="400" font-size="7" transform="translate(52.4334 658)">Designed By: <tspan font-weight="700" font-size="7" x="44.8333" y="0">Andy Ruth, Agent ∆</tspan><tspan font-size="7" x="111.333" y="0">for </tspan><tspan font-weight="700" font-size="7" x="121.833" y="0">IASA Global </tspan>Inspired by: <tspan fill="#1595FF" font-weight="700" font-size="7" x="203.833" y="0">AWS Cloud Adoption Framework</tspan><tspan font-size="7" x="315.167" y="0">This work is licensed under a CC Attribution</tspan>-ShareAlike<tspan font-size="7" x="495.167" y="0">4.0 Intl</tspan></text><path d="M256.433 659.133 365.433 659.133 365.433 660.133 256.433 660.133Z" fill="#1595FF" fill-rule="evenodd"/><text fill="#555555" font-family="Century Gothic,Century Gothic_MSFontService,sans-serif" font-weight="400" font-size="7" transform="translate(52.4334 666)">Lic<tspan font-size="7" x="9" y="0">. http://creativecommons.org/licenses/by</tspan><tspan font-size="7" x="148" y="0">-</tspan>sa/4.0</text><rect x="20.5001" y="100.5" width="310" height="271" stroke="#555555" stroke-width="3" stroke-linejoin="round" stroke-miterlimit="10" fill="none"/><rect x="330.5" y="100.5" width="311" height="271" stroke="#555555" stroke-width="3" stroke-linejoin="round" stroke-miterlimit="10" fill="none"/><rect x="641.5" y="100.5" width="311" height="271" stroke="#555555" stroke-width="3" stroke-linejoin="round" stroke-miterlimit="10" fill="none"/><rect x="20.5001" y="371.5" width="310" height="271" stroke="#555555" stroke-width="3" stroke-linejoin="round" stroke-miterlimit="10" fill="none"/><rect x="330.5" y="372.5" width="311" height="271" stroke="#555555" stroke-width="3" stroke-linejoin="round" stroke-miterlimit="10" fill="none"/><rect x="641.5" y="371.5" width="311" height="271" stroke="#555555" stroke-width="3" stroke-linejoin="round" stroke-miterlimit="10" fill="none"/><text fill="#555555" font-family="Calibri,Calibri_MSFontService,sans-serif" font-weight="700" font-size="9" transform="translate(39.7667 122)">Business Stakeholders<tspan font-weight="400" font-size="9" x="86.8333" y="0">: includes roles such as Chief Executive Officer </tspan><tspan font-weight="400" font-size="9" x="0" y="11">(CEO), Chief Financial Officer (CFO), Chief Operations Officer (COO), </tspan><tspan font-weight="400" font-size="9" x="0" y="22">executive sponsor, line</tspan><tspan font-weight="400" font-size="9" x="88" y="22">-</tspan><tspan font-weight="400" font-size="9" x="90.8333" y="22">of</tspan><tspan font-weight="400" font-size="9" x="98.6667" y="22">-</tspan><tspan font-weight="400" font-size="9" x="101.5" y="22">business owner, product owner, business </tspan><tspan font-weight="400" font-size="9" x="0" y="34">managers, finance managers, procurement manager, legal </tspan><tspan font-weight="400" font-size="9" x="0" y="45">representative, budget owners, strategy stakeholders</tspan><tspan font-size="9" x="304" y="0">People Stakeholders</tspan><tspan font-weight="400" font-size="9" x="383.667" y="0">: includes roles such as human resources, staffing </tspan><tspan font-weight="400" font-size="9" x="304" y="11">managers, people managers, training manager</tspan><tspan font-size="9" x="613.833" y="0">Governance Stakeholders</tspan><tspan font-weight="400" font-size="9" x="713.667" y="0">: includes roles such as Chief Information </tspan><tspan font-weight="400" font-size="9" x="613.833" y="11">Officer (CIO), program manager, project manager, enterprise architect, </tspan><tspan font-weight="400" font-size="9" x="613.833" y="22">business analysist, business architects, portfolio managers</tspan><tspan font-size="9" x="-1" y="271">Platform Stakeholders</tspan><tspan font-weight="400" font-size="9" x="86.3333" y="271">: includes roles such as Chief Technology Officer </tspan><tspan font-weight="400" font-size="9" x="-1" y="282">(CTO), IT manager, solutions architect, information architect, </tspan><tspan font-weight="400" font-size="9" x="-1" y="293">technology architect, infrastructure architect, dev lead, lead engineer </tspan><tspan font-size="9" x="309.667" y="271">Security Stakeholders</tspan><tspan font-weight="400" font-size="9" x="394.333" y="271">: includes roles such as Chief Information </tspan><tspan font-weight="400" font-size="9" x="309.667" y="282">Security Officer (CISO), IT security manager, IT security team member, </tspan><tspan font-weight="400" font-size="9" x="309.667" y="293">IT security analyst</tspan><tspan font-size="9" x="620.167" y="271">Operations Stakeholders</tspan><tspan font-weight="400" font-size="9" x="716.667" y="271">: includes roles such as IT operations </tspan><tspan font-weight="400" font-size="9" x="620.167" y="282">manager, IT support manager</tspan></text><path d="M25.3333 170.167 175.5 170.167 175.5 194.604 25.3333 194.604Z" fill="#898575" fill-rule="evenodd"/><path d="M175.5 170.167 325.667 170.167 325.667 194.604 175.5 194.604Z" fill="#898575" fill-rule="evenodd"/><path d="M25.3333 194.604 175.5 194.604 175.5 219.042 25.3333 219.042Z" fill="#DAD9D6" fill-rule="evenodd"/><path d="M175.5 194.604 325.667 194.604 325.667 219.042 175.5 219.042Z" fill="#DAD9D6" fill-rule="evenodd"/><path d="M25.3333 219.042 175.5 219.042 175.5 243.479 25.3333 243.479Z" fill="#EDEDEC" fill-rule="evenodd"/><path d="M175.5 219.042 325.667 219.042 325.667 243.479 175.5 243.479Z" fill="#EDEDEC" fill-rule="evenodd"/><path d="M25.3333 243.479 175.5 243.479 175.5 267.917 25.3333 267.917Z" fill="#DAD9D6" fill-rule="evenodd"/><path d="M175.5 243.479 325.667 243.479 325.667 267.917 175.5 267.917Z" fill="#DAD9D6" fill-rule="evenodd"/><path d="M25.3333 267.917 175.5 267.917 175.5 292.354 25.3333 292.354Z" fill="#EDEDEC" fill-rule="evenodd"/><path d="M175.5 267.917 325.667 267.917 325.667 292.354 175.5 292.354Z" fill="#EDEDEC" fill-rule="evenodd"/><path d="M25.3333 292.354 175.5 292.354 175.5 316.792 25.3333 316.792Z" fill="#DAD9D6" fill-rule="evenodd"/><path d="M175.5 292.354 325.667 292.354 325.667 316.792 175.5 316.792Z" fill="#DAD9D6" fill-rule="evenodd"/><path d="M25.3333 316.792 175.5 316.792 175.5 341.229 25.3333 341.229Z" fill="#EDEDEC" fill-rule="evenodd"/><path d="M175.5 316.792 325.667 316.792 325.667 341.229 175.5 341.229Z" fill="#EDEDEC" fill-rule="evenodd"/><path d="M25.3333 341.229 175.5 341.229 175.5 365.667 25.3333 365.667Z" fill="#DAD9D6" fill-rule="evenodd"/><path d="M175.5 341.229 325.667 341.229 325.667 365.667 175.5 365.667Z" fill="#DAD9D6" fill-rule="evenodd"/><path d="M175.5 169.5 175.5 366.333" stroke="#FFFFFF" stroke-width="1.33333" stroke-linejoin="round" stroke-miterlimit="10" fill="none" fill-rule="evenodd"/><path d="M24.6667 194.604 326.333 194.604" stroke="#FFFFFF" stroke-width="4" stroke-linejoin="round" stroke-miterlimit="10" fill="none" fill-rule="evenodd"/><path d="M24.6667 219.042 326.333 219.042" stroke="#FFFFFF" stroke-width="1.33333" stroke-linejoin="round" stroke-miterlimit="10" fill="none" fill-rule="evenodd"/><path d="M24.6667 243.479 326.333 243.479" stroke="#FFFFFF" stroke-width="1.33333" stroke-linejoin="round" stroke-miterlimit="10" fill="none" fill-rule="evenodd"/><path d="M24.6667 267.917 326.333 267.917" stroke="#FFFFFF" stroke-width="1.33333" stroke-linejoin="round" stroke-miterlimit="10" fill="none" fill-rule="evenodd"/><path d="M24.6667 292.354 326.333 292.354" stroke="#FFFFFF" stroke-width="1.33333" stroke-linejoin="round" stroke-miterlimit="10" fill="none" fill-rule="evenodd"/><path d="M24.6667 316.792 326.333 316.792" stroke="#FFFFFF" stroke-width="1.33333" stroke-linejoin="round" stroke-miterlimit="10" fill="none" fill-rule="evenodd"/><path d="M24.6667 341.229 326.333 341.229" stroke="#FFFFFF" stroke-width="1.33333" stroke-linejoin="round" stroke-miterlimit="10" fill="none" fill-rule="evenodd"/><path d="M25.3333 169.5 25.3333 366.333" stroke="#FFFFFF" stroke-width="1.33333" stroke-linejoin="round" stroke-miterlimit="10" fill="none" fill-rule="evenodd"/><path d="M325.667 169.5 325.667 366.333" stroke="#FFFFFF" stroke-width="1.33333" stroke-linejoin="round" stroke-miterlimit="10" fill="none" fill-rule="evenodd"/><path d="M24.6667 170.167 326.333 170.167" stroke="#FFFFFF" stroke-width="1.33333" stroke-linejoin="round" stroke-miterlimit="10" fill="none" fill-rule="evenodd"/><path d="M24.6667 365.667 326.333 365.667" stroke="#FFFFFF" stroke-width="1.33333" stroke-linejoin="round" stroke-miterlimit="10" fill="none" fill-rule="evenodd"/><text fill="#FFFFFF" font-family="Calibri,Calibri_MSFontService,sans-serif" font-weight="700" font-size="9" transform="translate(88.8333 182)">Name<tspan font-size="9" x="153.083" y="0">Role</tspan></text><path d="M334.167 170.167 484.25 170.167 484.25 194.604 334.167 194.604Z" fill="#898575" fill-rule="evenodd"/><path d="M484.25 170.167 634.333 170.167 634.333 194.604 484.25 194.604Z" fill="#898575" fill-rule="evenodd"/><path d="M334.167 194.604 484.25 194.604 484.25 219.042 334.167 219.042Z" fill="#DAD9D6" fill-rule="evenodd"/><path d="M484.25 194.604 634.333 194.604 634.333 219.042 484.25 219.042Z" fill="#DAD9D6" fill-rule="evenodd"/><path d="M334.167 219.042 484.25 219.042 484.25 243.479 334.167 243.479Z" fill="#EDEDEC" fill-rule="evenodd"/><path d="M484.25 219.042 634.333 219.042 634.333 243.479 484.25 243.479Z" fill="#EDEDEC" fill-rule="evenodd"/><path d="M334.167 243.479 484.25 243.479 484.25 267.917 334.167 267.917Z" fill="#DAD9D6" fill-rule="evenodd"/><path d="M484.25 243.479 634.333 243.479 634.333 267.917 484.25 267.917Z" fill="#DAD9D6" fill-rule="evenodd"/><path d="M334.167 267.917 484.25 267.917 484.25 292.354 334.167 292.354Z" fill="#EDEDEC" fill-rule="evenodd"/><path d="M484.25 267.917 634.333 267.917 634.333 292.354 484.25 292.354Z" fill="#EDEDEC" fill-rule="evenodd"/><path d="M334.167 292.354 484.25 292.354 484.25 316.792 334.167 316.792Z" fill="#DAD9D6" fill-rule="evenodd"/><path d="M484.25 292.354 634.333 292.354 634.333 316.792 484.25 316.792Z" fill="#DAD9D6" fill-rule="evenodd"/><path d="M334.167 316.792 484.25 316.792 484.25 341.229 334.167 341.229Z" fill="#EDEDEC" fill-rule="evenodd"/><path d="M484.25 316.792 634.333 316.792 634.333 341.229 484.25 341.229Z" fill="#EDEDEC" fill-rule="evenodd"/><path d="M334.167 341.229 484.25 341.229 484.25 365.667 334.167 365.667Z" fill="#DAD9D6" fill-rule="evenodd"/><path d="M484.25 341.229 634.333 341.229 634.333 365.667 484.25 365.667Z" fill="#DAD9D6" fill-rule="evenodd"/><path d="M484.25 169.5 484.25 366.333" stroke="#FFFFFF" stroke-width="1.33333" stroke-linejoin="round" stroke-miterlimit="10" fill="none" fill-rule="evenodd"/><path d="M333.5 194.604 635 194.604" stroke="#FFFFFF" stroke-width="4" stroke-linejoin="round" stroke-miterlimit="10" fill="none" fill-rule="evenodd"/><path d="M333.5 219.042 635 219.042" stroke="#FFFFFF" stroke-width="1.33333" stroke-linejoin="round" stroke-miterlimit="10" fill="none" fill-rule="evenodd"/><path d="M333.5 243.479 635 243.479" stroke="#FFFFFF" stroke-width="1.33333" stroke-linejoin="round" stroke-miterlimit="10" fill="none" fill-rule="evenodd"/><path d="M333.5 267.917 635 267.917" stroke="#FFFFFF" stroke-width="1.33333" stroke-linejoin="round" stroke-miterlimit="10" fill="none" fill-rule="evenodd"/><path d="M333.5 292.354 635 292.354" stroke="#FFFFFF" stroke-width="1.33333" stroke-linejoin="round" stroke-miterlimit="10" fill="none" fill-rule="evenodd"/><path d="M333.5 316.792 635 316.792" stroke="#FFFFFF" stroke-width="1.33333" stroke-linejoin="round" stroke-miterlimit="10" fill="none" fill-rule="evenodd"/><path d="M333.5 341.229 635 341.229" stroke="#FFFFFF" stroke-width="1.33333" stroke-linejoin="round" stroke-miterlimit="10" fill="none" fill-rule="evenodd"/><path d="M334.167 169.5 334.167 366.333" stroke="#FFFFFF" stroke-width="1.33333" stroke-linejoin="round" stroke-miterlimit="10" fill="none" fill-rule="evenodd"/><path d="M634.333 169.5 634.333 366.333" stroke="#FFFFFF" stroke-width="1.33333" stroke-linejoin="round" stroke-miterlimit="10" fill="none" fill-rule="evenodd"/><path d="M333.5 170.167 635 170.167" stroke="#FFFFFF" stroke-width="1.33333" stroke-linejoin="round" stroke-miterlimit="10" fill="none" fill-rule="evenodd"/><path d="M333.5 365.667 635 365.667" stroke="#FFFFFF" stroke-width="1.33333" stroke-linejoin="round" stroke-miterlimit="10" fill="none" fill-rule="evenodd"/><text fill="#FFFFFF" font-family="Calibri,Calibri_MSFontService,sans-serif" font-weight="700" font-size="9" transform="translate(397.625 182)">Name<tspan font-size="9" x="153" y="0">Role</tspan></text><path d="M644.667 167.333 794.833 167.333 794.833 191.792 644.667 191.792Z" fill="#898575" fill-rule="evenodd"/><path d="M794.833 167.333 945 167.333 945 191.792 794.833 191.792Z" fill="#898575" fill-rule="evenodd"/><path d="M644.667 191.792 794.833 191.792 794.833 216.25 644.667 216.25Z" fill="#DAD9D6" fill-rule="evenodd"/><path d="M794.833 191.792 945 191.792 945 216.25 794.833 216.25Z" fill="#DAD9D6" fill-rule="evenodd"/><path d="M644.667 216.25 794.833 216.25 794.833 240.708 644.667 240.708Z" fill="#EDEDEC" fill-rule="evenodd"/><path d="M794.833 216.25 945 216.25 945 240.708 794.833 240.708Z" fill="#EDEDEC" fill-rule="evenodd"/><path d="M644.667 240.708 794.833 240.708 794.833 265.167 644.667 265.167Z" fill="#DAD9D6" fill-rule="evenodd"/><path d="M794.833 240.708 945 240.708 945 265.167 794.833 265.167Z" fill="#DAD9D6" fill-rule="evenodd"/><path d="M644.667 265.167 794.833 265.167 794.833 289.625 644.667 289.625Z" fill="#EDEDEC" fill-rule="evenodd"/><path d="M794.833 265.167 945 265.167 945 289.625 794.833 289.625Z" fill="#EDEDEC" fill-rule="evenodd"/><path d="M644.667 289.625 794.833 289.625 794.833 314.084 644.667 314.084Z" fill="#DAD9D6" fill-rule="evenodd"/><path d="M794.833 289.625 945 289.625 945 314.084 794.833 314.084Z" fill="#DAD9D6" fill-rule="evenodd"/><path d="M644.667 314.084 794.833 314.084 794.833 338.542 644.667 338.542Z" fill="#EDEDEC" fill-rule="evenodd"/><path d="M794.833 314.084 945 314.084 945 338.542 794.833 338.542Z" fill="#EDEDEC" fill-rule="evenodd"/><path d="M644.667 338.542 794.833 338.542 794.833 363 644.667 363Z" fill="#DAD9D6" fill-rule="evenodd"/><path d="M794.833 338.542 945 338.542 945 363 794.833 363Z" fill="#DAD9D6" fill-rule="evenodd"/><path d="M794.833 166.667 794.833 363.667" stroke="#FFFFFF" stroke-width="1.33333" stroke-linejoin="round" stroke-miterlimit="10" fill="none" fill-rule="evenodd"/><path d="M644 191.792 945.667 191.792" stroke="#FFFFFF" stroke-width="4" stroke-linejoin="round" stroke-miterlimit="10" fill="none" fill-rule="evenodd"/><path d="M644 216.25 945.667 216.25" stroke="#FFFFFF" stroke-width="1.33333" stroke-linejoin="round" stroke-miterlimit="10" fill="none" fill-rule="evenodd"/><path d="M644 240.708 945.667 240.708" stroke="#FFFFFF" stroke-width="1.33333" stroke-linejoin="round" stroke-miterlimit="10" fill="none" fill-rule="evenodd"/><path d="M644 265.167 945.667 265.167" stroke="#FFFFFF" stroke-width="1.33333" stroke-linejoin="round" stroke-miterlimit="10" fill="none" fill-rule="evenodd"/><path d="M644 289.625 945.667 289.625" stroke="#FFFFFF" stroke-width="1.33333" stroke-linejoin="round" stroke-miterlimit="10" fill="none" fill-rule="evenodd"/><path d="M644 314.084 945.667 314.084" stroke="#FFFFFF" stroke-width="1.33333" stroke-linejoin="round" stroke-miterlimit="10" fill="none" fill-rule="evenodd"/><path d="M644 338.542 945.667 338.542" stroke="#FFFFFF" stroke-width="1.33333" stroke-linejoin="round" stroke-miterlimit="10" fill="none" fill-rule="evenodd"/><path d="M644.667 166.667 644.667 363.667" stroke="#FFFFFF" stroke-width="1.33333" stroke-linejoin="round" stroke-miterlimit="10" fill="none" fill-rule="evenodd"/><path d="M945 166.667 945 363.667" stroke="#FFFFFF" stroke-width="1.33333" stroke-linejoin="round" stroke-miterlimit="10" fill="none" fill-rule="evenodd"/><path d="M644 167.333 945.667 167.333" stroke="#FFFFFF" stroke-width="1.33333" stroke-linejoin="round" stroke-miterlimit="10" fill="none" fill-rule="evenodd"/><path d="M644 363 945.667 363" stroke="#FFFFFF" stroke-width="1.33333" stroke-linejoin="round" stroke-miterlimit="10" fill="none" fill-rule="evenodd"/><text fill="#FFFFFF" font-family="Calibri,Calibri_MSFontService,sans-serif" font-weight="700" font-size="9" transform="translate(708.167 179)">Name<tspan font-size="9" x="153.083" y="0">Role</tspan></text><path d="M25 440.333 175.083 440.333 175.083 464.792 25 464.792Z" fill="#898575" fill-rule="evenodd"/><path d="M175.083 440.333 325.167 440.333 325.167 464.792 175.083 464.792Z" fill="#898575" fill-rule="evenodd"/><path d="M25 464.792 175.083 464.792 175.083 489.25 25 489.25Z" fill="#DAD9D6" fill-rule="evenodd"/><path d="M175.083 464.792 325.167 464.792 325.167 489.25 175.083 489.25Z" fill="#DAD9D6" fill-rule="evenodd"/><path d="M25 489.25 175.083 489.25 175.083 513.708 25 513.708Z" fill="#EDEDEC" fill-rule="evenodd"/><path d="M175.083 489.25 325.167 489.25 325.167 513.708 175.083 513.708Z" fill="#EDEDEC" fill-rule="evenodd"/><path d="M25 513.708 175.083 513.708 175.083 538.167 25 538.167Z" fill="#DAD9D6" fill-rule="evenodd"/><path d="M175.083 513.708 325.167 513.708 325.167 538.167 175.083 538.167Z" fill="#DAD9D6" fill-rule="evenodd"/><path d="M25 538.167 175.083 538.167 175.083 562.625 25 562.625Z" fill="#EDEDEC" fill-rule="evenodd"/><path d="M175.083 538.167 325.167 538.167 325.167 562.625 175.083 562.625Z" fill="#EDEDEC" fill-rule="evenodd"/><path d="M25 562.625 175.083 562.625 175.083 587.084 25 587.084Z" fill="#DAD9D6" fill-rule="evenodd"/><path d="M175.083 562.625 325.167 562.625 325.167 587.084 175.083 587.084Z" fill="#DAD9D6" fill-rule="evenodd"/><path d="M25 587.084 175.083 587.084 175.083 611.542 25 611.542Z" fill="#EDEDEC" fill-rule="evenodd"/><path d="M175.083 587.084 325.167 587.084 325.167 611.542 175.083 611.542Z" fill="#EDEDEC" fill-rule="evenodd"/><path d="M25 611.542 175.083 611.542 175.083 636 25 636Z" fill="#DAD9D6" fill-rule="evenodd"/><path d="M175.083 611.542 325.167 611.542 325.167 636 175.083 636Z" fill="#DAD9D6" fill-rule="evenodd"/><path d="M175.083 439.667 175.083 636.667" stroke="#FFFFFF" stroke-width="1.33333" stroke-linejoin="round" stroke-miterlimit="10" fill="none" fill-rule="evenodd"/><path d="M24.3333 464.792 325.833 464.792" stroke="#FFFFFF" stroke-width="4" stroke-linejoin="round" stroke-miterlimit="10" fill="none" fill-rule="evenodd"/><path d="M24.3333 489.25 325.833 489.25" stroke="#FFFFFF" stroke-width="1.33333" stroke-linejoin="round" stroke-miterlimit="10" fill="none" fill-rule="evenodd"/><path d="M24.3333 513.708 325.833 513.708" stroke="#FFFFFF" stroke-width="1.33333" stroke-linejoin="round" stroke-miterlimit="10" fill="none" fill-rule="evenodd"/><path d="M24.3333 538.167 325.833 538.167" stroke="#FFFFFF" stroke-width="1.33333" stroke-linejoin="round" stroke-miterlimit="10" fill="none" fill-rule="evenodd"/><path d="M24.3333 562.625 325.833 562.625" stroke="#FFFFFF" stroke-width="1.33333" stroke-linejoin="round" stroke-miterlimit="10" fill="none" fill-rule="evenodd"/><path d="M24.3333 587.084 325.833 587.084" stroke="#FFFFFF" stroke-width="1.33333" stroke-linejoin="round" stroke-miterlimit="10" fill="none" fill-rule="evenodd"/><path d="M24.3333 611.542 325.833 611.542" stroke="#FFFFFF" stroke-width="1.33333" stroke-linejoin="round" stroke-miterlimit="10" fill="none" fill-rule="evenodd"/><path d="M25 439.667 25 636.667" stroke="#FFFFFF" stroke-width="1.33333" stroke-linejoin="round" stroke-miterlimit="10" fill="none" fill-rule="evenodd"/><path d="M325.167 439.667 325.167 636.667" stroke="#FFFFFF" stroke-width="1.33333" stroke-linejoin="round" stroke-miterlimit="10" fill="none" fill-rule="evenodd"/><path d="M24.3333 440.333 325.833 440.333" stroke="#FFFFFF" stroke-width="1.33333" stroke-linejoin="round" stroke-miterlimit="10" fill="none" fill-rule="evenodd"/><path d="M24.3333 636 325.833 636" stroke="#FFFFFF" stroke-width="1.33333" stroke-linejoin="round" stroke-miterlimit="10" fill="none" fill-rule="evenodd"/><text fill="#FFFFFF" font-family="Calibri,Calibri_MSFontService,sans-serif" font-weight="700" font-size="9" transform="translate(88.4583 452)">Name<tspan font-size="9" x="153" y="0">Role</tspan></text><path d="M334.167 441.167 484.25 441.167 484.25 465.625 334.167 465.625Z" fill="#898575" fill-rule="evenodd"/><path d="M484.25 441.167 634.333 441.167 634.333 465.625 484.25 465.625Z" fill="#898575" fill-rule="evenodd"/><path d="M334.167 465.625 484.25 465.625 484.25 490.083 334.167 490.083Z" fill="#DAD9D6" fill-rule="evenodd"/><path d="M484.25 465.625 634.333 465.625 634.333 490.083 484.25 490.083Z" fill="#DAD9D6" fill-rule="evenodd"/><path d="M334.167 490.083 484.25 490.083 484.25 514.542 334.167 514.542Z" fill="#EDEDEC" fill-rule="evenodd"/><path d="M484.25 490.083 634.333 490.083 634.333 514.542 484.25 514.542Z" fill="#EDEDEC" fill-rule="evenodd"/><path d="M334.167 514.542 484.25 514.542 484.25 539 334.167 539Z" fill="#DAD9D6" fill-rule="evenodd"/><path d="M484.25 514.542 634.333 514.542 634.333 539 484.25 539Z" fill="#DAD9D6" fill-rule="evenodd"/><path d="M334.167 539 484.25 539 484.25 563.459 334.167 563.459Z" fill="#EDEDEC" fill-rule="evenodd"/><path d="M484.25 539 634.333 539 634.333 563.459 484.25 563.459Z" fill="#EDEDEC" fill-rule="evenodd"/><path d="M334.167 563.459 484.25 563.459 484.25 587.917 334.167 587.917Z" fill="#DAD9D6" fill-rule="evenodd"/><path d="M484.25 563.459 634.333 563.459 634.333 587.917 484.25 587.917Z" fill="#DAD9D6" fill-rule="evenodd"/><path d="M334.167 587.917 484.25 587.917 484.25 612.375 334.167 612.375Z" fill="#EDEDEC" fill-rule="evenodd"/><path d="M484.25 587.917 634.333 587.917 634.333 612.375 484.25 612.375Z" fill="#EDEDEC" fill-rule="evenodd"/><path d="M334.167 612.375 484.25 612.375 484.25 636.834 334.167 636.834Z" fill="#DAD9D6" fill-rule="evenodd"/><path d="M484.25 612.375 634.333 612.375 634.333 636.834 484.25 636.834Z" fill="#DAD9D6" fill-rule="evenodd"/><path d="M484.25 440.5 484.25 637.5" stroke="#FFFFFF" stroke-width="1.33333" stroke-linejoin="round" stroke-miterlimit="10" fill="none" fill-rule="evenodd"/><path d="M333.5 465.625 635 465.625" stroke="#FFFFFF" stroke-width="4" stroke-linejoin="round" stroke-miterlimit="10" fill="none" fill-rule="evenodd"/><path d="M333.5 490.083 635 490.083" stroke="#FFFFFF" stroke-width="1.33333" stroke-linejoin="round" stroke-miterlimit="10" fill="none" fill-rule="evenodd"/><path d="M333.5 514.542 635 514.542" stroke="#FFFFFF" stroke-width="1.33333" stroke-linejoin="round" stroke-miterlimit="10" fill="none" fill-rule="evenodd"/><path d="M333.5 539 635 539" stroke="#FFFFFF" stroke-width="1.33333" stroke-linejoin="round" stroke-miterlimit="10" fill="none" fill-rule="evenodd"/><path d="M333.5 563.459 635 563.459" stroke="#FFFFFF" stroke-width="1.33333" stroke-linejoin="round" stroke-miterlimit="10" fill="none" fill-rule="evenodd"/><path d="M333.5 587.917 635 587.917" stroke="#FFFFFF" stroke-width="1.33333" stroke-linejoin="round" stroke-miterlimit="10" fill="none" fill-rule="evenodd"/><path d="M333.5 612.375 635 612.375" stroke="#FFFFFF" stroke-width="1.33333" stroke-linejoin="round" stroke-miterlimit="10" fill="none" fill-rule="evenodd"/><path d="M334.167 440.5 334.167 637.5" stroke="#FFFFFF" stroke-width="1.33333" stroke-linejoin="round" stroke-miterlimit="10" fill="none" fill-rule="evenodd"/><path d="M634.333 440.5 634.333 637.5" stroke="#FFFFFF" stroke-width="1.33333" stroke-linejoin="round" stroke-miterlimit="10" fill="none" fill-rule="evenodd"/><path d="M333.5 441.167 635 441.167" stroke="#FFFFFF" stroke-width="1.33333" stroke-linejoin="round" stroke-miterlimit="10" fill="none" fill-rule="evenodd"/><path d="M333.5 636.834 635 636.834" stroke="#FFFFFF" stroke-width="1.33333" stroke-linejoin="round" stroke-miterlimit="10" fill="none" fill-rule="evenodd"/><text fill="#FFFFFF" font-family="Calibri,Calibri_MSFontService,sans-serif" font-weight="700" font-size="9" transform="translate(397.625 453)">Name<tspan font-size="9" x="153" y="0">Role</tspan></text><path d="M646.167 440.333 796.25 440.333 796.25 464.792 646.167 464.792Z" fill="#898575" fill-rule="evenodd"/><path d="M796.25 440.333 946.333 440.333 946.333 464.792 796.25 464.792Z" fill="#898575" fill-rule="evenodd"/><path d="M646.167 464.792 796.25 464.792 796.25 489.25 646.167 489.25Z" fill="#DAD9D6" fill-rule="evenodd"/><path d="M796.25 464.792 946.333 464.792 946.333 489.25 796.25 489.25Z" fill="#DAD9D6" fill-rule="evenodd"/><path d="M646.167 489.25 796.25 489.25 796.25 513.708 646.167 513.708Z" fill="#EDEDEC" fill-rule="evenodd"/><path d="M796.25 489.25 946.333 489.25 946.333 513.708 796.25 513.708Z" fill="#EDEDEC" fill-rule="evenodd"/><path d="M646.167 513.708 796.25 513.708 796.25 538.167 646.167 538.167Z" fill="#DAD9D6" fill-rule="evenodd"/><path d="M796.25 513.708 946.333 513.708 946.333 538.167 796.25 538.167Z" fill="#DAD9D6" fill-rule="evenodd"/><path d="M646.167 538.167 796.25 538.167 796.25 562.625 646.167 562.625Z" fill="#EDEDEC" fill-rule="evenodd"/><path d="M796.25 538.167 946.333 538.167 946.333 562.625 796.25 562.625Z" fill="#EDEDEC" fill-rule="evenodd"/><path d="M646.167 562.625 796.25 562.625 796.25 587.084 646.167 587.084Z" fill="#DAD9D6" fill-rule="evenodd"/><path d="M796.25 562.625 946.333 562.625 946.333 587.084 796.25 587.084Z" fill="#DAD9D6" fill-rule="evenodd"/><path d="M646.167 587.084 796.25 587.084 796.25 611.542 646.167 611.542Z" fill="#EDEDEC" fill-rule="evenodd"/><path d="M796.25 587.084 946.333 587.084 946.333 611.542 796.25 611.542Z" fill="#EDEDEC" fill-rule="evenodd"/><path d="M646.167 611.542 796.25 611.542 796.25 636 646.167 636Z" fill="#DAD9D6" fill-rule="evenodd"/><path d="M796.25 611.542 946.333 611.542 946.333 636 796.25 636Z" fill="#DAD9D6" fill-rule="evenodd"/><path d="M796.25 439.667 796.25 636.667" stroke="#FFFFFF" stroke-width="1.33333" stroke-linejoin="round" stroke-miterlimit="10" fill="none" fill-rule="evenodd"/><path d="M645.5 464.792 947 464.792" stroke="#FFFFFF" stroke-width="4" stroke-linejoin="round" stroke-miterlimit="10" fill="none" fill-rule="evenodd"/><path d="M645.5 489.25 947 489.25" stroke="#FFFFFF" stroke-width="1.33333" stroke-linejoin="round" stroke-miterlimit="10" fill="none" fill-rule="evenodd"/><path d="M645.5 513.708 947 513.708" stroke="#FFFFFF" stroke-width="1.33333" stroke-linejoin="round" stroke-miterlimit="10" fill="none" fill-rule="evenodd"/><path d="M645.5 538.167 947 538.167" stroke="#FFFFFF" stroke-width="1.33333" stroke-linejoin="round" stroke-miterlimit="10" fill="none" fill-rule="evenodd"/><path d="M645.5 562.625 947 562.625" stroke="#FFFFFF" stroke-width="1.33333" stroke-linejoin="round" stroke-miterlimit="10" fill="none" fill-rule="evenodd"/><path d="M645.5 587.084 947 587.084" stroke="#FFFFFF" stroke-width="1.33333" stroke-linejoin="round" stroke-miterlimit="10" fill="none" fill-rule="evenodd"/><path d="M645.5 611.542 947 611.542" stroke="#FFFFFF" stroke-width="1.33333" stroke-linejoin="round" stroke-miterlimit="10" fill="none" fill-rule="evenodd"/><path d="M646.167 439.667 646.167 636.667" stroke="#FFFFFF" stroke-width="1.33333" stroke-linejoin="round" stroke-miterlimit="10" fill="none" fill-rule="evenodd"/><path d="M946.333 439.667 946.333 636.667" stroke="#FFFFFF" stroke-width="1.33333" stroke-linejoin="round" stroke-miterlimit="10" fill="none" fill-rule="evenodd"/><path d="M645.5 440.333 947 440.333" stroke="#FFFFFF" stroke-width="1.33333" stroke-linejoin="round" stroke-miterlimit="10" fill="none" fill-rule="evenodd"/><path d="M645.5 636 947 636" stroke="#FFFFFF" stroke-width="1.33333" stroke-linejoin="round" stroke-miterlimit="10" fill="none" fill-rule="evenodd"/><text fill="#FFFFFF" font-family="Calibri,Calibri_MSFontService,sans-serif" font-weight="700" font-size="9" transform="translate(709.625 452)">Name<tspan font-size="9" x="153" y="0">Role</tspan></text></g></svg>