<svg width="1280" height="720" xmlns="http://www.w3.org/2000/svg" xmlns:xlink="http://www.w3.org/1999/xlink" overflow="hidden"><defs><clipPath id="clip0"><rect x="0" y="0" width="1280" height="720"/></clipPath></defs><g clip-path="url(#clip0)"><rect x="0" y="0" width="1280" height="720" fill="#FFFFFF"/><rect x="50.5001" y="76.5001" width="1159" height="609" stroke="#000000" stroke-width="3" stroke-miterlimit="8" fill="none"/><rect x="50.5001" y="76.5001" width="898" height="96" stroke="#000000" stroke-width="3" stroke-miterlimit="8" fill="none"/><text font-family="Century Gothic,Century Gothic_MSFontService,sans-serif" font-style="italic" font-weight="400" font-size="11" transform="translate(59.9165 92)">ARCHITECTURALLY SIGNIFICANT REQUIREMENT:</text><rect x="50.5001" y="172.5" width="1159" height="96" stroke="#000000" stroke-width="3" stroke-miterlimit="8" fill="none"/><text font-family="Century Gothic,Century Gothic_MSFontService,sans-serif" font-style="italic" font-weight="400" font-size="11" transform="translate(59.9165 188)">OBJECTIVES IMPACT:<tspan font-style="normal" font-size="17" x="-11.2237" y="-145">ASR CARD</tspan></text><rect x="987" y="24" width="108" height="40" fill="#D9D9D9"/><text font-family="Century Gothic,Century Gothic_MSFontService,sans-serif" font-weight="400" font-size="7" transform="translate(996.573 36)">DATE:</text><rect x="1101" y="24" width="108" height="40" fill="#D9D9D9"/><text font-family="Century Gothic,Century Gothic_MSFontService,sans-serif" font-weight="400" font-size="7" transform="translate(1110.29 36)">STATUS:<tspan font-size="7" x="-1056.57" y="659">This work is licensed under a Creative Commons Attribution</tspan><tspan font-size="7" x="-846.574" y="659">-</tspan>ShareAlike 4.0 International License. http://creativecommons.org/licenses/by-sa/4.0</text><rect x="816" y="24" width="166" height="40" fill="#D9D9D9"/><text font-family="Century Gothic,Century Gothic_MSFontService,sans-serif" font-weight="400" font-size="7" transform="translate(825.675 36)">CRITICALITY:</text><rect x="50.5001" y="267.5" width="1159" height="240" stroke="#000000" stroke-width="3" stroke-miterlimit="8" fill="none"/><text font-family="Century Gothic,Century Gothic_MSFontService,sans-serif" font-style="italic" font-weight="400" font-size="11" transform="translate(59.9165 283)">CHARACTERISTICS:</text><path d="M186.5 348.5 399.964 348.5" stroke="#7F7F7F" stroke-width="3" stroke-miterlimit="8" fill="none" fill-rule="evenodd"/><path d="M186.5 383.5 399.964 383.5" stroke="#7F7F7F" stroke-width="3" stroke-miterlimit="8" fill="none" fill-rule="evenodd"/><path d="M186.5 419.5 399.964 419.5" stroke="#7F7F7F" stroke-width="3" stroke-miterlimit="8" fill="none" fill-rule="evenodd"/><text font-family="Century Gothic,Century Gothic_MSFontService,sans-serif" font-style="italic" font-weight="400" font-size="6" transform="translate(186.555 338)">no impact<tspan font-size="6" x="152.474" y="0">significant impact</tspan><tspan font-size="6" x="0.211655" y="38">simple</tspan><tspan font-size="6" x="182.545" y="38">complex</tspan><tspan font-size="6" x="-0.635056" y="73">not new</tspan><tspan font-size="6" x="165.604" y="73">bleeding edge</tspan></text><path d="M186.5 456.5 399.964 456.5" stroke="#7F7F7F" stroke-width="3" stroke-miterlimit="8" fill="none" fill-rule="evenodd"/><text font-family="Century Gothic,Century Gothic_MSFontService,sans-serif" font-style="italic" font-weight="400" font-size="6" transform="translate(187.402 447)">low<tspan font-size="6" x="196.522" y="0">high</tspan></text><path d="M551.5 349.5 765.175 349.5" stroke="#7F7F7F" stroke-width="3" stroke-miterlimit="8" fill="none" fill-rule="evenodd"/><path d="M551.5 384.5 765.175 384.5" stroke="#7F7F7F" stroke-width="3" stroke-miterlimit="8" fill="none" fill-rule="evenodd"/><path d="M551.5 420.5 765.175 420.5" stroke="#7F7F7F" stroke-width="3" stroke-miterlimit="8" fill="none" fill-rule="evenodd"/><text font-family="Century Gothic,Century Gothic_MSFontService,sans-serif" font-style="italic" font-weight="400" font-size="6" transform="translate(552.069 339)">no return<tspan font-size="6" x="168.992" y="0">high returns</tspan><tspan font-size="6" x="1.0589" y="73">low visibility</tspan><tspan font-size="6" x="171.11" y="72">high visibility</tspan></text><path d="M551.5 457.5 765.175 457.5" stroke="#7F7F7F" stroke-width="3" stroke-miterlimit="8" fill="none" fill-rule="evenodd"/><text font-family="Century Gothic,Century Gothic_MSFontService,sans-serif" font-style="italic" font-weight="400" font-size="11" transform="translate(143.008 340)">COST<tspan font-size="11" x="-37.9846" y="33">COMPLEXITY</tspan><tspan font-size="11" x="-23.7078" y="70">NOVELTY</tspan><tspan font-size="11" x="3.08913" y="104">RISK</tspan><tspan font-size="11" x="353.057" y="4">REWARD</tspan><tspan font-size="11" x="315.601" y="38">LEGAL &amp; COMP</tspan><tspan font-size="11" x="349.315" y="75">POLITICS</tspan><tspan font-size="7" x="681.193" y="109">other</tspan><tspan font-size="11" x="700.027" y="109">_________</tspan></text><path d="M914.5 349.5 1128.18 349.5" stroke="#7F7F7F" stroke-width="3" stroke-miterlimit="8" fill="none" fill-rule="evenodd"/><path d="M914.5 384.5 1128.18 384.5" stroke="#7F7F7F" stroke-width="3" stroke-miterlimit="8" fill="none" fill-rule="evenodd"/><path d="M914.5 420.5 1128.18 420.5" stroke="#7F7F7F" stroke-width="3" stroke-miterlimit="8" fill="none" fill-rule="evenodd"/><text font-family="Century Gothic,Century Gothic_MSFontService,sans-serif" font-style="italic" font-weight="400" font-size="6" transform="translate(915.041 339)">compliant<tspan font-size="6" x="193.747" y="-10">major </tspan><tspan font-size="6" x="165.747" y="-3">non</tspan><tspan font-size="6" x="176.081" y="-3">-</tspan><tspan font-size="6" x="177.914" y="-3">compliance</tspan><tspan font-size="6" x="0.423523" y="38">available</tspan><tspan font-size="6" x="174.922" y="38">unavailable</tspan><tspan font-size="6" x="1.05884" y="73">doable</tspan><tspan font-size="6" x="178.733" y="73">impossible</tspan></text><path d="M914.5 457.5 1128.18 457.5" stroke="#7F7F7F" stroke-width="3" stroke-miterlimit="8" fill="none" fill-rule="evenodd"/><text font-family="Century Gothic,Century Gothic_MSFontService,sans-serif" font-style="italic" font-weight="400" font-size="11" transform="translate(840.78 344)">PRINCIPLES<tspan font-size="11" x="28.15" y="34">SKILLS</tspan><tspan font-size="11" x="0.317505" y="71">DOABILITY</tspan><tspan font-size="11" x="-375.861" y="102">CONSTRAINTS</tspan><tspan font-size="6" x="-288.923" y="31">no impact</tspan><tspan font-size="6" x="-136.449" y="32">significant impact</tspan><tspan font-size="6" x="-287.653" y="103">no constraints</tspan><tspan font-size="6" x="-113.578" y="103">constraints</tspan><tspan font-size="6" x="186.765" y="-15">minor </tspan><tspan font-size="6" x="158.265" y="-8">non</tspan><tspan font-size="6" x="168.599" y="-8">-</tspan><tspan font-size="6" x="170.432" y="-8">compliance</tspan></text><rect x="50.5001" y="507.5" width="1159" height="88" stroke="#000000" stroke-width="3" stroke-miterlimit="8" fill="none"/><text font-family="Century Gothic,Century Gothic_MSFontService,sans-serif" font-style="italic" font-weight="400" font-size="11" transform="translate(59.9165 523)">STRATEGY &amp; PLAN:</text><rect x="50.5001" y="596.5" width="572" height="88" stroke="#000000" stroke-width="3" stroke-miterlimit="8" fill="none"/><text font-family="Century Gothic,Century Gothic_MSFontService,sans-serif" font-style="italic" font-weight="400" font-size="11" transform="translate(59.9165 611)">IDEAS:</text><rect x="622.5" y="596.5" width="587" height="89" stroke="#000000" stroke-width="3" stroke-miterlimit="8" fill="none"/><text font-family="Century Gothic,Century Gothic_MSFontService,sans-serif" font-style="italic" font-weight="400" font-size="11" transform="translate(631.482 612)">STAKEHOLDERS:</text><rect x="993.5" y="82.5001" width="189" height="86" stroke="#000000" stroke-width="3" stroke-miterlimit="8" fill="none"/><text font-family="Century Gothic,Century Gothic_MSFontService,sans-serif" font-style="italic" font-weight="400" font-size="11" transform="translate(1002.47 98)">SCOPE:</text><rect x="993.5" y="179.5" width="189" height="82" stroke="#000000" stroke-width="3" stroke-miterlimit="8" fill="none"/><text font-family="Century Gothic,Century Gothic_MSFontService,sans-serif" font-style="italic" font-weight="400" font-size="11" transform="translate(1002.47 195)">TYPE:</text></g></svg>