<svg width="960" height="720" xmlns="http://www.w3.org/2000/svg" xmlns:xlink="http://www.w3.org/1999/xlink" overflow="hidden"><defs><clipPath id="clip0"><rect x="0" y="0" width="960" height="720"/></clipPath></defs><g clip-path="url(#clip0)"><rect x="0" y="0" width="960" height="720" fill="#FFFFFF"/><rect x="18.5001" y="71.5001" width="923" height="587" stroke="#000000" stroke-width="3" stroke-miterlimit="8" fill="none"/><rect x="18.5001" y="71.5001" width="923" height="139" stroke="#000000" stroke-width="3" stroke-miterlimit="8" fill="none"/><text font-family="Century Gothic,Century Gothic_MSFontService,sans-serif" font-weight="400" font-size="11" transform="translate(27.5466 87)">CAPABILITY:</text><text fill="#BFBFBF" font-family="Century Gothic,Century Gothic_MSFontService,sans-serif" font-weight="400" font-size="7" transform="translate(27.5466 97)">Verb / Noun / Outcome</text><rect x="18.5001" y="209.5" width="456" height="153" stroke="#000000" stroke-width="3" stroke-miterlimit="8" fill="none"/><text font-family="Century Gothic,Century Gothic_MSFontService,sans-serif" font-weight="400" font-size="11" transform="translate(27.5466 225)">DESCRIPTION:</text><text fill="#BFBFBF" font-family="Century Gothic,Century Gothic_MSFontService,sans-serif" font-weight="400" font-size="7" transform="translate(27.5466 235)">Description of what the capability does &amp; what other capabilities it connects to.</text><rect x="474.5" y="209.5" width="467" height="153" stroke="#000000" stroke-width="3" stroke-miterlimit="8" fill="none"/><text font-family="Century Gothic,Century Gothic_MSFontService,sans-serif" font-weight="400" font-size="11" transform="translate(483.379 225)">OUTCOME(S)</text><text fill="#BFBFBF" font-family="Century Gothic,Century Gothic_MSFontService,sans-serif" font-weight="400" font-size="7" transform="translate(483.379 235)">What business does this capability enable? How is it measured?</text><text font-family="Century Gothic,Century Gothic_MSFontService,sans-serif" font-weight="400" font-size="17" transform="translate(22.8 42)">CAPABILITY CARD</text><rect x="765" y="24" width="86" height="39" fill="#D9D9D9"/><text font-family="Century Gothic,Century Gothic_MSFontService,sans-serif" font-weight="400" font-size="7" transform="translate(774.441 35)">DATE:</text><rect x="855" y="24" width="86" height="39" fill="#D9D9D9"/><text font-family="Century Gothic,Century Gothic_MSFontService,sans-serif" font-weight="400" font-size="7" transform="translate(864.455 35)">VERSION:</text><text font-family="Century Gothic,Century Gothic_MSFontService,sans-serif" font-weight="400" font-size="7" transform="translate(22.8001 669)">Designed By:</text><text font-family="Century Gothic,Century Gothic_MSFontService,sans-serif" font-weight="700" font-size="7" transform="translate(70.9668 669)">Gar Mac Críosta Agent ∆</text><text font-family="Century Gothic,Century Gothic_MSFontService,sans-serif" font-weight="400" font-size="7" transform="translate(161.467 669)">for</text><text font-family="Century Gothic,Century Gothic_MSFontService,sans-serif" font-weight="700" font-size="7" transform="translate(172.8 669)">IASA Global.</text><text font-family="Century Gothic,Century Gothic_MSFontService,sans-serif" font-weight="400" font-size="7" transform="translate(22.8001 678)">This work is licensed under a Creative Commons Attribution-NonCommercial-</text><text font-family="Century Gothic,Century Gothic_MSFontService,sans-serif" font-weight="400" font-size="7" transform="translate(232.8 678)">-</text><text font-family="Century Gothic,Century Gothic_MSFontService,sans-serif" font-weight="400" font-size="7" transform="translate(235.3 678)">ShareAlike 4.0 International License. http://creativecommons.org/lice</text><text font-family="Century Gothic,Century Gothic_MSFontService,sans-serif" font-weight="400" font-size="7" transform="translate(482.8 678)">nses/by</text><text font-family="Century Gothic,Century Gothic_MSFontService,sans-serif" font-weight="400" font-size="7" transform="translate(509.967 678)">-</text><text font-family="Century Gothic,Century Gothic_MSFontService,sans-serif" font-weight="400" font-size="7" transform="translate(512.467 678)">sa/4.0</text><rect x="618" y="23" width="143" height="40" fill="#D9D9D9"/><text font-family="Century Gothic,Century Gothic_MSFontService,sans-serif" font-weight="400" font-size="7" transform="translate(627.469 35)">CAPABILITY OWNER:</text><text fill="#BFBFBF" font-family="Century Gothic,Century Gothic_MSFontService,sans-serif" font-style="italic" font-weight="400" font-size="10" transform="translate(708.086 87)">“If I have the belief that I can do it, I shall surely</text><text fill="#BFBFBF" font-family="Century Gothic,Century Gothic_MSFontService,sans-serif" font-style="italic" font-weight="400" font-size="10" transform="translate(675.42 98)">acquire the capacity to do it even if I may not have it</text><text fill="#BFBFBF" font-family="Century Gothic,Century Gothic_MSFontService,sans-serif" font-style="italic" font-weight="400" font-size="10" transform="translate(843.253 110)">at the beginning.”</text><text fill="#BFBFBF" font-family="Century Gothic,Century Gothic_MSFontService,sans-serif" font-weight="400" font-size="10" transform="translate(886.586 122)">–</text><text fill="#BFBFBF" font-family="Century Gothic,Century Gothic_MSFontService,sans-serif" font-weight="400" font-size="10" transform="translate(894.253 122)">Gandhi</text><text font-family="Century Gothic,Century Gothic_MSFontService,sans-serif" font-style="italic" font-weight="400" font-size="9" transform="translate(27.5466 169)">_________________________________________________</text><text fill="#A6A6A6" font-family="Century Gothic,Century Gothic_MSFontService,sans-serif" font-style="italic" font-weight="400" font-size="7" transform="translate(27.5466 178)">[verb]</text><text font-family="Century Gothic,Century Gothic_MSFontService,sans-serif" font-style="italic" font-weight="400" font-size="9" transform="translate(297.418 170)">_________________________________________________</text><text fill="#A6A6A6" font-family="Century Gothic,Century Gothic_MSFontService,sans-serif" font-style="italic" font-weight="400" font-size="7" transform="translate(297.418 179)">[noun]</text><rect x="18.5001" y="362.5" width="304" height="133" stroke="#000000" stroke-width="3" stroke-miterlimit="8" fill="none"/><text font-family="Century Gothic,Century Gothic_MSFontService,sans-serif" font-weight="400" font-size="11" transform="translate(27.5466 378)">PEOPLE:</text><text fill="#BFBFBF" font-family="Century Gothic,Century Gothic_MSFontService,sans-serif" font-weight="400" font-size="7" transform="translate(27.5466 388)">Who directly supports or enables this capability</text><rect x="322.5" y="363.5" width="303" height="132" stroke="#000000" stroke-width="3" stroke-miterlimit="8" fill="none"/><text font-family="Century Gothic,Century Gothic_MSFontService,sans-serif" font-weight="400" font-size="11" transform="translate(331.491 378)">PROCESS:</text><text fill="#BFBFBF" font-family="Century Gothic,Century Gothic_MSFontService,sans-serif" font-weight="400" font-size="7" transform="translate(331.491 388)">What business processes currently contribute to realise this capability?</text><rect x="625.5" y="363.5" width="315" height="132" stroke="#000000" stroke-width="3" stroke-miterlimit="8" fill="none"/><text font-family="Century Gothic,Century Gothic_MSFontService,sans-serif" font-weight="400" font-size="11" transform="translate(634.419 378)">TECHNOLOGY SERVICES:</text><text fill="#BFBFBF" font-family="Century Gothic,Century Gothic_MSFontService,sans-serif" font-weight="400" font-size="7" transform="translate(634.419 388)">What application services &amp; components are the primary enabler of this capability</text><rect x="479" y="316" width="143" height="39" fill="#D9D9D9"/><text font-family="Century Gothic,Century Gothic_MSFontService,sans-serif" font-weight="400" font-size="7" transform="translate(488.634 328)">SOURCING:</text><rect x="18.5001" y="495.5" width="304" height="162" stroke="#000000" stroke-width="3" stroke-miterlimit="8" fill="none"/><text font-family="Century Gothic,Century Gothic_MSFontService,sans-serif" font-weight="400" font-size="11" transform="translate(27.3769 511)">PERFORMANCE:</text><text fill="#BFBFBF" font-family="Century Gothic,Century Gothic_MSFontService,sans-serif" font-weight="400" font-size="7" transform="translate(27.3769 521)">Who directly supports or enables this capability</text><rect x="322.5" y="495.5" width="303" height="162" stroke="#000000" stroke-width="3" stroke-miterlimit="8" fill="none"/><text font-family="Century Gothic,Century Gothic_MSFontService,sans-serif" font-weight="400" font-size="11" transform="translate(331.322 511)">MATURITY:</text><text fill="#BFBFBF" font-family="Century Gothic,Century Gothic_MSFontService,sans-serif" font-weight="400" font-size="7" transform="translate(331.322 521)">What level of maturity does the capability exhibit currently?</text><rect x="625.5" y="495.5" width="315" height="162" stroke="#000000" stroke-width="3" stroke-miterlimit="8" fill="none"/><text font-family="Century Gothic,Century Gothic_MSFontService,sans-serif" font-weight="400" font-size="11" transform="translate(634.25 511)">STRATEGY:</text><text fill="#BFBFBF" font-family="Century Gothic,Century Gothic_MSFontService,sans-serif" font-weight="400" font-size="7" transform="translate(634.25 521)">What impact does this capability have on strategy</text><rect x="627" y="315" width="143" height="39" fill="#D9D9D9"/><text font-family="Century Gothic,Century Gothic_MSFontService,sans-serif" font-weight="400" font-size="7" transform="translate(636.987 326)">KEY DEMAND DRIVER:</text><path d="M61.5001 606.5 276.448 607.347" stroke="#000000" stroke-width="0.666667" stroke-miterlimit="8" fill="none" fill-rule="evenodd"/><path d="M161.5 608 170 597.5 178.5 608 170 618.5Z" stroke="#000000" stroke-width="1.33333" stroke-miterlimit="8" fill-rule="evenodd"/><path d="M211.5 608 220 597.5 228.5 608 220 618.5Z" stroke="#000000" stroke-width="1.33333" stroke-miterlimit="8" fill-rule="evenodd"/><path d="M111.5 608 120 597.5 128.5 608 120 618.5Z" stroke="#000000" stroke-width="1.33333" stroke-miterlimit="8" fill-rule="evenodd"/><path d="M260.5 608 269 597.5 277.5 608 269 618.5Z" stroke="#000000" stroke-width="1.33333" stroke-miterlimit="8" fill-rule="evenodd"/><path d="M62.5001 608 71.0001 597.5 79.5001 608 71.0001 618.5Z" stroke="#000000" stroke-width="1.33333" stroke-miterlimit="8" fill-rule="evenodd"/><path d="M340.5 557.5 440.854 558.008" stroke="#000000" stroke-width="0.666667" stroke-miterlimit="8" fill="none" fill-rule="evenodd"/><path d="M387.5 558.5 391.5 553.5 395.5 558.5 391.5 563.5Z" stroke="#000000" stroke-width="1.33333" stroke-miterlimit="8" fill-rule="evenodd"/><path d="M410.5 558.5 414.5 553.5 418.5 558.5 414.5 563.5Z" stroke="#000000" stroke-width="1.33333" stroke-miterlimit="8" fill-rule="evenodd"/><path d="M364.5 558.5 368.5 553.5 372.5 558.5 368.5 563.5Z" stroke="#000000" stroke-width="1.33333" stroke-miterlimit="8" fill-rule="evenodd"/><path d="M433.5 558.5 437.5 553.5 441.5 558.5 437.5 563.5Z" stroke="#000000" stroke-width="1.33333" stroke-miterlimit="8" fill-rule="evenodd"/><path d="M341.5 558.5 345.5 553.5 349.5 558.5 345.5 563.5Z" stroke="#000000" stroke-width="1.33333" stroke-miterlimit="8" fill-rule="evenodd"/><path d="M341.5 597.5 441.854 597.839" stroke="#000000" stroke-width="0.666667" stroke-miterlimit="8" fill="none" fill-rule="evenodd"/><path d="M387.5 598 391.5 593.5 395.5 598 391.5 602.5Z" stroke="#000000" stroke-width="1.33333" stroke-miterlimit="8" fill-rule="evenodd"/><path d="M410.5 598 414.5 593.5 418.5 598 414.5 602.5Z" stroke="#000000" stroke-width="1.33333" stroke-miterlimit="8" fill-rule="evenodd"/><path d="M364.5 598 368.5 593.5 372.5 598 368.5 602.5Z" stroke="#000000" stroke-width="1.33333" stroke-miterlimit="8" fill-rule="evenodd"/><path d="M433.5 598 437.5 593.5 441.5 598 437.5 602.5Z" stroke="#000000" stroke-width="1.33333" stroke-miterlimit="8" fill-rule="evenodd"/><path d="M341.5 598 345.5 593.5 349.5 598 345.5 602.5Z" stroke="#000000" stroke-width="1.33333" stroke-miterlimit="8" fill-rule="evenodd"/><path d="M485.5 557.5 585.854 558.008" stroke="#000000" stroke-width="0.666667" stroke-miterlimit="8" fill="none" fill-rule="evenodd"/><path d="M532.5 558.5 536.5 553.5 540.5 558.5 536.5 563.5Z" stroke="#000000" stroke-width="1.33333" stroke-miterlimit="8" fill-rule="evenodd"/><path d="M555.5 558.5 559.5 553.5 563.5 558.5 559.5 563.5Z" stroke="#000000" stroke-width="1.33333" stroke-miterlimit="8" fill-rule="evenodd"/><path d="M509.5 558.5 513.5 553.5 517.5 558.5 513.5 563.5Z" stroke="#000000" stroke-width="1.33333" stroke-miterlimit="8" fill-rule="evenodd"/><path d="M578.5 558.5 582.5 553.5 586.5 558.5 582.5 563.5Z" stroke="#000000" stroke-width="1.33333" stroke-miterlimit="8" fill-rule="evenodd"/><path d="M486.5 558.5 490.5 553.5 494.5 558.5 490.5 563.5Z" stroke="#000000" stroke-width="1.33333" stroke-miterlimit="8" fill-rule="evenodd"/><path d="M486.5 597.5 586.854 597.839" stroke="#000000" stroke-width="0.666667" stroke-miterlimit="8" fill="none" fill-rule="evenodd"/><path d="M532.5 598 536.5 593.5 540.5 598 536.5 602.5Z" stroke="#000000" stroke-width="1.33333" stroke-miterlimit="8" fill-rule="evenodd"/><path d="M555.5 598 559.5 593.5 563.5 598 559.5 602.5Z" stroke="#000000" stroke-width="1.33333" stroke-miterlimit="8" fill-rule="evenodd"/><path d="M509.5 598 513.5 593.5 517.5 598 513.5 602.5Z" stroke="#000000" stroke-width="1.33333" stroke-miterlimit="8" fill-rule="evenodd"/><path d="M579.5 598 583.5 593.5 587.5 598 583.5 602.5Z" stroke="#000000" stroke-width="1.33333" stroke-miterlimit="8" fill-rule="evenodd"/><path d="M486.5 598 490.5 593.5 494.5 598 490.5 602.5Z" stroke="#000000" stroke-width="1.33333" stroke-miterlimit="8" fill-rule="evenodd"/><text fill="#A6A6A6" font-family="Century Gothic,Century Gothic_MSFontService,sans-serif" font-style="italic" font-weight="400" font-size="7" transform="translate(131.161 580)">efficiency</text><text fill="#A6A6A6" font-family="Century Gothic,Century Gothic_MSFontService,sans-serif" font-style="italic" font-weight="400" font-size="7" transform="translate(131.161 630)">effectiveness</text><text fill="#A6A6A6" font-family="Century Gothic,Century Gothic_MSFontService,sans-serif" font-style="italic" font-weight="400" font-size="7" transform="translate(341.981 573)">process definition</text><text fill="#A6A6A6" font-family="Century Gothic,Century Gothic_MSFontService,sans-serif" font-style="italic" font-weight="400" font-size="7" transform="translate(342.904 613)">digitization</text><text fill="#A6A6A6" font-family="Century Gothic,Century Gothic_MSFontService,sans-serif" font-style="italic" font-weight="400" font-size="7" transform="translate(488.358 573)">organization scope</text><text fill="#A6A6A6" font-family="Century Gothic,Century Gothic_MSFontService,sans-serif" font-style="italic" font-weight="400" font-size="7" transform="translate(489.281 613)">outcome measurement</text><path d="M61.5001 560.5 276.448 561.347" stroke="#000000" stroke-width="0.666667" stroke-miterlimit="8" fill="none" fill-rule="evenodd"/><path d="M161.5 562 170 551.5 178.5 562 170 572.5Z" stroke="#000000" stroke-width="1.33333" stroke-miterlimit="8" fill-rule="evenodd"/><path d="M211.5 562 220 551.5 228.5 562 220 572.5Z" stroke="#000000" stroke-width="1.33333" stroke-miterlimit="8" fill-rule="evenodd"/><path d="M111.5 562 120 551.5 128.5 562 120 572.5Z" stroke="#000000" stroke-width="1.33333" stroke-miterlimit="8" fill-rule="evenodd"/><path d="M260.5 562 269 551.5 277.5 562 269 572.5Z" stroke="#000000" stroke-width="1.33333" stroke-miterlimit="8" fill-rule="evenodd"/><path d="M62.5001 562 71.0001 551.5 79.5001 562 71.0001 572.5Z" stroke="#000000" stroke-width="1.33333" stroke-miterlimit="8" fill-rule="evenodd"/><rect x="776" y="216" width="158" height="137" fill="#D9D9D9"/><text font-family="Century Gothic,Century Gothic_MSFontService,sans-serif" font-weight="400" font-size="7" transform="translate(785.51 228)">KEY METRICS:</text><path d="M656.5 557.5 756.854 557.839" stroke="#000000" stroke-width="0.666667" stroke-miterlimit="8" fill="none" fill-rule="evenodd"/><path d="M703.5 558 707.5 553.5 711.5 558 707.5 562.5Z" stroke="#000000" stroke-width="1.33333" stroke-miterlimit="8" fill-rule="evenodd"/><path d="M726.5 558 730.5 553.5 734.5 558 730.5 562.5Z" stroke="#000000" stroke-width="1.33333" stroke-miterlimit="8" fill-rule="evenodd"/><path d="M680.5 558 684.5 553.5 688.5 558 684.5 562.5Z" stroke="#000000" stroke-width="1.33333" stroke-miterlimit="8" fill-rule="evenodd"/><path d="M749.5 558 753.5 553.5 757.5 558 753.5 562.5Z" stroke="#000000" stroke-width="1.33333" stroke-miterlimit="8" fill-rule="evenodd"/><path d="M657.5 558 661.5 553.5 665.5 558 661.5 562.5Z" stroke="#000000" stroke-width="1.33333" stroke-miterlimit="8" fill-rule="evenodd"/><path d="M657.5 597.5 757.854 597.839" stroke="#000000" stroke-width="0.666667" stroke-miterlimit="8" fill="none" fill-rule="evenodd"/><path d="M703.5 598 707.5 593.5 711.5 598 707.5 602.5Z" stroke="#000000" stroke-width="1.33333" stroke-miterlimit="8" fill-rule="evenodd"/><path d="M726.5 598 730.5 593.5 734.5 598 730.5 602.5Z" stroke="#000000" stroke-width="1.33333" stroke-miterlimit="8" fill-rule="evenodd"/><path d="M680.5 598 684.5 593.5 688.5 598 684.5 602.5Z" stroke="#000000" stroke-width="1.33333" stroke-miterlimit="8" fill-rule="evenodd"/><path d="M749.5 598 753.5 593.5 757.5 598 753.5 602.5Z" stroke="#000000" stroke-width="1.33333" stroke-miterlimit="8" fill-rule="evenodd"/><path d="M657.5 598 661.5 593.5 665.5 598 661.5 602.5Z" stroke="#000000" stroke-width="1.33333" stroke-miterlimit="8" fill-rule="evenodd"/><path d="M801.5 557.5 901.854 557.839" stroke="#000000" stroke-width="0.666667" stroke-miterlimit="8" fill="none" fill-rule="evenodd"/><path d="M848.5 558 852.5 553.5 856.5 558 852.5 562.5Z" stroke="#000000" stroke-width="1.33333" stroke-miterlimit="8" fill-rule="evenodd"/><path d="M871.5 558 875.5 553.5 879.5 558 875.5 562.5Z" stroke="#000000" stroke-width="1.33333" stroke-miterlimit="8" fill-rule="evenodd"/><path d="M825.5 558 829.5 553.5 833.5 558 829.5 562.5Z" stroke="#000000" stroke-width="1.33333" stroke-miterlimit="8" fill-rule="evenodd"/><path d="M894.5 558 898.5 553.5 902.5 558 898.5 562.5Z" stroke="#000000" stroke-width="1.33333" stroke-miterlimit="8" fill-rule="evenodd"/><path d="M802.5 558 806.5 553.5 810.5 558 806.5 562.5Z" stroke="#000000" stroke-width="1.33333" stroke-miterlimit="8" fill-rule="evenodd"/><path d="M802.5 597.5 902.854 597.839" stroke="#000000" stroke-width="0.666667" stroke-miterlimit="8" fill="none" fill-rule="evenodd"/><path d="M848.5 598 852.5 593.5 856.5 598 852.5 602.5Z" stroke="#000000" stroke-width="1.33333" stroke-miterlimit="8" fill-rule="evenodd"/><path d="M871.5 598 875.5 593.5 879.5 598 875.5 602.5Z" stroke="#000000" stroke-width="1.33333" stroke-miterlimit="8" fill-rule="evenodd"/><path d="M825.5 598 829.5 593.5 833.5 598 829.5 602.5Z" stroke="#000000" stroke-width="1.33333" stroke-miterlimit="8" fill-rule="evenodd"/><path d="M895.5 598 899 593.5 902.5 598 899 602.5Z" stroke="#000000" stroke-width="1.33333" stroke-miterlimit="8" fill-rule="evenodd"/><path d="M802.5 598 806.5 593.5 810.5 598 806.5 602.5Z" stroke="#000000" stroke-width="1.33333" stroke-miterlimit="8" fill-rule="evenodd"/><text fill="#A6A6A6" font-family="Century Gothic,Century Gothic_MSFontService,sans-serif" font-style="italic" font-weight="400" font-size="7" transform="translate(657.947 573)">strategic</text><text fill="#A6A6A6" font-family="Century Gothic,Century Gothic_MSFontService,sans-serif" font-style="italic" font-weight="400" font-size="7" transform="translate(658.87 612)">cost</text><text fill="#A6A6A6" font-family="Century Gothic,Century Gothic_MSFontService,sans-serif" font-style="italic" font-weight="400" font-size="7" transform="translate(804.323 573)">value proposition</text><text fill="#A6A6A6" font-family="Century Gothic,Century Gothic_MSFontService,sans-serif" font-style="italic" font-weight="400" font-size="7" transform="translate(805.247 612)">revenue</text><text fill="#898989" font-family="Calibri,Calibri_MSFontService,sans-serif" font-weight="400" font-size="15" transform="translate(865.094 675)">1</text></g></svg>