<?xml version="1.0" standalone="no"?>
<!DOCTYPE svg PUBLIC "-//W3C//DTD SVG 20010904//EN"
 "http://www.w3.org/TR/2001/REC-SVG-20010904/DTD/svg10.dtd">
<svg version="1.0" xmlns="http://www.w3.org/2000/svg"
 width="960.000000pt" height="720.000000pt" viewBox="0 0 960.000000 720.000000"
 preserveAspectRatio="xMidYMid meet">

<g transform="translate(0.000000,720.000000) scale(0.100000,-0.100000)"
fill="#000000" stroke="none">
<path d="M572 6818 l-2 -68 33 1 c29 2 30 2 5 6 -26 4 -27 8 -31 66 l-3 62 -2
-67z"/>
<path d="M672 6815 c-17 -36 -28 -65 -24 -65 4 0 12 10 17 23 7 15 20 23 42
25 27 3 35 -1 45 -22 6 -14 15 -26 19 -26 8 0 -44 105 -60 122 -4 4 -21 -21
-39 -57z m52 19 c9 -23 8 -24 -14 -24 -11 0 -20 2 -20 4 0 12 13 36 20 36 4 0
11 -7 14 -16z"/>
<path d="M809 6846 c12 -18 22 -49 22 -67 l1 -34 7 37 c4 20 15 48 24 62 25
37 21 46 -6 13 l-23 -29 -13 26 c-8 14 -18 26 -24 26 -5 0 1 -15 12 -34z"/>
<path d="M910 6815 l0 -65 38 2 c36 1 36 1 5 5 -29 4 -33 8 -33 33 0 25 4 29
33 33 l32 4 -32 1 c-25 2 -33 7 -33 21 0 15 8 21 33 24 31 4 31 4 -5 5 l-38 2
0 -65z"/>
<path d="M1011 6813 c1 -51 3 -59 8 -33 l6 35 23 -32 c13 -18 28 -33 34 -33 7
0 1 11 -12 25 l-23 24 24 20 c20 16 22 23 13 38 -6 10 -25 19 -43 21 l-31 3 1
-68z m62 45 c7 -23 -4 -38 -29 -38 -19 0 -24 5 -24 25 0 20 5 25 24 25 13 0
26 -6 29 -12z"/>
<path d="M1120 6815 l0 -65 38 2 c36 1 36 1 5 5 -29 4 -33 8 -33 33 0 25 4 29
33 33 l32 4 -32 1 c-25 2 -33 7 -33 21 0 15 8 21 33 24 31 4 31 4 -5 5 l-38 2
0 -65z"/>
<path d="M1220 6815 l0 -65 30 0 c37 0 70 31 70 65 0 34 -33 65 -70 65 l-30 0
0 -65z m72 38 c37 -33 12 -93 -38 -93 -22 0 -24 3 -24 55 0 50 2 55 22 55 12
0 30 -7 40 -17z"/>
<path d="M1381 6813 c1 -51 3 -59 8 -33 l6 35 23 -32 c13 -18 28 -33 33 -33 6
0 1 12 -10 26 l-21 26 23 18 c29 24 13 54 -32 58 l-31 3 1 -68z m62 45 c7 -23
-4 -38 -29 -38 -19 0 -24 5 -24 25 0 20 5 25 24 25 13 0 26 -6 29 -12z"/>
<path d="M1502 6857 c-28 -30 -28 -58 1 -85 30 -28 68 -28 95 1 27 29 28 57 2
85 -27 29 -71 28 -98 -1z m92 -9 c21 -30 20 -44 -4 -68 -27 -27 -65 -26 -84 2
-21 30 -20 44 4 68 27 27 65 26 84 -2z"/>
<path d="M1672 6815 c-17 -36 -28 -65 -24 -65 4 0 12 10 17 23 7 15 20 23 42
25 27 3 35 -1 45 -22 6 -14 15 -26 20 -26 9 0 -30 81 -54 113 -12 16 -16 12
-46 -48z m52 19 c9 -23 8 -24 -14 -24 -11 0 -20 2 -20 4 0 12 13 36 20 36 4 0
11 -7 14 -16z"/>
<path d="M1800 6815 c0 -64 0 -65 28 -65 41 0 72 26 72 61 0 38 -32 69 -70 69
l-30 0 0 -65z m72 38 c37 -33 12 -93 -38 -93 -22 0 -24 3 -24 55 0 50 2 55 22
55 12 0 30 -7 40 -17z"/>
<path d="M1930 6838 c0 -24 -3 -54 -6 -68 -4 -20 -3 -22 5 -10 6 8 11 27 11
42 0 42 16 41 30 -3 18 -54 28 -57 45 -15 20 48 18 58 -4 18 l-17 -34 -25 56
c-13 31 -27 56 -31 56 -5 0 -8 -19 -8 -42z"/>
<path d="M2035 6863 c-3 -10 -1 -19 4 -21 6 -2 11 -16 12 -30 0 -15 4 -36 9
-47 8 -16 9 -14 5 10 -2 17 -4 47 -4 68 -1 39 -14 49 -26 20z"/>
<path d="M2122 6812 c-23 -46 -26 -59 -11 -39 28 36 75 38 91 2 6 -14 15 -25
20 -25 8 0 -45 106 -60 122 -4 4 -22 -23 -40 -60z m52 22 c9 -23 8 -24 -14
-24 -11 0 -20 2 -20 4 0 12 13 36 20 36 4 0 11 -7 14 -16z"/>
<path d="M2242 6813 c0 -38 3 -54 5 -36 3 25 9 32 30 35 58 7 51 68 -8 68
l-29 0 2 -67z m63 32 c0 -14 -8 -21 -27 -23 -24 -3 -28 0 -28 23 0 23 4 26 28
23 19 -2 27 -9 27 -23z"/>
<path d="M2392 6857 c-28 -30 -28 -58 1 -85 27 -26 65 -28 93 -7 18 14 17 15
-8 4 -56 -24 -112 18 -89 67 13 29 54 40 89 25 25 -11 26 -10 8 4 -29 22 -69
18 -94 -8z"/>
<path d="M2552 6813 c-27 -57 -29 -64 -9 -40 30 36 73 37 89 2 6 -14 15 -25
20 -25 9 0 -30 81 -54 113 -12 16 -16 11 -46 -50z m52 21 c9 -23 8 -24 -14
-24 -11 0 -20 2 -20 4 0 12 13 36 20 36 4 0 11 -7 14 -16z"/>
<path d="M2760 6833 l0 -48 -40 45 -39 45 1 -65 c1 -65 1 -65 7 -15 l6 49 33
-42 c19 -23 37 -42 40 -42 4 0 7 27 7 60 1 33 -3 60 -7 60 -4 0 -8 -21 -8 -47z"/>
<path d="M2807 6845 c9 -19 18 -33 21 -31 4 5 -26 66 -33 66 -3 0 3 -16 12
-35z"/>
<path d="M2877 6827 c-22 -34 -32 -59 -27 -67 6 -9 18 6 40 49 17 35 29 65 27
67 -2 2 -20 -20 -40 -49z"/>
<path d="M2963 6816 c-18 -36 -29 -66 -25 -66 5 0 14 11 20 25 16 36 68 35 84
0 9 -21 18 -25 41 -23 17 2 35 11 41 21 9 16 5 23 -23 47 -34 29 -35 56 0 47
11 -3 17 -1 13 4 -8 14 -30 11 -45 -7 -11 -14 -9 -20 21 -44 33 -27 37 -60 7
-60 -18 0 -67 48 -67 65 0 7 -8 23 -18 34 -17 22 -17 22 -49 -43z m51 18 c9
-23 8 -24 -14 -24 -11 0 -20 2 -20 4 0 12 13 36 20 36 4 0 11 -7 14 -16z"/>
<path d="M6930 6653 c8 -3 22 -11 30 -17 13 -10 13 -9 1 7 -7 9 -21 17 -30 16
-13 0 -14 -1 -1 -6z"/>
<path d="M6993 6648 c3 -9 1 -19 -6 -22 -7 -2 -5 -5 5 -5 9 -1 19 -7 22 -13 3
-7 3 -2 0 12 -4 14 -11 30 -17 35 -7 7 -8 5 -4 -7z"/>
<path d="M7029 6628 c5 -32 6 -32 9 -6 2 20 10 28 30 31 22 3 20 4 -9 6 -35 1
-35 0 -30 -31z"/>
<path d="M8246 6647 c3 -10 9 -15 12 -12 3 3 0 11 -7 18 -10 9 -11 8 -5 -6z"/>
<path d="M8308 6653 c7 -3 16 -2 19 1 4 3 -2 6 -13 5 -11 0 -14 -3 -6 -6z"/>
<path d="M8353 6653 c21 -5 23 -23 2 -23 -20 0 -19 -16 2 -24 10 -4 14 -4 10
0 -4 4 -2 13 4 20 14 17 3 34 -19 33 -15 -1 -15 -2 1 -6z"/>
<path d="M8432 6630 c0 -19 2 -27 5 -17 2 9 2 25 0 35 -3 9 -5 1 -5 -18z"/>
<path d="M8466 6652 c-3 -5 5 -8 17 -8 13 1 22 -5 22 -14 0 -9 -9 -15 -22 -14
-12 0 -20 -3 -17 -8 8 -13 30 -9 44 7 10 12 10 18 0 30 -14 16 -36 20 -44 7z"/>
<path d="M8545 6630 c10 -11 20 -20 23 -20 3 0 -3 9 -13 20 -10 11 -20 20 -23
20 -3 0 3 -9 13 -20z"/>
<path d="M7068 6633 c7 -3 16 -2 19 1 4 3 -2 6 -13 5 -11 0 -14 -3 -6 -6z"/>
<path d="M8308 6633 c7 -3 16 -2 19 1 4 3 -2 6 -13 5 -11 0 -14 -3 -6 -6z"/>
<path d="M8400 6626 c14 -18 13 -19 -5 -12 -16 6 -18 5 -7 -5 8 -9 15 -10 22
-3 8 8 5 15 -7 25 -17 13 -17 13 -3 -5z"/>
<path d="M6935 6610 c-19 -8 -19 -9 3 -9 12 -1 22 4 22 9 0 6 -1 10 -2 9 -2 0
-12 -4 -23 -9z"/>
<path d="M7068 6603 c7 -3 16 -2 19 1 4 3 -2 6 -13 5 -11 0 -14 -3 -6 -6z"/>
<path d="M8308 6603 c7 -3 16 -2 19 1 4 3 -2 6 -13 5 -11 0 -14 -3 -6 -6z"/>
<path d="M500 3450 l0 -2760 4465 0 4465 0 0 2760 0 2760 -4465 0 -4465 0 0
-2760z m450 2075 l0 -655 -205 0 -205 0 0 655 0 655 205 0 205 0 0 -655z
m8450 10 l0 -645 -4200 0 -4200 0 0 645 0 645 4200 0 4200 0 0 -645z m0 -1355
l0 -680 -4200 0 -4200 0 0 680 0 680 4200 0 4200 0 0 -680z m-8450 -15 l0
-675 -205 0 -205 0 0 675 0 675 205 0 205 0 0 -675z m8450 -1375 l0 -680
-4200 0 -4200 0 0 680 0 680 4200 0 4200 0 0 -680z m-8450 -10 l0 -670 -204 0
c-183 0 -205 2 -208 17 -2 9 -2 310 0 670 l2 653 205 0 205 0 0 -670z m8450
-1380 l0 -680 -4200 0 -4200 0 0 680 0 680 4200 0 4200 0 0 -680z m-8450 -5
l0 -675 -205 0 -205 0 -2 653 c-2 358 -2 662 0 675 3 22 3 22 208 22 l204 0 0
-675z"/>
<path d="M6470 5849 l-105 -100 110 -104 109 -103 76 68 c41 37 91 85 110 105
l35 37 -105 98 c-58 55 -109 99 -115 99 -5 0 -57 -45 -115 -100z"/>
<path d="M2617 5844 c-59 -53 -107 -100 -107 -105 0 -4 50 -53 111 -109 l111
-100 109 101 c60 56 109 105 109 109 0 9 -209 200 -219 200 -4 0 -55 -43 -114
-96z"/>
<path d="M4323 5836 l-112 -101 44 -40 c24 -22 74 -68 112 -102 l69 -61 113
101 113 102 -25 20 c-14 11 -65 57 -113 101 l-89 81 -112 -101z"/>
<path d="M5485 5847 c-55 -51 -102 -95 -105 -99 -3 -4 44 -51 105 -106 l109
-100 56 49 c30 27 81 72 113 101 l57 53 -106 95 c-59 52 -111 96 -118 97 -6 2
-56 -39 -111 -90z"/>
<path d="M4413 5498 c-19 -20 -20 -25 -7 -42 8 -12 14 -14 14 -7 0 8 6 11 15
7 16 -6 17 4 6 42 l-6 24 -22 -24z"/>
<path d="M1077 5162 c6 -4 13 -23 16 -42 l4 -35 1 37 c1 20 8 39 15 41 6 3 -1
6 -18 6 -17 0 -25 -3 -18 -7z"/>
<path d="M1133 5130 c0 -25 2 -35 4 -22 2 12 2 32 0 45 -2 12 -4 2 -4 -23z"/>
<path d="M1161 5128 c2 -31 3 -35 6 -15 2 15 9 25 14 22 11 -7 11 -3 3 19 -12
30 -24 16 -23 -26z"/>
<path d="M1221 5139 c-6 -17 -15 -28 -21 -24 -6 4 -7 -1 -3 -11 6 -16 7 -15
20 2 7 10 13 23 14 28 0 6 4 2 9 -9 7 -17 9 -15 9 13 1 41 -14 41 -28 1z"/>
<path d="M1270 5130 c0 -37 2 -40 28 -39 23 2 24 2 5 6 -13 2 -23 11 -23 18 0
7 10 16 23 18 l22 4 -22 2 c-13 0 -23 5 -23 10 0 5 10 12 23 14 19 4 18 4 -5
6 -26 1 -28 -2 -28 -39z"/>
<path d="M3227 5162 c6 -4 13 -23 16 -42 l4 -35 1 37 c1 20 8 39 15 41 6 3 -1
6 -18 6 -17 0 -25 -3 -18 -7z"/>
<path d="M3283 5130 c0 -25 2 -35 4 -22 2 12 2 32 0 45 -2 12 -4 2 -4 -23z"/>
<path d="M3311 5128 c2 -31 3 -35 6 -15 2 15 9 25 14 22 11 -7 11 -3 3 19 -12
30 -24 16 -23 -26z"/>
<path d="M3371 5139 c-6 -17 -15 -28 -21 -24 -6 4 -7 -1 -3 -11 6 -16 7 -15
20 2 7 10 13 23 14 28 0 6 4 2 9 -9 7 -17 9 -15 9 13 1 41 -14 41 -28 1z"/>
<path d="M3420 5130 c0 -37 2 -40 28 -39 23 2 24 2 5 6 -13 2 -23 11 -23 18 0
7 10 16 23 18 l22 4 -22 2 c-13 0 -23 5 -23 10 0 5 10 12 23 14 19 4 18 4 -5
6 -26 1 -28 -2 -28 -39z"/>
<path d="M5367 5152 c6 -4 13 -23 16 -42 l4 -35 1 37 c1 20 8 39 15 41 6 3 -1
6 -18 6 -17 0 -25 -3 -18 -7z"/>
<path d="M5423 5120 c0 -25 2 -35 4 -22 2 12 2 32 0 45 -2 12 -4 2 -4 -23z"/>
<path d="M5451 5118 c2 -31 3 -35 6 -15 2 15 9 25 14 22 11 -7 11 -3 3 19 -12
30 -24 16 -23 -26z"/>
<path d="M5511 5129 c-6 -17 -15 -28 -21 -24 -6 4 -7 -1 -3 -11 6 -16 7 -15
20 2 7 10 13 23 14 28 0 6 4 2 9 -9 7 -17 9 -15 9 13 1 41 -14 41 -28 1z"/>
<path d="M5560 5120 c0 -37 2 -40 28 -39 23 2 24 2 5 6 -13 2 -23 11 -23 18 0
7 10 16 23 18 l22 4 -22 2 c-13 0 -23 5 -23 10 0 5 10 12 23 14 19 4 18 4 -5
6 -26 1 -28 -2 -28 -39z"/>
<path d="M7487 5152 c6 -4 13 -23 16 -42 l4 -35 1 37 c1 20 8 39 15 41 6 3 -1
6 -18 6 -17 0 -25 -3 -18 -7z"/>
<path d="M7543 5120 c0 -25 2 -35 4 -22 2 12 2 32 0 45 -2 12 -4 2 -4 -23z"/>
<path d="M7571 5118 c2 -31 3 -35 6 -15 2 15 9 25 14 22 11 -7 11 -3 3 19 -12
30 -24 16 -23 -26z"/>
<path d="M7631 5129 c-6 -17 -15 -28 -21 -24 -6 4 -7 -1 -3 -11 6 -16 7 -15
20 2 7 10 13 23 14 28 0 6 4 2 9 -9 7 -17 9 -15 9 13 1 41 -14 41 -28 1z"/>
<path d="M7680 5120 c0 -37 2 -40 28 -39 23 2 24 2 5 6 -13 2 -23 11 -23 18 0
7 10 16 23 18 l22 4 -22 2 c-13 0 -23 5 -23 10 0 5 10 12 23 14 19 4 18 4 -5
6 -26 1 -28 -2 -28 -39z"/>
<path d="M4310 5093 c0 -10 -93 -13 -412 -16 l-413 -2 440 -1 c242 -1 431 1
420 3 -11 3 -23 10 -27 17 -6 8 -8 8 -8 -1z"/>
<path d="M1558 5073 c123 -2 321 -2 440 0 119 1 19 2 -223 2 -242 0 -340 -1
-217 -2z"/>
<path d="M5848 5063 c123 -2 321 -2 440 0 119 1 19 2 -223 2 -242 0 -340 -1
-217 -2z"/>
<path d="M7968 5063 c123 -2 321 -2 440 0 119 1 19 2 -223 2 -242 0 -340 -1
-217 -2z"/>
<path d="M4012 4316 l-114 -101 59 -53 c32 -30 83 -76 114 -102 l55 -49 114
101 113 102 -59 53 c-32 30 -84 75 -114 102 l-55 49 -113 -102z"/>
<path d="M2781 4228 c1 -24 3 -35 6 -25 5 18 5 18 25 0 21 -18 21 -18 9 5 -8
14 -8 22 -1 22 5 0 10 9 10 20 0 15 -7 20 -25 20 -23 0 -25 -4 -24 -42z m39
22 c0 -5 -7 -10 -15 -10 -8 0 -15 5 -15 10 0 6 7 10 15 10 8 0 15 -4 15 -10z"/>
<path d="M2917 4250 c6 -23 1 -25 -28 -7 -17 10 -22 9 -34 -7 -11 -14 -12 -23
-4 -33 13 -15 35 -17 43 -4 4 5 -3 7 -14 4 -12 -3 -20 0 -20 6 0 8 11 11 28 9
15 -2 26 -8 25 -15 -2 -7 2 -13 7 -13 6 0 10 5 10 10 0 6 8 5 20 -2 15 -10 22
-10 31 -1 9 9 7 11 -10 6 -12 -3 -21 -1 -21 6 0 6 12 11 27 11 26 0 26 1 10
17 -14 15 -21 16 -37 5 -17 -11 -20 -10 -20 8 0 11 -4 20 -9 20 -5 0 -7 -9 -4
-20z m-30 -16 c-3 -3 -12 -4 -19 -1 -8 3 -5 6 6 6 11 1 17 -2 13 -5z m90 0
c-3 -3 -12 -4 -19 -1 -8 3 -5 6 6 6 11 1 17 -2 13 -5z"/>
<path d="M3011 4232 c-13 -24 4 -42 36 -42 19 0 23 5 23 30 0 25 -4 30 -25 30
-13 0 -29 -8 -34 -18z m45 -3 c10 -17 -13 -36 -27 -22 -12 12 -4 33 11 33 5 0
12 -5 16 -11z"/>
<path d="M3085 4241 c-3 -5 -1 -12 5 -16 15 -9 12 -28 -2 -19 -10 6 -10 4 0
-7 9 -10 15 -10 23 -2 9 9 16 9 30 0 14 -9 21 -9 30 0 9 9 7 11 -10 6 -11 -3
-21 -1 -21 5 0 17 59 20 73 3 10 -12 9 -14 -8 -7 -16 6 -18 5 -7 -5 9 -10 15
-10 24 -1 10 10 10 15 -2 22 -13 9 -13 11 0 20 13 8 13 10 -2 10 -9 0 -20 -4
-23 -10 -4 -6 -13 -5 -26 3 -17 10 -22 9 -33 -5 -14 -19 -36 -24 -36 -9 0 5 6
12 13 14 7 3 6 6 -5 6 -9 1 -19 -3 -23 -8z m82 -7 c-3 -3 -12 -4 -19 -1 -8 3
-5 6 6 6 11 1 17 -2 13 -5z"/>
<path d="M4082 3982 c-25 -19 -19 -31 21 -45 14 -5 17 0 17 28 0 40 -5 42 -38
17z"/>
<path d="M3578 3159 l-118 -111 78 -72 c42 -40 93 -87 113 -104 l35 -31 112
102 113 102 -108 104 c-59 57 -107 108 -105 112 1 5 1 9 0 9 -2 0 -56 -50
-120 -111z"/>
<path d="M1951 3078 c-12 -31 4 -58 34 -58 13 0 26 4 29 8 2 4 -8 8 -22 7 -22
0 -27 4 -27 25 0 21 5 25 27 25 14 -1 24 3 22 7 -11 18 -55 8 -63 -14z"/>
<path d="M2572 3084 c-9 -10 -9 -14 -1 -14 7 0 9 -10 7 -25 -3 -14 -2 -25 2
-25 10 0 18 56 11 69 -3 5 -12 3 -19 -5z"/>
<path d="M4111 3078 c-12 -31 4 -58 34 -58 13 0 26 4 29 8 2 4 -8 8 -22 7 -22
0 -27 4 -27 25 0 21 5 25 27 25 14 -1 24 3 22 7 -11 18 -55 8 -63 -14z"/>
<path d="M4732 3084 c-9 -10 -9 -14 -1 -14 7 0 9 -10 7 -25 -3 -14 -2 -25 2
-25 10 0 18 56 11 69 -3 5 -12 3 -19 -5z"/>
<path d="M2040 3065 c-10 -12 -10 -18 0 -30 7 -8 18 -15 25 -15 7 0 18 7 25
15 10 12 10 18 0 30 -7 8 -18 15 -25 15 -7 0 -18 -7 -25 -15z m43 -9 c7 -16
-1 -26 -20 -26 -7 0 -13 9 -13 20 0 23 25 27 33 6z"/>
<path d="M2111 3047 c2 -30 2 -30 6 -4 2 15 8 27 13 27 5 0 13 -12 18 -27 l10
-28 1 28 c1 34 21 36 21 2 0 -14 5 -25 10 -25 12 0 13 30 2 46 -4 6 -24 11
-44 12 -37 1 -38 0 -37 -31z"/>
<path d="M2211 3038 c0 -24 3 -37 6 -30 2 6 12 12 22 12 9 0 22 5 28 11 8 8
17 7 32 -2 18 -12 23 -11 38 4 16 16 16 18 0 34 -15 15 -20 16 -38 4 -15 -9
-24 -10 -32 -2 -6 6 -21 11 -34 11 -21 0 -23 -5 -22 -42z m49 18 c0 -8 -5 -18
-11 -22 -14 -8 -33 11 -25 25 10 16 36 13 36 -3z m73 0 c7 -16 -1 -26 -20 -26
-7 0 -13 9 -13 20 0 23 25 27 33 6z"/>
<path d="M2361 3048 c1 -29 2 -30 8 -9 9 34 29 37 34 6 4 -24 4 -24 3 2 -1 21
-7 29 -23 31 -20 3 -23 -1 -22 -30z"/>
<path d="M2430 3065 c-10 -12 -10 -18 0 -30 14 -17 36 -20 44 -6 4 5 -3 7 -14
4 -11 -3 -20 0 -20 6 0 6 12 11 26 11 22 0 25 2 14 15 -7 8 -18 15 -25 15 -7
0 -18 -7 -25 -15z m37 -1 c-3 -3 -12 -4 -19 -1 -8 3 -5 6 6 6 11 1 17 -2 13
-5z"/>
<path d="M2501 3048 c1 -29 2 -30 8 -9 9 34 29 37 34 6 4 -24 4 -24 3 2 -1 21
-7 29 -23 31 -20 3 -23 -1 -22 -30z"/>
<path d="M4200 3065 c-10 -12 -10 -18 0 -30 7 -8 18 -15 25 -15 7 0 18 7 25
15 10 12 10 18 0 30 -7 8 -18 15 -25 15 -7 0 -18 -7 -25 -15z m43 -9 c7 -16
-1 -26 -20 -26 -7 0 -13 9 -13 20 0 23 25 27 33 6z"/>
<path d="M4271 3047 c2 -30 2 -30 6 -4 2 15 8 27 13 27 11 0 21 -30 14 -41 -3
-5 0 -9 5 -9 6 0 11 11 11 25 0 14 5 25 10 25 6 0 10 -11 10 -25 0 -14 5 -25
10 -25 12 0 13 30 2 46 -4 6 -24 11 -44 12 -37 1 -38 0 -37 -31z"/>
<path d="M4371 3038 c0 -24 3 -37 6 -30 2 6 12 12 22 12 9 0 22 5 28 11 8 8
17 7 32 -2 18 -12 23 -11 38 4 16 16 16 18 0 34 -15 15 -20 16 -38 4 -15 -9
-24 -10 -32 -2 -6 6 -21 11 -34 11 -21 0 -23 -5 -22 -42z m49 18 c0 -20 -19
-31 -32 -18 -6 6 -7 15 -4 21 10 16 36 13 36 -3z m73 0 c7 -16 -1 -26 -20 -26
-7 0 -13 9 -13 20 0 23 25 27 33 6z"/>
<path d="M4521 3048 c1 -30 2 -30 8 -9 9 35 29 37 34 4 4 -27 4 -27 6 5 1 28
-2 32 -24 32 -22 0 -25 -4 -24 -32z"/>
<path d="M4590 3065 c-10 -12 -10 -18 0 -30 14 -17 36 -20 44 -6 4 5 -3 7 -14
4 -11 -3 -20 0 -20 6 0 6 12 11 26 11 22 0 25 2 14 15 -7 8 -18 15 -25 15 -7
0 -18 -7 -25 -15z m37 -1 c-3 -3 -12 -4 -19 -1 -8 3 -5 6 6 6 11 1 17 -2 13
-5z"/>
<path d="M4661 3048 c1 -29 2 -30 8 -9 9 34 29 37 34 6 4 -24 4 -24 3 2 -1 21
-7 29 -23 31 -20 3 -23 -1 -22 -30z"/>
<path d="M346 5671 c-18 -20 -43 -20 -31 0 4 5 1 9 -4 9 -17 0 -13 -30 5 -37
8 -3 25 4 38 16 23 22 46 15 31 -9 -3 -5 -1 -10 5 -10 17 0 7 44 -11 48 -8 1
-23 -6 -33 -17z"/>
<path d="M300 5613 c0 -7 -8 -13 -17 -14 -14 0 -15 -2 -3 -6 8 -3 18 -11 22
-17 5 -8 8 -7 8 2 0 7 17 13 48 14 l47 1 -45 4 c-24 3 -48 10 -52 16 -6 9 -8
9 -8 0z"/>
<path d="M318 5539 c-12 -6 -17 -21 -16 -44 1 -35 1 -35 50 -35 59 0 64 18 6
22 -35 2 -44 7 -46 24 -3 18 4 23 45 32 44 9 45 10 13 11 -19 0 -43 -4 -52
-10z"/>
<path d="M321 5423 c-19 -15 -23 -25 -17 -46 10 -43 78 -48 91 -6 7 22 -2 59
-16 59 -5 0 -4 -9 3 -20 9 -15 10 -25 2 -37 -21 -33 -33 -25 -36 23 l-3 46
-24 -19z m19 -33 c0 -31 -16 -41 -26 -15 -8 19 2 45 16 45 5 0 10 -13 10 -30z"/>
<path d="M300 5311 c0 -5 17 -15 38 -23 l37 -14 -40 -22 c-22 -11 -37 -21 -33
-22 11 0 101 40 97 44 -13 11 -99 43 -99 37z"/>
<path d="M272 5178 l-2 -38 65 0 65 0 -2 38 c-1 36 -1 36 -5 5 -4 -29 -8 -33
-33 -33 -25 0 -29 4 -33 33 l-4 32 -1 -32 c-2 -25 -7 -33 -21 -33 -15 0 -21 8
-24 33 -4 31 -4 31 -5 -5z"/>
<path d="M355 4460 c-18 -20 -20 -20 -32 -4 -12 17 -13 17 -13 1 0 -28 29 -32
54 -8 23 22 46 15 31 -9 -3 -5 -1 -10 5 -10 17 0 7 44 -11 48 -8 1 -24 -7 -34
-18z"/>
<path d="M356 4391 c-18 -20 -43 -20 -31 0 4 5 1 9 -4 9 -17 0 -13 -30 5 -37
8 -3 25 4 38 16 23 22 46 15 31 -9 -3 -5 -1 -10 5 -10 17 0 7 44 -11 48 -8 1
-23 -6 -33 -17z"/>
<path d="M331 4323 c-48 -39 2 -103 58 -73 25 13 28 52 4 71 -15 13 -15 12 -2
-9 10 -16 11 -27 3 -39 -21 -33 -33 -25 -36 23 l-3 46 -24 -19z m19 -39 c0
-31 -2 -35 -15 -24 -16 13 -20 42 -8 53 15 15 23 5 23 -29z"/>
<path d="M328 4209 c-12 -6 -17 -21 -16 -44 1 -35 1 -35 50 -35 59 0 64 18 6
22 -35 2 -43 7 -43 23 0 15 11 23 45 32 45 11 45 11 10 12 -19 0 -43 -4 -52
-10z"/>
<path d="M280 4110 c0 -5 5 -10 10 -10 6 0 10 5 10 10 0 6 -4 10 -10 10 -5 0
-10 -4 -10 -10z"/>
<path d="M333 4103 c15 -2 39 -2 55 0 15 2 2 4 -28 4 -30 0 -43 -2 -27 -4z"/>
<path d="M355 4060 c-18 -20 -20 -20 -32 -4 -12 17 -13 17 -13 1 0 -28 29 -32
54 -8 23 22 46 15 31 -9 -3 -5 -1 -10 5 -10 17 0 7 44 -11 48 -8 1 -24 -7 -34
-18z"/>
<path d="M310 4001 c0 -6 19 -11 43 -13 35 -2 43 -7 45 -25 3 -23 -3 -26 -68
-36 -15 -3 -9 -5 16 -6 45 -1 64 12 64 46 0 16 -8 27 -26 33 -32 13 -74 13
-74 1z"/>
<path d="M346 3893 c-4 -4 -19 -7 -34 -8 -22 0 -28 -5 -30 -27 l-3 -28 65 0
c62 0 66 1 66 23 0 37 -41 63 -64 40z m52 -30 c3 -20 -1 -23 -27 -23 -23 0
-31 5 -31 18 0 25 10 33 35 30 12 -2 21 -12 23 -25z m-70 -6 c2 -12 -3 -17
-17 -17 -12 0 -21 6 -21 13 0 31 32 34 38 4z"/>
<path d="M332 3302 c21 -9 38 -20 38 -24 0 -3 -16 -12 -36 -18 -19 -7 -33 -14
-30 -17 3 -3 24 2 46 11 22 9 53 14 68 11 31 -6 -63 40 -100 49 -12 3 -6 -2
14 -12z"/>
<path d="M303 3186 c-4 -57 45 -87 82 -49 12 11 15 25 11 45 -6 32 9 35 28 5
8 -12 7 -22 -2 -37 -16 -27 -15 -35 3 -20 8 7 15 23 15 36 0 37 -26 54 -83 54
l-52 0 -2 -34z m75 12 c32 -32 -2 -79 -43 -60 -29 13 -33 46 -7 61 23 14 36
13 50 -1z"/>
<path d="M317 3082 c-21 -23 -22 -46 -1 -66 30 -31 84 -9 84 34 0 24 -26 50
-49 50 -10 0 -25 -8 -34 -18z m57 -5 c21 -16 18 -45 -6 -61 -38 -23 -78 35
-42 61 10 7 21 13 24 13 3 0 14 -6 24 -13z"/>
<path d="M297 2973 c18 -2 50 -2 70 0 21 2 7 4 -32 4 -38 0 -55 -2 -38 -4z"/>
<path d="M317 2932 c-21 -23 -22 -46 -1 -66 30 -31 84 -9 84 34 0 24 -26 50
-49 50 -10 0 -25 -8 -34 -18z m57 -5 c21 -16 18 -45 -6 -61 -38 -23 -78 35
-42 61 10 7 21 13 24 13 3 0 14 -6 24 -13z"/>
<path d="M318 2819 c-12 -6 -17 -21 -16 -44 1 -35 1 -35 50 -35 59 0 64 18 6
22 -35 2 -44 7 -46 24 -3 18 4 23 45 32 44 9 45 10 13 11 -19 0 -43 -4 -52
-10z"/>
<path d="M315 2706 c-12 -8 -16 -20 -12 -35 4 -16 1 -21 -14 -21 -10 0 -19 -4
-19 -10 0 -6 28 -10 65 -10 72 0 90 17 23 22 -35 2 -44 7 -46 24 -3 18 4 23
45 32 46 9 46 10 12 11 -19 0 -43 -5 -54 -13z"/>
<path d="M304 2574 c-14 -55 74 -88 91 -34 8 25 -2 60 -18 60 -8 0 -8 -3 1
-12 20 -20 14 -48 -13 -60 -41 -19 -75 28 -43 60 9 9 9 12 0 12 -6 0 -15 -12
-18 -26z"/>
<path d="M321 2473 c-19 -15 -23 -25 -17 -46 10 -43 78 -48 91 -6 7 22 -2 59
-16 59 -5 0 -4 -9 3 -20 9 -15 10 -25 2 -37 -21 -33 -33 -25 -36 23 l-3 46
-24 -19z m19 -33 c0 -31 -16 -41 -26 -15 -8 19 2 45 16 45 5 0 10 -13 10 -30z"/>
<path d="M271 2340 c0 -19 3 -30 7 -23 4 6 34 14 67 16 l60 3 -62 2 c-49 2
-62 5 -66 20 -3 9 -5 1 -6 -18z"/>
<path d="M166 1745 c8 -20 -22 -38 -44 -26 -15 8 -23 7 -32 -4 -19 -23 -4 -48
25 -41 14 4 33 1 44 -5 10 -7 26 -9 35 -6 17 7 22 52 6 62 -6 4 -7 -6 -4 -25
7 -32 -10 -42 -34 -18 -9 9 -5 19 19 44 l31 32 -25 0 c-16 0 -24 -5 -21 -13z
m-36 -44 c0 -11 -26 -22 -34 -14 -12 12 -5 23 14 23 11 0 20 -4 20 -9z"/>
<path d="M323 1666 c-4 -57 45 -87 82 -49 12 11 15 25 11 45 -6 32 9 35 28 5
8 -12 7 -22 -2 -37 -16 -27 -15 -35 3 -20 22 18 19 67 -4 80 -11 5 -41 10 -68
10 -48 0 -48 0 -50 -34z m75 12 c32 -32 -2 -79 -43 -60 -29 13 -33 46 -7 61
23 14 36 13 50 -1z"/>
<path d="M131 1563 c-48 -39 2 -103 58 -73 21 11 26 34 15 64 -3 9 -10 16 -15
16 -5 0 -4 -9 3 -20 9 -15 10 -25 2 -37 -21 -33 -33 -25 -36 23 l-3 46 -24
-19z m19 -39 c0 -31 -2 -35 -15 -24 -16 13 -20 42 -8 53 15 15 23 5 23 -29z"/>
<path d="M338 1569 c-12 -6 -17 -21 -16 -44 1 -35 1 -35 50 -35 59 0 64 18 6
22 -35 2 -43 7 -43 23 0 15 11 23 45 32 45 11 45 11 10 12 -19 0 -43 -4 -52
-10z"/>
<path d="M290 1470 c0 -5 5 -10 10 -10 6 0 10 5 10 10 0 6 -4 10 -10 10 -5 0
-10 -4 -10 -10z"/>
<path d="M343 1463 c15 -2 39 -2 55 0 15 2 2 4 -28 4 -30 0 -43 -2 -27 -4z"/>
<path d="M107 1453 c18 -2 50 -2 70 0 21 2 7 4 -32 4 -38 0 -55 -2 -38 -4z"/>
<path d="M338 1429 c-12 -6 -17 -21 -16 -44 1 -35 1 -35 50 -35 59 0 64 18 6
22 -35 2 -44 7 -46 24 -3 18 4 23 45 32 44 9 45 10 13 11 -19 0 -43 -4 -52
-10z"/>
<path d="M121 1412 c-5 -10 -9 -33 -9 -50 l1 -32 69 0 c39 0 68 4 68 10 0 6
-11 10 -24 10 -19 0 -22 4 -18 25 2 14 -1 32 -8 40 -18 21 -67 19 -79 -3z m72
-13 c16 -26 1 -49 -32 -49 -21 0 -32 6 -36 20 -14 43 44 67 68 29z"/>
<path d="M329 1326 c9 -11 9 -15 -1 -19 -7 -3 12 -5 42 -5 40 1 45 2 18 5 -21
2 -38 8 -38 13 0 4 -7 11 -16 14 -14 5 -15 4 -5 -8z"/>
<path d="M125 1290 c-35 -39 3 -91 55 -75 28 9 37 51 15 75 -10 11 -26 20 -35
20 -9 0 -25 -9 -35 -20z m59 -3 c21 -16 18 -45 -6 -61 -38 -23 -78 35 -42 61
10 7 21 13 24 13 3 0 14 -6 24 -13z"/>
<path d="M323 1246 c-3 -38 17 -66 47 -66 30 0 50 28 47 66 -2 33 -3 34 -47
34 -44 0 -45 -1 -47 -34z m75 12 c32 -32 -18 -87 -53 -58 -28 23 -12 70 25 70
9 0 21 -5 28 -12z"/>
<path d="M131 1173 c-19 -15 -23 -25 -17 -46 10 -43 78 -48 91 -6 7 22 -2 59
-16 59 -5 0 -4 -9 3 -20 9 -15 10 -25 2 -37 -21 -33 -33 -25 -36 23 l-3 46
-24 -19z m19 -39 c0 -31 -2 -35 -15 -24 -16 13 -20 42 -8 53 15 15 23 5 23
-29z"/>
<path d="M341 1143 c-44 -36 -7 -96 49 -78 28 9 37 52 15 73 -16 16 -16 16 -4
-6 10 -16 11 -27 3 -39 -21 -33 -33 -25 -36 23 l-3 46 -24 -19z m19 -33 c0
-31 -16 -41 -26 -15 -8 19 2 45 16 45 5 0 10 -13 10 -30z"/>
<path d="M97 1059 c-10 -6 -17 -22 -17 -39 l0 -30 68 2 c37 0 52 3 35 5 -27 4
-33 9 -33 28 0 29 -28 47 -53 34z m43 -34 c0 -20 -5 -25 -25 -25 -18 0 -25 5
-25 18 0 24 8 32 32 32 13 0 18 -7 18 -25z"/>
<path d="M410 1025 c0 -23 -4 -24 -62 -28 l-63 -3 68 -2 67 -2 0 30 c0 17 -2
30 -5 30 -3 0 -5 -11 -5 -25z"/>
<path d="M6747 563 c-4 -3 -7 -73 -7 -155 l0 -148 445 0 446 0 -3 153 -3 152
-436 3 c-239 1 -439 -1 -442 -5z m873 -107 l0 -105 -307 0 c-269 1 -307 -1
-315 -15 -33 -60 -164 -59 -201 1 -4 7 -17 13 -27 13 -19 0 -20 8 -20 105 l0
105 435 0 435 0 0 -104z m-420 -156 c0 -20 -5 -30 -15 -30 -10 0 -15 10 -15
30 0 20 5 30 15 30 10 0 15 -10 15 -30z m40 20 c0 8 2 11 5 8 3 -3 2 -15 -3
-27 -8 -22 -8 -22 -21 5 -11 24 -10 26 3 14 13 -10 16 -10 16 0z m160 0 c-8
-5 -10 -10 -5 -11 6 0 18 -2 27 -4 11 -2 15 2 11 11 -3 8 0 14 6 14 6 0 11 -3
11 -7 0 -5 3 -19 7 -33 6 -22 5 -23 -9 -12 -10 8 -18 9 -22 3 -9 -14 -51 3
-52 20 -1 21 6 29 24 29 15 0 15 -2 2 -10z"/>
<path d="M7159 521 c-31 -31 -36 -59 -17 -94 17 -32 39 -46 74 -47 78 0 115
92 58 145 -37 34 -78 33 -115 -4z m103 -8 c23 -28 28 -51 17 -77 -31 -67 -129
-44 -129 30 0 56 77 87 112 47z"/>
<path d="M7201 502 c-12 -23 -5 -92 9 -92 13 0 21 65 12 91 l-9 23 -12 -22z"/>
<path d="M7371 524 c-86 -72 24 -193 113 -123 56 44 18 149 -55 149 -15 0 -41
-12 -58 -26z m101 -11 c37 -44 27 -93 -24 -114 -25 -10 -33 -9 -56 8 -37 28
-43 84 -10 107 30 21 71 20 90 -1z"/>
<path d="M7402 498 c-13 -13 -16 -38 -6 -38 4 0 13 8 20 18 12 14 15 15 23 3
6 -10 6 -22 0 -34 -8 -15 -13 -16 -25 -6 -16 13 -30 6 -19 -10 3 -6 16 -11 29
-11 43 0 61 44 30 74 -19 19 -36 20 -52 4z"/>
<path d="M6834 522 c-63 -40 -71 -134 -14 -184 24 -22 40 -28 78 -28 40 0 53
5 80 31 27 27 32 39 32 80 0 39 -5 55 -28 80 -36 40 -102 50 -148 21z m94 -13
c66 -23 83 -100 33 -150 -51 -50 -129 -32 -151 35 -16 49 10 101 60 119 22 8
24 8 58 -4z"/>
<path d="M6840 445 c-19 -23 -8 -50 23 -53 15 -2 27 1 27 6 0 5 -7 9 -16 8
-25 -2 -29 24 -5 31 11 3 18 9 15 14 -8 14 -30 11 -44 -6z"/>
<path d="M6910 445 c-26 -32 15 -75 44 -45 8 9 6 11 -9 8 -12 -2 -21 3 -23 15
-2 12 3 17 18 17 12 0 18 5 15 10 -9 14 -31 12 -45 -5z"/>
<path d="M7705 562 c-3 -3 -5 -70 -5 -149 l0 -143 65 0 66 0 -3 147 -3 146
-57 2 c-32 2 -60 0 -63 -3z"/>
<path d="M7874 561 c-2 -2 -4 -69 -4 -148 l0 -143 65 0 65 0 0 149 0 148 -61
-1 c-33 -1 -62 -3 -65 -5z"/>
<path d="M8858 542 c-18 -46 -88 -256 -88 -264 0 -4 6 -8 14 -8 8 0 21 19 29
43 l14 42 58 0 58 0 15 -42 c9 -30 19 -43 32 -43 19 0 21 -7 -74 259 -15 43
-43 49 -58 13z m72 -153 c0 -4 -20 -7 -45 -7 -27 1 -45 6 -45 13 0 10 18 72
37 125 4 12 53 -108 53 -131z"/>
<path d="M410 446 c0 -2 9 -6 20 -9 11 -3 18 -1 14 4 -5 9 -34 13 -34 5z"/>
<path d="M808 443 c7 -3 16 -2 19 1 4 3 -2 6 -13 5 -11 0 -14 -3 -6 -6z"/>
<path d="M940 418 c0 -29 1 -30 13 -14 12 17 14 17 20 2 10 -24 47 -21 47 5 0
17 -5 20 -24 17 -15 -3 -27 0 -30 8 -10 26 -26 14 -26 -18z m70 -8 c0 -5 -7
-10 -16 -10 -8 0 -12 5 -9 10 3 6 10 10 16 10 5 0 9 -4 9 -10z"/>
<path d="M1120 418 c0 -30 1 -31 15 -12 14 19 14 19 15 -1 1 -20 1 -20 9 0 6
14 3 24 -8 32 -25 19 -31 15 -31 -19z"/>
<path d="M1481 424 c-1 -28 2 -31 29 -30 26 1 30 4 26 21 -3 11 -6 23 -6 28 0
4 -4 7 -10 7 -12 0 -14 -26 -2 -33 4 -2 1 -2 -5 -1 -7 2 -14 -2 -14 -9 -1 -7
-5 2 -9 18 l-8 30 -1 -31z"/>
<path d="M1560 436 c0 -8 5 -18 11 -22 8 -4 7 -9 -2 -15 -9 -5 2 -8 29 -6 38
2 42 5 38 22 -3 11 -6 23 -6 28 0 18 -18 4 -24 -19 -6 -22 -9 -24 -22 -13 -8
7 -13 18 -10 26 3 7 1 13 -4 13 -6 0 -10 -6 -10 -14z"/>
<path d="M1685 439 c-4 -6 -4 -13 -1 -16 3 -4 6 -1 6 6 0 8 8 11 20 8 11 -3
18 -1 14 4 -7 12 -31 11 -39 -2z"/>
<path d="M1820 424 c0 -30 1 -31 45 -32 38 0 45 3 45 19 0 15 -7 18 -36 17
-21 -1 -39 4 -45 13 -6 10 -9 5 -9 -17z m30 -14 c0 -5 -4 -10 -10 -10 -5 0
-10 5 -10 10 0 6 5 10 10 10 6 0 10 -4 10 -10z m50 0 c0 -5 -7 -10 -16 -10 -8
0 -12 5 -9 10 3 6 10 10 16 10 5 0 9 -4 9 -10z"/>
<path d="M470 420 c0 -5 9 -10 21 -10 11 0 17 5 14 10 -3 6 -13 10 -21 10 -8
0 -14 -4 -14 -10z"/>
<path d="M576 421 c-4 -5 3 -7 14 -4 23 6 26 13 6 13 -8 0 -17 -4 -20 -9z"/>
<path d="M630 420 c0 -5 7 -7 15 -4 8 4 15 8 15 10 0 2 -7 4 -15 4 -8 0 -15
-4 -15 -10z"/>
<path d="M680 420 c0 -5 9 -10 21 -10 11 0 17 5 14 10 -3 6 -13 10 -21 10 -8
0 -14 -4 -14 -10z"/>
<path d="M738 423 c7 -3 16 -2 19 1 4 3 -2 6 -13 5 -11 0 -14 -3 -6 -6z"/>
<path d="M808 423 c7 -3 16 -2 19 1 4 3 -2 6 -13 5 -11 0 -14 -3 -6 -6z"/>
<path d="M1031 413 c-1 -14 5 -23 14 -23 9 0 15 9 14 23 0 21 -1 21 -8 2 l-8
-20 -5 20 c-5 18 -6 18 -7 -2z"/>
<path d="M1185 420 c-9 -14 3 -30 23 -30 15 0 15 2 2 10 -13 8 -12 10 3 10 10
0 15 5 12 10 -3 6 -12 10 -20 10 -8 0 -17 -4 -20 -10z"/>
<path d="M1240 420 c0 -5 6 -9 13 -7 6 1 11 -4 10 -10 -2 -7 1 -13 6 -13 6 0
9 9 8 20 -1 20 -37 30 -37 10z"/>
<path d="M1299 417 c6 -8 8 -17 4 -20 -3 -4 -1 -7 5 -7 6 0 10 9 9 20 -1 11
-8 20 -15 20 -11 0 -12 -3 -3 -13z"/>
<path d="M1358 423 c7 -3 16 -2 19 1 4 3 -2 6 -13 5 -11 0 -14 -3 -6 -6z"/>
<path d="M1398 423 c7 -3 16 -2 19 1 4 3 -2 6 -13 5 -11 0 -14 -3 -6 -6z"/>
<path d="M1430 419 c0 -5 5 -7 10 -4 6 3 10 8 10 11 0 2 -4 4 -10 4 -5 0 -10
-5 -10 -11z"/>
<path d="M1765 422 c-20 -14 -13 -29 13 -28 17 1 27 7 27 16 0 16 -24 24 -40
12z m35 -12 c0 -5 -7 -10 -16 -10 -8 0 -12 5 -9 10 3 6 10 10 16 10 5 0 9 -4
9 -10z"/>
<path d="M1716 408 c5 -8 0 -9 -16 -5 -16 4 -20 3 -12 -5 6 -6 18 -8 26 -5 18
7 22 27 5 27 -5 0 -7 -5 -3 -12z"/>
<path d="M1921 404 c0 -11 3 -14 6 -6 3 7 2 16 -1 19 -3 4 -6 -2 -5 -13z"/>
<path d="M425 400 c-16 -7 -17 -9 -3 -9 9 -1 20 4 23 9 7 11 7 11 -20 0z"/>
<path d="M745 400 c-16 -7 -17 -9 -3 -9 9 -1 20 4 23 9 7 11 7 11 -20 0z"/>
<path d="M478 393 c7 -3 16 -2 19 1 4 3 -2 6 -13 5 -11 0 -14 -3 -6 -6z"/>
<path d="M588 393 c7 -3 16 -2 19 1 4 3 -2 6 -13 5 -11 0 -14 -3 -6 -6z"/>
<path d="M688 393 c7 -3 16 -2 19 1 4 3 -2 6 -13 5 -11 0 -14 -3 -6 -6z"/>
<path d="M808 393 c7 -3 16 -2 19 1 4 3 -2 6 -13 5 -11 0 -14 -3 -6 -6z"/>
<path d="M1398 393 c7 -3 16 -2 19 1 4 3 -2 6 -13 5 -11 0 -14 -3 -6 -6z"/>
<path d="M588 373 c7 -3 16 -2 19 1 4 3 -2 6 -13 5 -11 0 -14 -3 -6 -6z"/>
<path d="M408 330 c2 -16 5 -30 7 -30 2 0 5 14 7 30 3 19 0 30 -7 30 -7 0 -10
-11 -7 -30z"/>
<path d="M1516 351 c-4 -5 3 -7 14 -4 23 6 26 13 6 13 -8 0 -17 -4 -20 -9z"/>
<path d="M1886 351 c-4 -5 3 -7 14 -4 23 6 26 13 6 13 -8 0 -17 -4 -20 -9z"/>
<path d="M3214 346 c-8 -22 3 -49 19 -43 6 2 12 14 12 27 0 27 -22 39 -31 16z
m26 -16 c0 -11 -4 -20 -10 -20 -5 0 -10 9 -10 20 0 11 5 20 10 20 6 0 10 -9
10 -20z"/>
<path d="M3282 330 c0 -19 2 -27 5 -17 2 9 2 25 0 35 -3 9 -5 1 -5 -18z"/>
<path d="M5597 346 c-4 -9 -3 -15 1 -15 36 6 58 -14 27 -24 -12 -4 -11 -5 1
-3 24 2 29 25 7 33 -10 3 -21 11 -24 16 -3 5 -9 2 -12 -7z"/>
<path d="M5914 346 c-8 -22 3 -49 19 -43 6 2 12 14 12 27 0 27 -22 39 -31 16z
m26 -16 c0 -11 -4 -20 -10 -20 -5 0 -10 9 -10 20 0 11 5 20 10 20 6 0 10 -9
10 -20z"/>
<path d="M440 330 c0 -5 7 -7 15 -4 8 4 15 8 15 10 0 2 -7 4 -15 4 -8 0 -15
-4 -15 -10z"/>
<path d="M658 333 c7 -3 16 -2 19 1 4 3 -2 6 -13 5 -11 0 -14 -3 -6 -6z"/>
<path d="M690 329 c0 -5 5 -7 10 -4 6 3 10 8 10 11 0 2 -4 4 -10 4 -5 0 -10
-5 -10 -11z"/>
<path d="M724 329 c-3 -6 -2 -15 3 -20 5 -5 9 -1 9 11 0 23 -2 24 -12 9z"/>
<path d="M908 333 c7 -3 16 -2 19 1 4 3 -2 6 -13 5 -11 0 -14 -3 -6 -6z"/>
<path d="M950 330 c0 -5 9 -10 21 -10 11 0 17 5 14 10 -3 6 -13 10 -21 10 -8
0 -14 -4 -14 -10z"/>
<path d="M1000 330 c0 -5 7 -7 15 -4 8 4 15 8 15 10 0 2 -7 4 -15 4 -8 0 -15
-4 -15 -10z"/>
<path d="M1069 321 c-15 -17 -14 -18 15 -19 26 0 28 1 11 8 -17 7 -17 9 -2 9
9 1 17 6 17 11 0 16 -23 10 -41 -9z"/>
<path d="M1138 333 c7 -3 16 -2 19 1 4 3 -2 6 -13 5 -11 0 -14 -3 -6 -6z"/>
<path d="M1258 333 c7 -3 16 -2 19 1 4 3 -2 6 -13 5 -11 0 -14 -3 -6 -6z"/>
<path d="M1308 333 c7 -3 16 -2 19 1 4 3 -2 6 -13 5 -11 0 -14 -3 -6 -6z"/>
<path d="M1350 329 c0 -11 47 -12 54 -1 3 5 -8 9 -24 10 -17 0 -30 -4 -30 -9z"/>
<path d="M1448 333 c7 -3 16 -2 19 1 4 3 -2 6 -13 5 -11 0 -14 -3 -6 -6z"/>
<path d="M1570 329 c0 -5 5 -7 10 -4 6 3 10 8 10 11 0 2 -4 4 -10 4 -5 0 -10
-5 -10 -11z"/>
<path d="M1600 330 c0 -5 7 -10 15 -10 8 0 15 5 15 10 0 6 -7 10 -15 10 -8 0
-15 -4 -15 -10z"/>
<path d="M1658 333 c7 -3 16 -2 19 1 4 3 -2 6 -13 5 -11 0 -14 -3 -6 -6z"/>
<path d="M1698 333 c7 -3 16 -2 19 1 4 3 -2 6 -13 5 -11 0 -14 -3 -6 -6z"/>
<path d="M1810 330 c0 -5 9 -10 21 -10 11 0 17 5 14 10 -3 6 -13 10 -21 10 -8
0 -14 -4 -14 -10z"/>
<path d="M1958 333 c7 -3 16 -2 19 1 4 3 -2 6 -13 5 -11 0 -14 -3 -6 -6z"/>
<path d="M2000 331 c0 -5 12 -7 26 -5 37 4 39 11 4 12 -16 0 -30 -3 -30 -7z"/>
<path d="M2080 331 c0 -5 12 -7 26 -5 37 4 39 11 4 12 -16 0 -30 -3 -30 -7z"/>
<path d="M2168 333 c7 -3 16 -2 19 1 4 3 -2 6 -13 5 -11 0 -14 -3 -6 -6z"/>
<path d="M2218 333 c7 -3 16 -2 19 1 4 3 -2 6 -13 5 -11 0 -14 -3 -6 -6z"/>
<path d="M2350 336 c0 -8 71 -12 76 -4 3 4 -13 8 -35 8 -23 0 -41 -2 -41 -4z"/>
<path d="M2473 334 c21 -7 22 -21 2 -27 -11 -4 -10 -4 2 -3 25 2 23 30 -2 33
-16 1 -16 1 -2 -3z"/>
<path d="M2558 333 c7 -3 16 -2 19 1 4 3 -2 6 -13 5 -11 0 -14 -3 -6 -6z"/>
<path d="M2618 333 c7 -3 16 -2 19 1 4 3 -2 6 -13 5 -11 0 -14 -3 -6 -6z"/>
<path d="M2668 333 c7 -3 16 -2 19 1 4 3 -2 6 -13 5 -11 0 -14 -3 -6 -6z"/>
<path d="M2780 330 c0 -5 7 -7 15 -4 8 4 15 8 15 10 0 2 -7 4 -15 4 -8 0 -15
-4 -15 -10z"/>
<path d="M2838 333 c7 -3 16 -2 19 1 4 3 -2 6 -13 5 -11 0 -14 -3 -6 -6z"/>
<path d="M2870 330 c0 -6 -10 -15 -22 -20 -15 -6 -17 -9 -7 -9 9 -1 24 8 34
19 10 11 13 20 7 20 -7 0 -12 -5 -12 -10z"/>
<path d="M2900 330 c0 -5 9 -10 21 -10 11 0 17 5 14 10 -3 6 -13 10 -21 10 -8
0 -14 -4 -14 -10z"/>
<path d="M3045 330 c-8 -13 3 -30 18 -30 8 0 7 3 -2 9 -7 5 -10 14 -7 20 4 6
5 11 2 11 -3 0 -8 -4 -11 -10z"/>
<path d="M3080 330 c0 -5 7 -10 15 -10 8 0 15 5 15 10 0 6 -7 10 -15 10 -8 0
-15 -4 -15 -10z"/>
<path d="M3310 330 c0 -5 7 -7 15 -4 8 4 15 8 15 10 0 2 -7 4 -15 4 -8 0 -15
-4 -15 -10z"/>
<path d="M3358 333 c7 -3 16 -2 19 1 4 3 -2 6 -13 5 -11 0 -14 -3 -6 -6z"/>
<path d="M3390 329 c0 -11 47 -12 54 -1 3 5 -8 9 -24 10 -17 0 -30 -4 -30 -9z"/>
<path d="M3460 330 c0 -5 7 -7 15 -4 8 4 15 8 15 10 0 2 -7 4 -15 4 -8 0 -15
-4 -15 -10z"/>
<path d="M3523 333 c9 -3 17 -9 17 -14 0 -5 -8 -9 -17 -10 -13 0 -14 -2 -4 -6
8 -3 19 1 25 9 6 8 18 17 26 20 8 3 -3 5 -25 5 -22 0 -32 -2 -22 -4z"/>
<path d="M3618 333 c7 -3 16 -2 19 1 4 3 -2 6 -13 5 -11 0 -14 -3 -6 -6z"/>
<path d="M3660 330 c0 -5 7 -7 15 -4 8 4 15 8 15 10 0 2 -7 4 -15 4 -8 0 -15
-4 -15 -10z"/>
<path d="M3723 334 c21 -7 22 -21 2 -27 -11 -4 -10 -4 2 -3 25 2 23 30 -2 33
-16 1 -16 1 -2 -3z"/>
<path d="M3868 333 c7 -3 16 -2 19 1 4 3 -2 6 -13 5 -11 0 -14 -3 -6 -6z"/>
<path d="M3910 330 c0 -5 9 -10 21 -10 11 0 17 5 14 10 -3 6 -13 10 -21 10 -8
0 -14 -4 -14 -10z"/>
<path d="M3960 330 c0 -5 7 -7 15 -4 8 4 15 8 15 10 0 2 -7 4 -15 4 -8 0 -15
-4 -15 -10z"/>
<path d="M4029 321 c-15 -17 -14 -18 15 -19 26 0 28 1 11 8 -17 7 -17 9 -2 9
9 1 17 6 17 11 0 16 -23 10 -41 -9z"/>
<path d="M4138 333 c7 -3 16 -2 19 1 4 3 -2 6 -13 5 -11 0 -14 -3 -6 -6z"/>
<path d="M4193 333 c15 -2 39 -2 55 0 15 2 2 4 -28 4 -30 0 -43 -2 -27 -4z"/>
<path d="M4378 333 c7 -3 16 -2 19 1 4 3 -2 6 -13 5 -11 0 -14 -3 -6 -6z"/>
<path d="M4410 329 c0 -5 5 -7 10 -4 6 3 10 8 10 11 0 2 -4 4 -10 4 -5 0 -10
-5 -10 -11z"/>
<path d="M4440 330 c0 -5 9 -10 21 -10 11 0 17 5 14 10 -3 6 -13 10 -21 10 -8
0 -14 -4 -14 -10z"/>
<path d="M4490 335 c0 -8 38 -11 55 -5 15 6 10 8 -17 8 -21 0 -38 -1 -38 -3z"/>
<path d="M4650 330 c0 -5 7 -10 15 -10 8 0 15 5 15 10 0 6 -7 10 -15 10 -8 0
-15 -4 -15 -10z"/>
<path d="M4708 333 c7 -3 16 -2 19 1 4 3 -2 6 -13 5 -11 0 -14 -3 -6 -6z"/>
<path d="M4758 333 c7 -3 16 -2 19 1 4 3 -2 6 -13 5 -11 0 -14 -3 -6 -6z"/>
<path d="M4800 331 c0 -5 12 -7 26 -5 37 4 39 11 4 12 -16 0 -30 -3 -30 -7z"/>
<path d="M4880 331 c0 -5 12 -7 26 -5 37 4 39 11 4 12 -16 0 -30 -3 -30 -7z"/>
<path d="M4968 333 c7 -3 16 -2 19 1 4 3 -2 6 -13 5 -11 0 -14 -3 -6 -6z"/>
<path d="M5018 333 c7 -3 16 -2 19 1 4 3 -2 6 -13 5 -11 0 -14 -3 -6 -6z"/>
<path d="M5118 333 c7 -3 16 -2 19 1 4 3 -2 6 -13 5 -11 0 -14 -3 -6 -6z"/>
<path d="M5150 329 c0 -4 12 -5 27 -3 39 7 41 13 4 12 -17 -1 -31 -5 -31 -9z"/>
<path d="M5308 333 c7 -3 16 -2 19 1 4 3 -2 6 -13 5 -11 0 -14 -3 -6 -6z"/>
<path d="M5350 330 c0 -5 9 -10 21 -10 11 0 17 5 14 10 -3 6 -13 10 -21 10 -8
0 -14 -4 -14 -10z"/>
<path d="M5400 330 c0 -5 7 -7 15 -4 8 4 15 8 15 10 0 2 -7 4 -15 4 -8 0 -15
-4 -15 -10z"/>
<path d="M5490 330 c0 -5 7 -10 15 -10 8 0 15 5 15 10 0 6 -7 10 -15 10 -8 0
-15 -4 -15 -10z"/>
<path d="M5688 328 c5 -5 16 -8 23 -6 8 3 3 7 -10 11 -17 4 -21 3 -13 -5z"/>
<path d="M5783 334 c21 -7 22 -21 2 -27 -11 -4 -10 -4 2 -3 25 2 23 30 -2 33
-16 1 -16 1 -2 -3z"/>
<path d="M2318 323 c7 -3 16 -2 19 1 4 3 -2 6 -13 5 -11 0 -14 -3 -6 -6z"/>
<path d="M2708 323 c7 -3 16 -2 19 1 4 3 -2 6 -13 5 -11 0 -14 -3 -6 -6z"/>
<path d="M2958 323 c7 -3 16 -2 19 1 4 3 -2 6 -13 5 -11 0 -14 -3 -6 -6z"/>
<path d="M3150 320 c0 -6 7 -10 15 -10 8 0 15 2 15 4 0 2 -7 6 -15 10 -8 3
-15 1 -15 -4z"/>
<path d="M5850 320 c0 -6 7 -10 15 -10 8 0 15 2 15 4 0 2 -7 6 -15 10 -8 3
-15 1 -15 -4z"/>
<path d="M1145 310 c-16 -7 -17 -9 -3 -9 9 -1 20 4 23 9 7 11 7 11 -20 0z"/>
<path d="M1315 310 c-16 -7 -17 -9 -3 -9 9 -1 20 4 23 9 7 11 7 11 -20 0z"/>
<path d="M1455 310 c-16 -7 -17 -9 -3 -9 9 -1 20 4 23 9 7 11 7 11 -20 0z"/>
<path d="M1518 308 c5 -5 16 -8 23 -6 8 3 3 7 -10 11 -17 4 -21 3 -13 -5z"/>
<path d="M1888 308 c5 -5 16 -8 23 -6 8 3 3 7 -10 11 -17 4 -21 3 -13 -5z"/>
<path d="M658 303 c7 -3 16 -2 19 1 4 3 -2 6 -13 5 -11 0 -14 -3 -6 -6z"/>
<path d="M908 303 c7 -3 16 -2 19 1 4 3 -2 6 -13 5 -11 0 -14 -3 -6 -6z"/>
<path d="M958 303 c7 -3 16 -2 19 1 4 3 -2 6 -13 5 -11 0 -14 -3 -6 -6z"/>
<path d="M1208 303 c7 -3 16 -2 19 1 4 3 -2 6 -13 5 -11 0 -14 -3 -6 -6z"/>
<path d="M1358 303 c7 -3 16 -2 19 1 4 3 -2 6 -13 5 -11 0 -14 -3 -6 -6z"/>
<path d="M1608 303 c7 -3 16 -2 19 1 4 3 -2 6 -13 5 -11 0 -14 -3 -6 -6z"/>
<path d="M1658 303 c7 -3 16 -2 19 1 4 3 -2 6 -13 5 -11 0 -14 -3 -6 -6z"/>
<path d="M1818 303 c7 -3 16 -2 19 1 4 3 -2 6 -13 5 -11 0 -14 -3 -6 -6z"/>
<path d="M1958 303 c7 -3 16 -2 19 1 4 3 -2 6 -13 5 -11 0 -14 -3 -6 -6z"/>
<path d="M2168 303 c7 -3 16 -2 19 1 4 3 -2 6 -13 5 -11 0 -14 -3 -6 -6z"/>
<path d="M2518 303 c7 -3 16 -2 19 1 4 3 -2 6 -13 5 -11 0 -14 -3 -6 -6z"/>
<path d="M2618 303 c7 -3 16 -2 19 1 4 3 -2 6 -13 5 -11 0 -14 -3 -6 -6z"/>
<path d="M2908 303 c7 -3 16 -2 19 1 4 3 -2 6 -13 5 -11 0 -14 -3 -6 -6z"/>
<path d="M3088 303 c7 -3 16 -2 19 1 4 3 -2 6 -13 5 -11 0 -14 -3 -6 -6z"/>
<path d="M3398 303 c7 -3 16 -2 19 1 4 3 -2 6 -13 5 -11 0 -14 -3 -6 -6z"/>
<path d="M3618 303 c7 -3 16 -2 19 1 4 3 -2 6 -13 5 -11 0 -14 -3 -6 -6z"/>
<path d="M3808 303 c7 -3 16 -2 19 1 4 3 -2 6 -13 5 -11 0 -14 -3 -6 -6z"/>
<path d="M3868 303 c7 -3 16 -2 19 1 4 3 -2 6 -13 5 -11 0 -14 -3 -6 -6z"/>
<path d="M3918 303 c7 -3 16 -2 19 1 4 3 -2 6 -13 5 -11 0 -14 -3 -6 -6z"/>
<path d="M4248 303 c7 -3 16 -2 19 1 4 3 -2 6 -13 5 -11 0 -14 -3 -6 -6z"/>
<path d="M4378 303 c7 -3 16 -2 19 1 4 3 -2 6 -13 5 -11 0 -14 -3 -6 -6z"/>
<path d="M4448 303 c7 -3 16 -2 19 1 4 3 -2 6 -13 5 -11 0 -14 -3 -6 -6z"/>
<path d="M4498 303 c7 -3 16 -2 19 1 4 3 -2 6 -13 5 -11 0 -14 -3 -6 -6z"/>
<path d="M4658 303 c7 -3 16 -2 19 1 4 3 -2 6 -13 5 -11 0 -14 -3 -6 -6z"/>
<path d="M4708 303 c7 -3 16 -2 19 1 4 3 -2 6 -13 5 -11 0 -14 -3 -6 -6z"/>
<path d="M4758 303 c7 -3 16 -2 19 1 4 3 -2 6 -13 5 -11 0 -14 -3 -6 -6z"/>
<path d="M4968 303 c7 -3 16 -2 19 1 4 3 -2 6 -13 5 -11 0 -14 -3 -6 -6z"/>
<path d="M5118 303 c7 -3 16 -2 19 1 4 3 -2 6 -13 5 -11 0 -14 -3 -6 -6z"/>
<path d="M5188 303 c7 -3 16 -2 19 1 4 3 -2 6 -13 5 -11 0 -14 -3 -6 -6z"/>
<path d="M5308 303 c7 -3 16 -2 19 1 4 3 -2 6 -13 5 -11 0 -14 -3 -6 -6z"/>
<path d="M5358 303 c7 -3 16 -2 19 1 4 3 -2 6 -13 5 -11 0 -14 -3 -6 -6z"/>
<path d="M5498 303 c7 -3 16 -2 19 1 4 3 -2 6 -13 5 -11 0 -14 -3 -6 -6z"/>
<path d="M5188 283 c7 -3 16 -2 19 1 4 3 -2 6 -13 5 -11 0 -14 -3 -6 -6z"/>
</g>
</svg>
