<svg xmlns="http://www.w3.org/2000/svg" xmlns:xlink="http://www.w3.org/1999/xlink" xmlns:lucid="lucid" width="1760" height="1360"><g transform="translate(0 0)" lucid:page-tab-id="kA_QU0o7rNFA"><path d="M0 0h1760v1360H0z" fill="#fff"/><g filter="url(#a)"><path d="M1020 282.6h620v330.84h-620z" stroke="#1f2933" stroke-width="2" fill="#9cf"/><use xlink:href="#b" transform="matrix(1,0,0,1,1020,282.6) translate(5.01 19.41)"/><use xlink:href="#c" transform="matrix(1,0,0,1,1020,282.6) translate(87.91000000000001 19.41)"/><use xlink:href="#d" transform="matrix(1,0,0,1,1020,282.6) translate(142.51 19.41)"/><use xlink:href="#e" transform="matrix(1,0,0,1,1020,282.6) translate(185.45999999999998 19.41)"/></g><g filter="url(#f)"><path d="M1018.12 631.68h620v300h-620z" stroke="#1f331f" stroke-width="2" fill="#9f9"/><use xlink:href="#g" transform="matrix(1,0,0,1,1018.124,631.681) translate(5.01 19.41)"/><use xlink:href="#h" transform="matrix(1,0,0,1,1018.124,631.681) translate(86.91000000000001 19.41)"/><use xlink:href="#i" transform="matrix(1,0,0,1,1018.124,631.681) translate(121.91000000000001 19.41)"/><use xlink:href="#j" transform="matrix(1,0,0,1,1018.124,631.681) translate(201.86 19.41)"/></g><g filter="url(#k)"><path d="M1320 660h176.25v141.68H1320z" fill="#fff" fill-opacity="0"/><path d="M1425.35 677.24c0 9.54-7.72 17.33-17.25 17.33-9.53 0-17.25-7.8-17.25-17.33 0-9.55 7.72-17.24 17.25-17.24 9.53 0 17.25 7.7 17.25 17.24z" stroke="#33332f" stroke-width="2" fill="#ffffed"/><path d="M1408.2 695.1v41.43M1434 762.4l-25.8-25.87-26 26.06M1384.53 706.78h47.5" stroke="#33332f" stroke-width="2" fill="none"/><use xlink:href="#l" transform="matrix(1,0,0,1,1320,762.5930485155684) translate(68.025 28.045)"/></g><g filter="url(#m)"><path d="M370 240h310v740H370z" stroke="#33332f" stroke-width="2" fill="#ffffed"/><use xlink:href="#n" transform="matrix(1,0,0,1,370,240) translate(5.01 19.41)"/><use xlink:href="#o" transform="matrix(1,0,0,1,370,240) translate(43.96 19.41)"/><use xlink:href="#p" transform="matrix(1,0,0,1,370,240) translate(63.96 19.41)"/><use xlink:href="#q" transform="matrix(1,0,0,1,370,240) translate(141.91 19.41)"/></g><g filter="url(#r)"><path d="M720 240h280v740H720z" stroke="#33332f" stroke-width="2" fill="#ffffed"/><use xlink:href="#s" transform="matrix(1,0,0,1,720,240) translate(5.01 19.41)"/><use xlink:href="#q" transform="matrix(1,0,0,1,720,240) translate(25.61 19.41)"/></g><path d="M1028 808c-26.5 0-48-17-48-38 0-16.8 13-30.95 33.17-36.14C1012 684.5 1092 675 1124 694c16-28.5 96-19 96 9.5 48-9.5 96 28.5 64 76 32 38 0 85.5-64 66.5-16 24.7-80 24.7-96 0-32 19-96 9.5-96-38z" stroke="#1f331f" stroke-width="2" fill="#9f9" filter="url(#t)"/><g filter="url(#u)"><path d="M300 300h620v380H300z" stroke="#1f2933" stroke-width="2" fill="#9cf"/><use xlink:href="#v" transform="matrix(1,0,0,1,300,300) translate(5.01 19.41)"/><use xlink:href="#w" transform="matrix(1,0,0,1,300,300) translate(54.60999999999999 19.41)"/></g><g filter="url(#k)"><path d="M360 400h176.25v141.68H360z" fill="#fff" fill-opacity="0"/><path d="M465.35 417.24c0 9.54-7.72 17.33-17.25 17.33-9.53 0-17.25-7.8-17.25-17.33 0-9.55 7.72-17.24 17.25-17.24 9.53 0 17.25 7.7 17.25 17.24z" stroke="#33332f" stroke-width="2" fill="#ffffed"/><path d="M448.2 435.1v41.43M474 502.4l-25.8-25.87-26 26.06M424.53 446.78h47.5" stroke="#33332f" stroke-width="2" fill="none"/><use xlink:href="#x" transform="matrix(1,0,0,1,360,502.5930485155684) translate(18.575000000000003 28.045)"/><use xlink:href="#y" transform="matrix(1,0,0,1,360,502.5930485155684) translate(96.525 28.045)"/></g><g filter="url(#k)"><path d="M596.25 316.64H772.5v141.68H596.25z" fill="#fff" fill-opacity="0"/><path d="M701.6 333.87c0 9.55-7.72 17.34-17.25 17.34-9.53 0-17.25-7.78-17.25-17.33 0-9.54 7.72-17.23 17.25-17.23 9.53 0 17.24 7.7 17.24 17.23z" stroke="#33332f" stroke-width="2" fill="#ffffed"/><path d="M684.45 351.73v41.44M710.24 419.03l-25.8-25.86-26 26.06M660.78 363.42h47.5" stroke="#33332f" stroke-width="2" fill="none"/><use xlink:href="#x" transform="matrix(1,0,0,1,596.248,419.2310485155683) translate(10.075000000000003 28.045)"/><use xlink:href="#z" transform="matrix(1,0,0,1,596.248,419.2310485155683) translate(88.025 28.045)"/></g><g filter="url(#k)"><path d="M1300 318.32h176.25V460H1300z" fill="#fff" fill-opacity="0"/><path d="M1405.35 335.56c0 9.54-7.72 17.33-17.25 17.33-9.53 0-17.25-7.8-17.25-17.34 0-9.55 7.72-17.24 17.25-17.24 9.53 0 17.25 7.7 17.25 17.24z" stroke="#33332f" stroke-width="2" fill="#ffffed"/><path d="M1388.2 353.4v41.45M1414 420.7l-25.8-25.85-26 26.06M1364.53 365.1h47.5" stroke="#33332f" stroke-width="2" fill="none"/><use xlink:href="#A" transform="matrix(1,0,0,1,1300,420.91204851556836) translate(56.050000000000004 17.244999999999997)"/><use xlink:href="#B" transform="matrix(1,0,0,1,1300,420.91204851556836) translate(43.1 38.845)"/></g><path d="M939.5 490h29.56v291.68h29.56" stroke="#000" stroke-width="2" fill="none"/><path d="M924.24 490l14.26-4.63v9.26zM1013.9 781.68l-14.28 4.64v-9.27z" stroke="#000" stroke-width="2"/><g filter="url(#C)"><path d="M1020 740h240v60h-240z" fill="none"/><use xlink:href="#D" transform="matrix(1,0,0,1,1020,740) translate(4.125 21.9)"/><use xlink:href="#E" transform="matrix(1,0,0,1,1020,740) translate(61.075 21.9)"/><use xlink:href="#F" transform="matrix(1,0,0,1,1020,740) translate(113.025 21.9)"/><use xlink:href="#G" transform="matrix(1,0,0,1,1020,740) translate(123.97500000000001 21.9)"/><use xlink:href="#H" transform="matrix(1,0,0,1,1020,740) translate(205.875 21.9)"/><use xlink:href="#I" transform="matrix(1,0,0,1,1020,740) translate(86.44999999999999 43.5)"/></g><g filter="url(#k)"><path d="M580 500h176.25v141.68H580z" fill="#fff" fill-opacity="0"/><path d="M685.35 517.24c0 9.54-7.72 17.33-17.25 17.33-9.53 0-17.25-7.8-17.25-17.33 0-9.55 7.72-17.24 17.25-17.24 9.53 0 17.25 7.7 17.25 17.24z" stroke="#33332f" stroke-width="2" fill="#ffffed"/><path d="M668.2 535.1v41.43M694 602.4l-25.8-25.87-26 26.06M644.53 546.78h47.5" stroke="#33332f" stroke-width="2" fill="none"/><use xlink:href="#J" transform="matrix(1,0,0,1,580,602.5930485155684) translate(36.6 17.244999999999997)"/><use xlink:href="#K" transform="matrix(1,0,0,1,580,602.5930485155684) translate(41.6 17.244999999999997)"/><use xlink:href="#L" transform="matrix(1,0,0,1,580,602.5930485155684) translate(48.550000000000004 38.845)"/></g><g filter="url(#k)"><path d="M1460 760h176.25v141.68H1460z" fill="#fff" fill-opacity="0"/><path d="M1565.35 777.24c0 9.54-7.72 17.33-17.25 17.33-9.53 0-17.25-7.8-17.25-17.33 0-9.55 7.72-17.24 17.25-17.24 9.53 0 17.25 7.7 17.25 17.24z" stroke="#33332f" stroke-width="2" fill="#ffffed"/><path d="M1548.2 795.1v41.43M1574 862.4l-25.8-25.87-26 26.06M1524.53 806.78h47.5" stroke="#33332f" stroke-width="2" fill="none"/><use xlink:href="#M" transform="matrix(1,0,0,1,1460,862.5930485155684) translate(31.10000000000001 28.045)"/><use xlink:href="#q" transform="matrix(1,0,0,1,1460,862.5930485155684) translate(76 28.045)"/></g><path d="M1008 473c-26.5 0-48-17-48-38 0-16.8 13-30.95 33.17-36.14C992 349.5 1072 340 1104 359c16-28.5 96-19 96 9.5 48-9.5 96 28.5 64 76 32 38 0 85.5-64 66.5-16 24.7-80 24.7-96 0-32 19-96 9.5-96-38z" stroke="#1f2933" stroke-width="2" fill="#9cf" filter="url(#t)"/><g filter="url(#N)"><path d="M1000 380h240v77.4h-240z" fill="none"/><use xlink:href="#O" transform="matrix(1,0,0,1,1000,380.00000000000006) translate(25.80000000000001 21.7125)"/><use xlink:href="#P" transform="matrix(1,0,0,1,1000,380.00000000000006) translate(70.4 21.7125)"/><use xlink:href="#Q" transform="matrix(1,0,0,1,1000,380.00000000000006) translate(115.30000000000001 21.7125)"/><use xlink:href="#R" transform="matrix(1,0,0,1,1000,380.00000000000006) translate(162.25 21.7125)"/><use xlink:href="#S" transform="matrix(1,0,0,1,1000,380.00000000000006) translate(26.599999999999994 43.3125)"/><use xlink:href="#F" transform="matrix(1,0,0,1,1000,380.00000000000006) translate(94.5 43.3125)"/><use xlink:href="#T" transform="matrix(1,0,0,1,1000,380.00000000000006) translate(105.45 43.3125)"/><use xlink:href="#U" transform="matrix(1,0,0,1,1000,380.00000000000006) translate(183.4 43.3125)"/><use xlink:href="#V" transform="matrix(1,0,0,1,1000,380.00000000000006) translate(38.57499999999999 64.91250000000001)"/><use xlink:href="#W" transform="matrix(1,0,0,1,1000,380.00000000000006) translate(134.475 64.91250000000001)"/></g><g filter="url(#k)"><path d="M1460 347.86h176.25v141.68H1460z" fill="#fff" fill-opacity="0"/><path d="M1565.35 365.1c0 9.54-7.72 17.33-17.25 17.33-9.53 0-17.25-7.8-17.25-17.33 0-9.55 7.72-17.24 17.25-17.24 9.53 0 17.25 7.7 17.25 17.24z" stroke="#33332f" stroke-width="2" fill="#ffffed"/><path d="M1548.2 382.95v41.44M1574 450.25l-25.8-25.86-26 26.05M1524.53 394.64h47.5" stroke="#33332f" stroke-width="2" fill="none"/><use xlink:href="#X" transform="matrix(1,0,0,1,1460,450.4525485155684) translate(42.1 28.045)"/></g><path d="M939.5 490h29.56v-71.3h12.44" stroke="#000" stroke-width="2" fill="none"/><path d="M924.24 490l14.26-4.63v9.26zM996.76 418.7l-14.26 4.63v-9.26z" stroke="#000" stroke-width="2"/><defs><path d="M185-189c-5-48-123-54-124 2 14 75 158 14 163 119 3 78-121 87-175 55-17-10-28-26-33-46l33-7c5 56 141 63 141-1 0-78-155-14-162-118-5-82 145-84 179-34 5 7 8 16 11 25" id="Y"/><path d="M59-47c-2 24 18 29 38 22v24C64 9 27 4 27-40v-127H5v-23h24l9-43h21v43h35v23H59v120" id="Z"/><path d="M114-163C36-179 61-72 57 0H25l-1-190h30c1 12-1 29 2 39 6-27 23-49 58-41v29" id="aa"/><path d="M84 4C-5 8 30-112 23-190h32v120c0 31 7 50 39 49 72-2 45-101 50-169h31l1 190h-30c-1-10 1-25-2-33-11 22-28 36-60 37" id="ab"/><path d="M96-169c-40 0-48 33-48 73s9 75 48 75c24 0 41-14 43-38l32 2c-6 37-31 61-74 61-59 0-76-41-82-99-10-93 101-131 147-64 4 7 5 14 7 22l-32 3c-4-21-16-35-41-35" id="ac"/><path d="M100-194c63 0 86 42 84 106H49c0 40 14 67 53 68 26 1 43-12 49-29l28 8c-11 28-37 45-77 45C44 4 14-33 15-96c1-61 26-98 85-98zm52 81c6-60-76-77-97-28-3 7-6 17-6 28h103" id="ad"/><path d="M68-38c1 34 0 65-14 84H32c9-13 17-26 17-46H33v-38h35" id="ae"/><g id="b"><use transform="matrix(0.05,0,0,0.05,0,0)" xlink:href="#Y"/><use transform="matrix(0.05,0,0,0.05,12,0)" xlink:href="#Z"/><use transform="matrix(0.05,0,0,0.05,17,0)" xlink:href="#aa"/><use transform="matrix(0.05,0,0,0.05,22.95,0)" xlink:href="#ab"/><use transform="matrix(0.05,0,0,0.05,32.95,0)" xlink:href="#ac"/><use transform="matrix(0.05,0,0,0.05,41.95,0)" xlink:href="#Z"/><use transform="matrix(0.05,0,0,0.05,46.95,0)" xlink:href="#ab"/><use transform="matrix(0.05,0,0,0.05,56.95,0)" xlink:href="#aa"/><use transform="matrix(0.05,0,0,0.05,62.900000000000006,0)" xlink:href="#ad"/><use transform="matrix(0.05,0,0,0.05,72.9,0)" xlink:href="#ae"/></g><path d="M137 0h-34L2-248h35l83 218 83-218h36" id="af"/><path d="M141-36C126-15 110 5 73 4 37 3 15-17 15-53c-1-64 63-63 125-63 3-35-9-54-41-54-24 1-41 7-42 31l-33-3c5-37 33-52 76-52 45 0 72 20 72 64v82c-1 20 7 32 28 27v20c-31 9-61-2-59-35zM48-53c0 20 12 33 32 33 41-3 63-29 60-74-43 2-92-5-92 41" id="ag"/><path d="M24 0v-261h32V0H24" id="ah"/><g id="c"><use transform="matrix(0.05,0,0,0.05,0,0)" xlink:href="#af"/><use transform="matrix(0.05,0,0,0.05,10.65,0)" xlink:href="#ag"/><use transform="matrix(0.05,0,0,0.05,20.65,0)" xlink:href="#ah"/><use transform="matrix(0.05,0,0,0.05,24.599999999999998,0)" xlink:href="#ab"/><use transform="matrix(0.05,0,0,0.05,34.599999999999994,0)" xlink:href="#ad"/><use transform="matrix(0.05,0,0,0.05,44.599999999999994,0)" xlink:href="#ae"/></g><path d="M127-220V0H93v-220H8v-28h204v28h-85" id="ai"/><path d="M106-169C34-169 62-67 57 0H25v-261h32l-1 103c12-21 28-36 61-36 89 0 53 116 60 194h-32v-121c2-32-8-49-39-48" id="aj"/><g id="d"><use transform="matrix(0.05,0,0,0.05,0,0)" xlink:href="#ai"/><use transform="matrix(0.05,0,0,0.05,8.950000000000001,0)" xlink:href="#ad"/><use transform="matrix(0.05,0,0,0.05,18.950000000000003,0)" xlink:href="#ac"/><use transform="matrix(0.05,0,0,0.05,27.950000000000003,0)" xlink:href="#aj"/></g><path d="M177-190C167-65 218 103 67 71c-23-6-38-20-44-43l32-5c15 47 100 32 89-28v-30C133-14 115 1 83 1 29 1 15-40 15-95c0-56 16-97 71-98 29-1 48 16 59 35 1-10 0-23 2-32h30zM94-22c36 0 50-32 50-73 0-42-14-75-50-75-39 0-46 34-46 75s6 73 46 73" id="ak"/><path d="M179-190L93 31C79 59 56 82 12 73V49c39 6 53-20 64-50L1-190h34L92-34l54-156h33" id="al"/><g id="e"><use transform="matrix(0.05,0,0,0.05,0,0)" xlink:href="#Y"/><use transform="matrix(0.05,0,0,0.05,12,0)" xlink:href="#Z"/><use transform="matrix(0.05,0,0,0.05,17,0)" xlink:href="#aa"/><use transform="matrix(0.05,0,0,0.05,22.95,0)" xlink:href="#ag"/><use transform="matrix(0.05,0,0,0.05,32.95,0)" xlink:href="#Z"/><use transform="matrix(0.05,0,0,0.05,37.95,0)" xlink:href="#ad"/><use transform="matrix(0.05,0,0,0.05,47.95,0)" xlink:href="#ak"/><use transform="matrix(0.05,0,0,0.05,57.95,0)" xlink:href="#al"/></g><filter id="a" filterUnits="objectBoundingBox" x="-.01" y="-.01" width="1.02" height="1.03"><feOffset result="offOut" in="SourceAlpha" dy="3"/><feGaussianBlur result="blurOut" in="offOut" stdDeviation="2.5"/><feColorMatrix result="colorOut" in="blurOut" values="0 0 0 0 0 0 0 0 0 0 0 0 0 0 0 0 0 0 0.5019607843137255 0"/><feBlend in="SourceGraphic" in2="colorOut"/></filter><path d="M233-177c-1 41-23 64-60 70L243 0h-38l-65-103H63V0H30v-248c88 3 205-21 203 71zM63-129c60-2 137 13 137-47 0-61-80-42-137-45v92" id="am"/><path d="M135-143c-3-34-86-38-87 0 15 53 115 12 119 90S17 21 10-45l28-5c4 36 97 45 98 0-10-56-113-15-118-90-4-57 82-63 122-42 12 7 21 19 24 35" id="an"/><path d="M100-194c62-1 85 37 85 99 1 63-27 99-86 99S16-35 15-95c0-66 28-99 85-99zM99-20c44 1 53-31 53-75 0-43-8-75-51-75s-53 32-53 75 10 74 51 75" id="ao"/><g id="g"><use transform="matrix(0.05,0,0,0.05,0,0)" xlink:href="#am"/><use transform="matrix(0.05,0,0,0.05,12.950000000000001,0)" xlink:href="#ad"/><use transform="matrix(0.05,0,0,0.05,22.950000000000003,0)" xlink:href="#an"/><use transform="matrix(0.05,0,0,0.05,31.950000000000003,0)" xlink:href="#ao"/><use transform="matrix(0.05,0,0,0.05,41.95,0)" xlink:href="#ab"/><use transform="matrix(0.05,0,0,0.05,51.95,0)" xlink:href="#aa"/><use transform="matrix(0.05,0,0,0.05,57.900000000000006,0)" xlink:href="#ac"/><use transform="matrix(0.05,0,0,0.05,66.9,0)" xlink:href="#ad"/></g><path d="M117-194c89-4 53 116 60 194h-32v-121c0-31-8-49-39-48C34-167 62-67 57 0H25l-1-190h30c1 10-1 24 2 32 11-22 29-35 61-36" id="ap"/><path d="M85-194c31 0 48 13 60 33l-1-100h32l1 261h-30c-2-10 0-23-3-31C134-8 116 4 85 4 32 4 16-35 15-94c0-66 23-100 70-100zm9 24c-40 0-46 34-46 75 0 40 6 74 45 74 42 0 51-32 51-76 0-42-9-74-50-73" id="aq"/><g id="h"><use transform="matrix(0.05,0,0,0.05,0,0)" xlink:href="#ag"/><use transform="matrix(0.05,0,0,0.05,10,0)" xlink:href="#ap"/><use transform="matrix(0.05,0,0,0.05,20,0)" xlink:href="#aq"/></g><g id="i"><use transform="matrix(0.05,0,0,0.05,0,0)" xlink:href="#Y"/><use transform="matrix(0.05,0,0,0.05,12,0)" xlink:href="#ac"/><use transform="matrix(0.05,0,0,0.05,21,0)" xlink:href="#aj"/><use transform="matrix(0.05,0,0,0.05,31,0)" xlink:href="#ad"/><use transform="matrix(0.05,0,0,0.05,41,0)" xlink:href="#aq"/><use transform="matrix(0.05,0,0,0.05,51,0)" xlink:href="#ab"/><use transform="matrix(0.05,0,0,0.05,61,0)" xlink:href="#ah"/><use transform="matrix(0.05,0,0,0.05,64.95,0)" xlink:href="#ad"/></g><path d="M30-248c118-7 216 8 213 122C240-48 200 0 122 0H30v-248zM63-27c89 8 146-16 146-99s-60-101-146-95v194" id="ar"/><path d="M108 0H70L1-190h34L89-25l56-165h34" id="as"/><path d="M115-194c55 1 70 41 70 98S169 2 115 4C84 4 66-9 55-30l1 105H24l-1-265h31l2 30c10-21 28-34 59-34zm-8 174c40 0 45-34 45-75s-6-73-45-74c-42 0-51 32-51 76 0 43 10 73 51 73" id="at"/><path d="M210-169c-67 3-38 105-44 169h-31v-121c0-29-5-50-35-48C34-165 62-65 56 0H25l-1-190h30c1 10-1 24 2 32 10-44 99-50 107 0 11-21 27-35 58-36 85-2 47 119 55 194h-31v-121c0-29-5-49-35-48" id="au"/><g id="j"><use transform="matrix(0.05,0,0,0.05,0,0)" xlink:href="#ar"/><use transform="matrix(0.05,0,0,0.05,12.950000000000001,0)" xlink:href="#ad"/><use transform="matrix(0.05,0,0,0.05,22.950000000000003,0)" xlink:href="#as"/><use transform="matrix(0.05,0,0,0.05,31.950000000000003,0)" xlink:href="#ad"/><use transform="matrix(0.05,0,0,0.05,41.95,0)" xlink:href="#ah"/><use transform="matrix(0.05,0,0,0.05,45.900000000000006,0)" xlink:href="#ao"/><use transform="matrix(0.05,0,0,0.05,55.900000000000006,0)" xlink:href="#at"/><use transform="matrix(0.05,0,0,0.05,65.9,0)" xlink:href="#au"/><use transform="matrix(0.05,0,0,0.05,80.85000000000001,0)" xlink:href="#ad"/><use transform="matrix(0.05,0,0,0.05,90.85000000000001,0)" xlink:href="#ap"/><use transform="matrix(0.05,0,0,0.05,100.85000000000001,0)" xlink:href="#Z"/></g><filter id="f" filterUnits="objectBoundingBox" x="-.01" y="-.01" width="1.02" height="1.03"><feOffset result="offOut" in="SourceAlpha" dy="3"/><feGaussianBlur result="blurOut" in="offOut" stdDeviation="2.5"/><feColorMatrix result="colorOut" in="blurOut" values="0 0 0 0 0 0 0 0 0 0 0 0 0 0 0 0 0 0 0.5019607843137255 0"/><feBlend in="SourceGraphic" in2="colorOut"/></filter><path d="M30-248c87 1 191-15 191 75 0 78-77 80-158 76V0H30v-248zm33 125c57 0 124 11 124-50 0-59-68-47-124-48v98" id="av"/><path d="M240 0l2-218c-23 76-54 145-80 218h-23L58-218 59 0H30v-248h44l77 211c21-75 51-140 76-211h43V0h-30" id="aw"/><path d="M140-251c81 0 123 46 123 126C263-46 219 4 140 4 59 4 17-45 17-125s42-126 123-126zm0 227c63 0 89-41 89-101s-29-99-89-99c-61 0-89 39-89 99S79-25 140-24" id="ax"/><g id="l"><use transform="matrix(0.05,0,0,0.05,0,0)" xlink:href="#av"/><use transform="matrix(0.05,0,0,0.05,12,0)" xlink:href="#aw"/><use transform="matrix(0.05,0,0,0.05,26.950000000000003,0)" xlink:href="#ax"/></g><filter id="k" filterUnits="objectBoundingBox" x="-.03" y="-.01" width="1.06" height="1.07"><feOffset result="offOut" in="SourceAlpha" dy="3"/><feGaussianBlur result="blurOut" in="offOut" stdDeviation="2.5"/><feColorMatrix result="colorOut" in="blurOut" values="0 0 0 0 0 0 0 0 0 0 0 0 0 0 0 0 0 0 0.5019607843137255 0"/><feBlend in="SourceGraphic" in2="colorOut"/></filter><path d="M30 0v-248h33v221h125V0H30" id="ay"/><path d="M24-231v-30h32v30H24zM24 0v-190h32V0H24" id="az"/><g id="n"><use transform="matrix(0.05,0,0,0.05,0,0)" xlink:href="#ay"/><use transform="matrix(0.05,0,0,0.05,10,0)" xlink:href="#az"/><use transform="matrix(0.05,0,0,0.05,13.949999999999998,0)" xlink:href="#ap"/><use transform="matrix(0.05,0,0,0.05,23.95,0)" xlink:href="#ad"/></g><path d="M101-234c-31-9-42 10-38 44h38v23H63V0H32v-167H5v-23h27c-7-52 17-82 69-68v24" id="aA"/><g id="o"><use transform="matrix(0.05,0,0,0.05,0,0)" xlink:href="#ao"/><use transform="matrix(0.05,0,0,0.05,10,0)" xlink:href="#aA"/></g><path d="M160-131c35 5 61 23 61 61C221 17 115-2 30 0v-248c76 3 177-17 177 60 0 33-19 50-47 57zm-97-11c50-1 110 9 110-42 0-47-63-36-110-37v79zm0 115c55-2 124 14 124-45 0-56-70-42-124-44v89" id="aB"/><g id="p"><use transform="matrix(0.05,0,0,0.05,0,0)" xlink:href="#aB"/><use transform="matrix(0.05,0,0,0.05,12,0)" xlink:href="#ab"/><use transform="matrix(0.05,0,0,0.05,22,0)" xlink:href="#an"/><use transform="matrix(0.05,0,0,0.05,31,0)" xlink:href="#az"/><use transform="matrix(0.05,0,0,0.05,34.95,0)" xlink:href="#ap"/><use transform="matrix(0.05,0,0,0.05,44.95,0)" xlink:href="#ad"/><use transform="matrix(0.05,0,0,0.05,54.95,0)" xlink:href="#an"/><use transform="matrix(0.05,0,0,0.05,63.95,0)" xlink:href="#an"/></g><g id="q"><use transform="matrix(0.05,0,0,0.05,0,0)" xlink:href="#av"/><use transform="matrix(0.05,0,0,0.05,12,0)" xlink:href="#ah"/><use transform="matrix(0.05,0,0,0.05,15.949999999999998,0)" xlink:href="#ag"/><use transform="matrix(0.05,0,0,0.05,25.950000000000003,0)" xlink:href="#ap"/><use transform="matrix(0.05,0,0,0.05,35.95,0)" xlink:href="#ap"/><use transform="matrix(0.05,0,0,0.05,45.95,0)" xlink:href="#az"/><use transform="matrix(0.05,0,0,0.05,49.900000000000006,0)" xlink:href="#ap"/><use transform="matrix(0.05,0,0,0.05,59.900000000000006,0)" xlink:href="#ak"/></g><filter id="m" filterUnits="objectBoundingBox" x="-.02" y="0" width="1.03" height="1.01"><feOffset result="offOut" in="SourceAlpha" dy="3"/><feGaussianBlur result="blurOut" in="offOut" stdDeviation="2.5"/><feColorMatrix result="colorOut" in="blurOut" values="0 0 0 0 0 0 0 0 0 0 0 0 0 0 0 0 0 0 0.5019607843137255 0"/><feBlend in="SourceGraphic" in2="colorOut"/></filter><path d="M33 0v-248h34V0H33" id="aC"/><g id="s"><use transform="matrix(0.05,0,0,0.05,0,0)" xlink:href="#aC"/><use transform="matrix(0.05,0,0,0.05,5,0)" xlink:href="#ai"/></g><filter id="r" filterUnits="objectBoundingBox" x="-.02" y="0" width="1.04" height="1.01"><feOffset result="offOut" in="SourceAlpha" dy="3"/><feGaussianBlur result="blurOut" in="offOut" stdDeviation="2.5"/><feColorMatrix result="colorOut" in="blurOut" values="0 0 0 0 0 0 0 0 0 0 0 0 0 0 0 0 0 0 0.5019607843137255 0"/><feBlend in="SourceGraphic" in2="colorOut"/></filter><filter id="t" filterUnits="objectBoundingBox" x="-.02" y="-.01" width="1.03" height="1.05"><feOffset result="offOut" in="SourceAlpha" dy="3"/><feGaussianBlur result="blurOut" in="offOut" stdDeviation="2.5"/><feColorMatrix result="colorOut" in="blurOut" values="0 0 0 0 0 0 0 0 0 0 0 0 0 0 0 0 0 0 0.5019607843137255 0"/><feBlend in="SourceGraphic" in2="colorOut"/></filter><g id="v"><use transform="matrix(0.05,0,0,0.05,0,0)" xlink:href="#af"/><use transform="matrix(0.05,0,0,0.05,10.65,0)" xlink:href="#ag"/><use transform="matrix(0.05,0,0,0.05,20.65,0)" xlink:href="#ah"/><use transform="matrix(0.05,0,0,0.05,24.599999999999998,0)" xlink:href="#ab"/><use transform="matrix(0.05,0,0,0.05,34.599999999999994,0)" xlink:href="#ad"/></g><g id="w"><use transform="matrix(0.05,0,0,0.05,0,0)" xlink:href="#Y"/><use transform="matrix(0.05,0,0,0.05,12,0)" xlink:href="#Z"/><use transform="matrix(0.05,0,0,0.05,17,0)" xlink:href="#aa"/><use transform="matrix(0.05,0,0,0.05,22.95,0)" xlink:href="#ad"/><use transform="matrix(0.05,0,0,0.05,32.95,0)" xlink:href="#ag"/><use transform="matrix(0.05,0,0,0.05,42.95,0)" xlink:href="#au"/><use transform="matrix(0.05,0,0,0.05,57.900000000000006,0)" xlink:href="#an"/></g><filter id="u" filterUnits="objectBoundingBox" x="-.01" y="-.01" width="1.02" height="1.03"><feOffset result="offOut" in="SourceAlpha" dy="3"/><feGaussianBlur result="blurOut" in="offOut" stdDeviation="2.5"/><feColorMatrix result="colorOut" in="blurOut" values="0 0 0 0 0 0 0 0 0 0 0 0 0 0 0 0 0 0 0.5019607843137255 0"/><feBlend in="SourceGraphic" in2="colorOut"/></filter><g id="x"><use transform="matrix(0.05,0,0,0.05,0,0)" xlink:href="#aB"/><use transform="matrix(0.05,0,0,0.05,12,0)" xlink:href="#ab"/><use transform="matrix(0.05,0,0,0.05,22,0)" xlink:href="#an"/><use transform="matrix(0.05,0,0,0.05,31,0)" xlink:href="#az"/><use transform="matrix(0.05,0,0,0.05,34.95,0)" xlink:href="#ap"/><use transform="matrix(0.05,0,0,0.05,44.95,0)" xlink:href="#ad"/><use transform="matrix(0.05,0,0,0.05,54.95,0)" xlink:href="#an"/><use transform="matrix(0.05,0,0,0.05,63.95,0)" xlink:href="#an"/></g><path d="M206 0h-36l-40-164L89 0H53L-1-190h32L70-26l43-164h34l41 164 42-164h31" id="aD"/><g id="y"><use transform="matrix(0.05,0,0,0.05,0,0)" xlink:href="#ax"/><use transform="matrix(0.05,0,0,0.05,14,0)" xlink:href="#aD"/><use transform="matrix(0.05,0,0,0.05,26.950000000000003,0)" xlink:href="#ap"/><use transform="matrix(0.05,0,0,0.05,36.95,0)" xlink:href="#ad"/><use transform="matrix(0.05,0,0,0.05,46.95,0)" xlink:href="#aa"/><use transform="matrix(0.05,0,0,0.05,52.900000000000006,0)" xlink:href="#an"/></g><path d="M205 0l-28-72H64L36 0H1l101-248h38L239 0h-34zm-38-99l-47-123c-12 45-31 82-46 123h93" id="aE"/><g id="z"><use transform="matrix(0.05,0,0,0.05,0,0)" xlink:href="#aE"/><use transform="matrix(0.05,0,0,0.05,12,0)" xlink:href="#aa"/><use transform="matrix(0.05,0,0,0.05,17.95,0)" xlink:href="#ac"/><use transform="matrix(0.05,0,0,0.05,26.950000000000003,0)" xlink:href="#aj"/><use transform="matrix(0.05,0,0,0.05,36.95,0)" xlink:href="#az"/><use transform="matrix(0.05,0,0,0.05,40.900000000000006,0)" xlink:href="#Z"/><use transform="matrix(0.05,0,0,0.05,45.900000000000006,0)" xlink:href="#ad"/><use transform="matrix(0.05,0,0,0.05,55.900000000000006,0)" xlink:href="#ac"/><use transform="matrix(0.05,0,0,0.05,64.9,0)" xlink:href="#Z"/><use transform="matrix(0.05,0,0,0.05,69.9,0)" xlink:href="#an"/></g><g id="A"><use transform="matrix(0.05,0,0,0.05,0,0)" xlink:href="#Y"/><use transform="matrix(0.05,0,0,0.05,12,0)" xlink:href="#ao"/><use transform="matrix(0.05,0,0,0.05,22,0)" xlink:href="#ah"/><use transform="matrix(0.05,0,0,0.05,25.950000000000003,0)" xlink:href="#ab"/><use transform="matrix(0.05,0,0,0.05,35.95,0)" xlink:href="#Z"/><use transform="matrix(0.05,0,0,0.05,40.95,0)" xlink:href="#az"/><use transform="matrix(0.05,0,0,0.05,44.900000000000006,0)" xlink:href="#ao"/><use transform="matrix(0.05,0,0,0.05,54.900000000000006,0)" xlink:href="#ap"/></g><path d="M87 75C49 33 22-17 22-94c0-76 28-126 65-167h31c-38 41-64 92-64 168S80 34 118 75H87" id="aF"/><path d="M33-261c38 41 65 92 65 168S71 34 33 75H2C39 34 66-17 66-93S39-220 2-261h31" id="aG"/><g id="B"><use transform="matrix(0.05,0,0,0.05,0,0)" xlink:href="#aE"/><use transform="matrix(0.05,0,0,0.05,12,0)" xlink:href="#aa"/><use transform="matrix(0.05,0,0,0.05,17.95,0)" xlink:href="#ac"/><use transform="matrix(0.05,0,0,0.05,26.950000000000003,0)" xlink:href="#aj"/><use transform="matrix(0.05,0,0,0.05,36.95,0)" xlink:href="#az"/><use transform="matrix(0.05,0,0,0.05,40.900000000000006,0)" xlink:href="#Z"/><use transform="matrix(0.05,0,0,0.05,45.900000000000006,0)" xlink:href="#ad"/><use transform="matrix(0.05,0,0,0.05,55.900000000000006,0)" xlink:href="#ac"/><use transform="matrix(0.05,0,0,0.05,64.9,0)" xlink:href="#Z"/><use transform="matrix(0.05,0,0,0.05,69.9,0)" xlink:href="#aF"/><use transform="matrix(0.05,0,0,0.05,75.85000000000001,0)" xlink:href="#an"/><use transform="matrix(0.05,0,0,0.05,84.85000000000001,0)" xlink:href="#aG"/></g><path d="M266 0h-40l-56-210L115 0H75L2-248h35L96-30l15-64 43-154h32l59 218 59-218h35" id="aH"/><g id="D"><use transform="matrix(0.05,0,0,0.05,0,0)" xlink:href="#aH"/><use transform="matrix(0.05,0,0,0.05,16.95,0)" xlink:href="#aj"/><use transform="matrix(0.05,0,0,0.05,26.950000000000003,0)" xlink:href="#ad"/><use transform="matrix(0.05,0,0,0.05,36.95,0)" xlink:href="#ap"/><use transform="matrix(0.05,0,0,0.05,46.95,0)" xlink:href="#ae"/></g><path d="M103-251c84 0 111 97 45 133-19 10-37 24-39 52H78c0-63 77-55 77-114 0-30-21-42-52-43-32 0-53 17-56 46l-32-2c7-45 34-72 88-72zM77 0v-35h34V0H77" id="aI"/><g id="E"><use transform="matrix(0.05,0,0,0.05,0,0)" xlink:href="#aH"/><use transform="matrix(0.05,0,0,0.05,16.95,0)" xlink:href="#aj"/><use transform="matrix(0.05,0,0,0.05,26.950000000000003,0)" xlink:href="#ao"/><use transform="matrix(0.05,0,0,0.05,36.95,0)" xlink:href="#aI"/></g><path d="M16-82v-28h88v28H16" id="aJ"/><use transform="matrix(0.05,0,0,0.05,0,0)" xlink:href="#aJ" id="F"/><g id="G"><use transform="matrix(0.05,0,0,0.05,0,0)" xlink:href="#am"/><use transform="matrix(0.05,0,0,0.05,12.950000000000001,0)" xlink:href="#ad"/><use transform="matrix(0.05,0,0,0.05,22.950000000000003,0)" xlink:href="#an"/><use transform="matrix(0.05,0,0,0.05,31.950000000000003,0)" xlink:href="#ao"/><use transform="matrix(0.05,0,0,0.05,41.95,0)" xlink:href="#ab"/><use transform="matrix(0.05,0,0,0.05,51.95,0)" xlink:href="#aa"/><use transform="matrix(0.05,0,0,0.05,57.900000000000006,0)" xlink:href="#ac"/><use transform="matrix(0.05,0,0,0.05,66.9,0)" xlink:href="#ad"/></g><g id="H"><use transform="matrix(0.05,0,0,0.05,0,0)" xlink:href="#ag"/><use transform="matrix(0.05,0,0,0.05,10,0)" xlink:href="#ap"/><use transform="matrix(0.05,0,0,0.05,20,0)" xlink:href="#aq"/></g><g id="I"><use transform="matrix(0.05,0,0,0.05,0,0)" xlink:href="#ai"/><use transform="matrix(0.05,0,0,0.05,10.3,0)" xlink:href="#az"/><use transform="matrix(0.05,0,0,0.05,14.25,0)" xlink:href="#au"/><use transform="matrix(0.05,0,0,0.05,29.200000000000003,0)" xlink:href="#ad"/><use transform="matrix(0.05,0,0,0.05,39.2,0)" xlink:href="#ah"/><use transform="matrix(0.05,0,0,0.05,43.150000000000006,0)" xlink:href="#az"/><use transform="matrix(0.05,0,0,0.05,47.10000000000001,0)" xlink:href="#ap"/><use transform="matrix(0.05,0,0,0.05,57.1,0)" xlink:href="#ad"/></g><filter id="C" filterUnits="objectBoundingBox" x="-.02" y="-.03" width="1.04" height="1.17"><feOffset result="offOut" in="SourceAlpha" dy="3"/><feGaussianBlur result="blurOut" in="offOut" stdDeviation="2.5"/><feColorMatrix result="colorOut" in="blurOut" values="0 0 0 0 0 0 0 0 0 0 0 0 0 0 0 0 0 0 0.5019607843137255 0"/><feBlend in="SourceGraphic" in2="colorOut"/></filter><g id="K"><use transform="matrix(0.05,0,0,0.05,0,0)" xlink:href="#am"/><use transform="matrix(0.05,0,0,0.05,12.950000000000001,0)" xlink:href="#ad"/><use transform="matrix(0.05,0,0,0.05,22.950000000000003,0)" xlink:href="#ah"/><use transform="matrix(0.05,0,0,0.05,26.900000000000002,0)" xlink:href="#ag"/><use transform="matrix(0.05,0,0,0.05,36.900000000000006,0)" xlink:href="#Z"/><use transform="matrix(0.05,0,0,0.05,41.900000000000006,0)" xlink:href="#az"/><use transform="matrix(0.05,0,0,0.05,45.85000000000001,0)" xlink:href="#ao"/><use transform="matrix(0.05,0,0,0.05,55.85,0)" xlink:href="#ap"/><use transform="matrix(0.05,0,0,0.05,65.85000000000001,0)" xlink:href="#an"/><use transform="matrix(0.05,0,0,0.05,74.85000000000001,0)" xlink:href="#aj"/><use transform="matrix(0.05,0,0,0.05,84.85000000000001,0)" xlink:href="#az"/><use transform="matrix(0.05,0,0,0.05,88.80000000000001,0)" xlink:href="#at"/></g><g id="L"><use transform="matrix(0.05,0,0,0.05,0,0)" xlink:href="#aw"/><use transform="matrix(0.05,0,0,0.05,14.950000000000001,0)" xlink:href="#ag"/><use transform="matrix(0.05,0,0,0.05,24.950000000000003,0)" xlink:href="#ap"/><use transform="matrix(0.05,0,0,0.05,34.95,0)" xlink:href="#ag"/><use transform="matrix(0.05,0,0,0.05,44.95,0)" xlink:href="#ak"/><use transform="matrix(0.05,0,0,0.05,54.95,0)" xlink:href="#ad"/><use transform="matrix(0.05,0,0,0.05,64.95,0)" xlink:href="#aa"/><use transform="matrix(0.05,0,0,0.05,70.9,0)" xlink:href="#an"/></g><g id="M"><use transform="matrix(0.05,0,0,0.05,0,0)" xlink:href="#aE"/><use transform="matrix(0.05,0,0,0.05,12,0)" xlink:href="#ak"/><use transform="matrix(0.05,0,0,0.05,22,0)" xlink:href="#az"/><use transform="matrix(0.05,0,0,0.05,25.950000000000003,0)" xlink:href="#ah"/><use transform="matrix(0.05,0,0,0.05,29.899999999999995,0)" xlink:href="#ad"/></g><g id="O"><use transform="matrix(0.05,0,0,0.05,0,0)" xlink:href="#aH"/><use transform="matrix(0.05,0,0,0.05,16.95,0)" xlink:href="#aj"/><use transform="matrix(0.05,0,0,0.05,26.950000000000003,0)" xlink:href="#al"/><use transform="matrix(0.05,0,0,0.05,34.599999999999994,0)" xlink:href="#ae"/></g><path d="M197 0v-115H63V0H30v-248h33v105h134v-105h34V0h-34" id="aK"/><g id="P"><use transform="matrix(0.05,0,0,0.05,0,0)" xlink:href="#aK"/><use transform="matrix(0.05,0,0,0.05,12.950000000000001,0)" xlink:href="#ao"/><use transform="matrix(0.05,0,0,0.05,22.950000000000003,0)" xlink:href="#aD"/><use transform="matrix(0.05,0,0,0.05,34.900000000000006,0)" xlink:href="#ae"/></g><g id="Q"><use transform="matrix(0.05,0,0,0.05,0,0)" xlink:href="#aH"/><use transform="matrix(0.05,0,0,0.05,16.95,0)" xlink:href="#aj"/><use transform="matrix(0.05,0,0,0.05,26.950000000000003,0)" xlink:href="#ao"/><use transform="matrix(0.05,0,0,0.05,36.95,0)" xlink:href="#ae"/></g><g id="R"><use transform="matrix(0.05,0,0,0.05,0,0)" xlink:href="#aH"/><use transform="matrix(0.05,0,0,0.05,16.95,0)" xlink:href="#aj"/><use transform="matrix(0.05,0,0,0.05,26.950000000000003,0)" xlink:href="#ad"/><use transform="matrix(0.05,0,0,0.05,36.95,0)" xlink:href="#ap"/><use transform="matrix(0.05,0,0,0.05,46.95,0)" xlink:href="#ae"/></g><g id="S"><use transform="matrix(0.05,0,0,0.05,0,0)" xlink:href="#aH"/><use transform="matrix(0.05,0,0,0.05,16.95,0)" xlink:href="#aj"/><use transform="matrix(0.05,0,0,0.05,26.950000000000003,0)" xlink:href="#ad"/><use transform="matrix(0.05,0,0,0.05,36.95,0)" xlink:href="#aa"/><use transform="matrix(0.05,0,0,0.05,42.900000000000006,0)" xlink:href="#ad"/><use transform="matrix(0.05,0,0,0.05,52.900000000000006,0)" xlink:href="#aI"/></g><g id="T"><use transform="matrix(0.05,0,0,0.05,0,0)" xlink:href="#aB"/><use transform="matrix(0.05,0,0,0.05,12,0)" xlink:href="#ab"/><use transform="matrix(0.05,0,0,0.05,22,0)" xlink:href="#an"/><use transform="matrix(0.05,0,0,0.05,31,0)" xlink:href="#az"/><use transform="matrix(0.05,0,0,0.05,34.95,0)" xlink:href="#ap"/><use transform="matrix(0.05,0,0,0.05,44.95,0)" xlink:href="#ad"/><use transform="matrix(0.05,0,0,0.05,54.95,0)" xlink:href="#an"/><use transform="matrix(0.05,0,0,0.05,63.95,0)" xlink:href="#an"/></g><g id="U"><use transform="matrix(0.05,0,0,0.05,0,0)" xlink:href="#ag"/><use transform="matrix(0.05,0,0,0.05,10,0)" xlink:href="#ap"/><use transform="matrix(0.05,0,0,0.05,20,0)" xlink:href="#aq"/></g><g id="V"><use transform="matrix(0.05,0,0,0.05,0,0)" xlink:href="#ai"/><use transform="matrix(0.05,0,0,0.05,8.950000000000001,0)" xlink:href="#ad"/><use transform="matrix(0.05,0,0,0.05,18.950000000000003,0)" xlink:href="#ac"/><use transform="matrix(0.05,0,0,0.05,27.950000000000003,0)" xlink:href="#aj"/><use transform="matrix(0.05,0,0,0.05,37.95,0)" xlink:href="#ap"/><use transform="matrix(0.05,0,0,0.05,47.95,0)" xlink:href="#ao"/><use transform="matrix(0.05,0,0,0.05,57.95,0)" xlink:href="#ah"/><use transform="matrix(0.05,0,0,0.05,61.900000000000006,0)" xlink:href="#ao"/><use transform="matrix(0.05,0,0,0.05,71.9,0)" xlink:href="#ak"/><use transform="matrix(0.05,0,0,0.05,81.9,0)" xlink:href="#al"/></g><g id="W"><use transform="matrix(0.05,0,0,0.05,0,0)" xlink:href="#Y"/><use transform="matrix(0.05,0,0,0.05,12,0)" xlink:href="#Z"/><use transform="matrix(0.05,0,0,0.05,17,0)" xlink:href="#aa"/><use transform="matrix(0.05,0,0,0.05,22.95,0)" xlink:href="#ag"/><use transform="matrix(0.05,0,0,0.05,32.95,0)" xlink:href="#Z"/><use transform="matrix(0.05,0,0,0.05,37.95,0)" xlink:href="#ad"/><use transform="matrix(0.05,0,0,0.05,47.95,0)" xlink:href="#ak"/><use transform="matrix(0.05,0,0,0.05,57.95,0)" xlink:href="#al"/></g><filter id="N" filterUnits="objectBoundingBox" x="-.02" y="-.03" width="1.04" height="1.13"><feOffset result="offOut" in="SourceAlpha" dy="3"/><feGaussianBlur result="blurOut" in="offOut" stdDeviation="2.5"/><feColorMatrix result="colorOut" in="blurOut" values="0 0 0 0 0 0 0 0 0 0 0 0 0 0 0 0 0 0 0.5019607843137255 0"/><feBlend in="SourceGraphic" in2="colorOut"/></filter><path d="M30 0v-248h187v28H63v79h144v27H63v87h162V0H30" id="aL"/><g id="X"><use transform="matrix(0.05,0,0,0.05,0,0)" xlink:href="#aL"/><use transform="matrix(0.05,0,0,0.05,12,0)" xlink:href="#ap"/><use transform="matrix(0.05,0,0,0.05,22,0)" xlink:href="#ak"/><use transform="matrix(0.05,0,0,0.05,32,0)" xlink:href="#az"/><use transform="matrix(0.05,0,0,0.05,35.95,0)" xlink:href="#ap"/><use transform="matrix(0.05,0,0,0.05,45.95,0)" xlink:href="#ad"/><use transform="matrix(0.05,0,0,0.05,55.95,0)" xlink:href="#ad"/><use transform="matrix(0.05,0,0,0.05,65.95,0)" xlink:href="#aa"/><use transform="matrix(0.05,0,0,0.05,71.9,0)" xlink:href="#aF"/><use transform="matrix(0.05,0,0,0.05,77.85000000000001,0)" xlink:href="#an"/><use transform="matrix(0.05,0,0,0.05,86.85000000000001,0)" xlink:href="#aG"/></g></defs></g></svg>