<svg version="1.2" xmlns="http://www.w3.org/2000/svg" viewBox="0 0 1500 1000" width="1500" height="1000">
	<title>5716001-ai</title>
	<style>
		tspan { white-space:pre } 
		.s0 { fill: #f7f7f7 } 
		.s1 { fill: #fdbeea } 
		.s2 { fill: #ffa819 } 
		.s3 { fill: #f2721f } 
		.s4 { fill: #20b6e0 } 
		.s5 { fill: #1fb5df } 
		.s6 { fill: #2466ec } 
		.s7 { fill: #295ac0 } 
		.s8 { fill: #040404 } 
		.t9 { font-size: 5px;fill: #000000;font-weight: 400;font-family: "Poppins-Regular", "Poppins" } 
		.s10 { fill: #f37320 } 
		.s11 { fill: #cf621b } 
		.s12 { fill: #188aab } 
		.s13 { fill: #0d3fa6 } 
		.s14 { fill: #5d5d5d } 
		.s15 { fill: #000000 } 
		.s16 { fill: #104bc4 } 
		.s17 { fill: #2859bf } 
		.s18 { fill: #afb0b2 } 
		.s19 { fill: #8f9091 } 
		.s20 { fill: #ffffff } 
		.t21 { font-size: 31px;fill: #295ac0;font-weight: 700;font-family: "Oswald-Bold", "Oswald" } 
		.t22 { font-size: 8px;fill: #000000;font-weight: 600;font-family: "Poppins-SemiBold", "Poppins" } 
		.t23 { font-size: 12px;fill: #0b0706;font-weight: 600;font-family: "Poppins-SemiBold", "Poppins" } 
		.s24 { fill: #a5174b } 
		.s25 { fill: #020202 } 
		.t26 { font-size: 8px;fill: #00ff00;font-weight: 400;font-family: "Poppins-Regular", "Poppins" } 
		.t27 { font-size: 8px;fill: #000000;font-weight: 400;font-family: "Poppins-Regular", "Poppins" } 
	</style>
	<g id="Background">
		<g id="&lt;Group&gt;">
			<g id="&lt;Group&gt;">
				<path id="&lt;Path&gt;" class="s0" d="m1500 1000h-1500v-1000h1500z"/>
			</g>
			<g id="&lt;Group&gt;">
				<path id="&lt;Path&gt;" class="s1" d="m103.3 390.7c19.5 0 35.3-15.9 35.3-35.4 0-19.5-15.8-35.3-35.3-35.3-19.5 0-35.4 15.8-35.4 35.3 0 19.5 15.9 35.4 35.4 35.4z"/>
				<path id="&lt;Path&gt;" class="s1" d="m1048.5 974.7c0-25.1 17.8-46 41.4-50.8-21.4-35.2-60.1-58.7-104.3-58.7-67.5 0-122.1 54.7-122.1 122.1q0 6.4 0.6 12.7h191c-4.2-7.5-6.6-16.1-6.6-25.3z"/>
				<path id="&lt;Path&gt;" class="s1" d="m884.7 6c0 19.5 15.8 35.3 35.3 35.3 19.6 0 35.4-15.8 35.4-35.3 0-2.1-0.2-4.1-0.5-6h-69.7c-0.3 1.9-0.5 3.9-0.5 6z"/>
				<path id="&lt;Path&gt;" class="s1" d="m1500 592.3c-1.7-0.2-3.4-0.4-5.1-0.4-19.6 0-35.4 15.8-35.4 35.3 0 19.6 15.8 35.4 35.4 35.4 1.7 0 3.4-0.2 5.1-0.4z"/>
				<path id="&lt;Path&gt;" class="s1" d="m122.1 453.9c0-16.4-3.2-32-9.1-46.3-8.8 6.9-19.9 11.1-31.9 11.1-28.7 0-51.9-23.3-51.9-51.9 0-10.7 3.2-20.7 8.8-28.9-12-3.9-24.7-6.1-38-6.1v244.3c67.4 0 122.1-54.7 122.1-122.2z"/>
				<path id="&lt;Path&gt;" class="s1" d="m1135.7 974.7c0-19.5-15.8-35.3-35.3-35.3-19.5 0-35.4 15.8-35.4 35.3 0 9.9 4.1 18.9 10.7 25.3h49.4c6.5-6.4 10.6-15.4 10.6-25.3z"/>
			</g>
		</g>
	</g>
	<g id="Object">
		<g id="&lt;Group&gt;">
			<path id="&lt;Path&gt;" class="s2" d="m307.9 749.8l-42.1-93.5c-7.6 3.3-14.5 8.3-20.1 14.8l-9 21.2 6.6 132.2 64.5-74.7z"/>
			<path id="&lt;Path&gt;" class="s3" d="m492.3 725.4l7.6-10.8 1.1-13.2c1.8-22.9 4.1-48.5 6.2-69l-77.8-84.8c-12.8 13.1-15.2 32.1-17 47-1.3 10.1-2.8 23.8-4.4 40.9-0.5 5.4-1 10.8-1.5 15.9h-117.8c-8.3 0-16.3 1.8-23.7 5.2l42.8 93.2h137.9c18.6 0 36-9.1 46.6-24.4z"/>
			<path id="&lt;Path&gt;" class="s4" d="m655.2 306.8l-3.2 3.7-127 223.2 50.9 92.3c6.5-2.9 11.1-7.1 16.1-12.8l3.2-3.6 127.8-224.7-51.7-90.8c-6.1 3.2-11.6 7.5-16.1 12.7z"/>
			<path id="&lt;Path&gt;" class="s5" d="m575.9 626l-50.9-92.3c-10.6 0.1-24.1 0-37.7-0.2l-38.2 2c-8.4 2.8-14.7 6.9-19.5 11.9l77.6 85c38.3 0.5 56.6-0.8 68.7-6.4z"/>
			<path id="&lt;Path&gt;" class="s6" d="m981.9 376.5c3.5-0.2 7-0.7 10.4-1.5l-28.5-96.4-267.6 8.6-0.6 0.1c-8.7 0.3-17.2 2.9-24.8 7l52.2 90.6 258.4-8.4z"/>
			<path id="&lt;Path&gt;" class="s7" d="m1169.2 125.1c-7.4 1.3-15.6 4.2-24.5 10-3.8 2.5-8.6 5.9-14.8 10.4-9.4 6.9-22.2 16.6-38 28.9-26.2 20.2-53.8 42.3-56.3 44.4l-71.8 59.8 28.5 96.4c8.6-2 16.8-6 23.6-11.6l82.5-68.8c10.9-8.9 76.4-60.9 76.4-60.9z"/>
			<path id="&lt;Path&gt;" class="s7" d=""/>
			<path id="&lt;Path&gt;" class="s8" d="m1174.4 234q0.2-0.2 0.4-0.3l159.4-1.7-43.8-109.6-111.6 2q-4.6-0.1-9.8 0.8z"/>
			<text id="Pre-architecture experience. Ear" style="transform: matrix(2,0,0,2,124.245,839.752)" >
				<tspan x="0" y="3.8" class="t9">Pre-architecture experience. </tspan>
				<tspan x="0" y="10" class="t9">Early internships, growing </tspan>
				<tspan x="0" y="16.3" class="t9">depth of experience and </tspan>
				<tspan x="0" y="22.5" class="t9">awareness
</tspan>
			</text>
			<text id="Mid-career and senior. Advanced " style="transform: matrix(2,0,0,2,871.016,679.787)" >
				<tspan x="0" y="3.8" class="t9">M</tspan><tspan  y="3.8" class="t9">i</tspan><tspan  y="3.8" class="t9">d</tspan><tspan  y="3.8" class="t9">-</tspan><tspan  y="3.8" class="t9">c</tspan><tspan  y="3.8" class="t9">a</tspan><tspan  y="3.8" class="t9">r</tspan><tspan  y="3.8" class="t9">e</tspan><tspan  y="3.8" class="t9">e</tspan><tspan  y="3.8" class="t9">r</tspan><tspan  y="3.8" class="t9"> </tspan><tspan  y="3.8" class="t9">a</tspan><tspan  y="3.8" class="t9">n</tspan><tspan  y="3.8" class="t9">d</tspan><tspan  y="3.8" class="t9"> </tspan><tspan  y="3.8" class="t9">s</tspan><tspan  y="3.8" class="t9">e</tspan><tspan  y="3.8" class="t9">n</tspan><tspan  y="3.8" class="t9">i</tspan><tspan  y="3.8" class="t9">o</tspan><tspan  y="3.8" class="t9">r</tspan><tspan  y="3.8" class="t9">.</tspan><tspan  y="3.8" class="t9"> </tspan>
				<tspan x="0" y="10" class="t9">A</tspan><tspan  y="10" class="t9">d</tspan><tspan  y="10" class="t9">v</tspan><tspan  y="10" class="t9">a</tspan><tspan  y="10" class="t9">n</tspan><tspan  y="10" class="t9">c</tspan><tspan  y="10" class="t9">e</tspan><tspan  y="10" class="t9">d</tspan><tspan  y="10" class="t9"> </tspan><tspan  y="10" class="t9">c</tspan><tspan  y="10" class="t9">a</tspan><tspan  y="10" class="t9">p</tspan><tspan  y="10" class="t9">a</tspan><tspan  y="10" class="t9">c</tspan><tspan  y="10" class="t9">i</tspan><tspan  y="10" class="t9">t</tspan><tspan  y="10" class="t9">y</tspan><tspan  y="10" class="t9"> </tspan><tspan  y="10" class="t9">f</tspan><tspan  y="10" class="t9">o</tspan><tspan  y="10" class="t9">r</tspan><tspan  y="10" class="t9"> </tspan>
				<tspan x="0" y="16.3" class="t9">d</tspan><tspan  y="16.3" class="t9">e</tspan><tspan  y="16.3" class="t9">l</tspan><tspan  y="16.3" class="t9">i</tspan><tspan  y="16.3" class="t9">v</tspan><tspan  y="16.3" class="t9">e</tspan><tspan  y="16.3" class="t9">e</tspan><tspan  y="16.3" class="t9">r</tspan><tspan  y="16.3" class="t9">y</tspan><tspan  y="16.3" class="t9">.</tspan><tspan  y="16.3" class="t9"> </tspan><tspan  y="16.3" class="t9">B</tspan><tspan  y="16.3" class="t9">o</tspan><tspan  y="16.3" class="t9">a</tspan><tspan  y="16.3" class="t9">r</tspan><tspan  y="16.3" class="t9">d</tspan><tspan  y="16.3" class="t9"> </tspan><tspan  y="16.3" class="t9">c</tspan><tspan  y="16.3" class="t9">e</tspan><tspan  y="16.3" class="t9">r</tspan><tspan  y="16.3" class="t9">t</tspan><tspan  y="16.3" class="t9">i</tspan><tspan  y="16.3" class="t9">f</tspan><tspan  y="16.3" class="t9">i</tspan><tspan  y="16.3" class="t9">e</tspan><tspan  y="16.3" class="t9">d</tspan><tspan  y="16.3" class="t9">.</tspan><tspan  y="16.3" class="t9"> </tspan>
				<tspan x="0" y="22.5" class="t9">A</tspan><tspan  y="22.5" class="t9">b</tspan><tspan  y="22.5" class="t9">l</tspan><tspan  y="22.5" class="t9">e</tspan><tspan  y="22.5" class="t9"> </tspan><tspan  y="22.5" class="t9">t</tspan><tspan  y="22.5" class="t9">o</tspan><tspan  y="22.5" class="t9"> </tspan><tspan  y="22.5" class="t9">w</tspan><tspan  y="22.5" class="t9">o</tspan><tspan  y="22.5" class="t9">r</tspan><tspan  y="22.5" class="t9">k</tspan><tspan  y="22.5" class="t9"> </tspan><tspan  y="22.5" class="t9">w</tspan><tspan  y="22.5" class="t9">i</tspan><tspan  y="22.5" class="t9">t</tspan><tspan  y="22.5" class="t9">h</tspan><tspan  y="22.5" class="t9">o</tspan><tspan  y="22.5" class="t9">u</tspan><tspan  y="22.5" class="t9">t</tspan><tspan  y="22.5" class="t9"> </tspan>
				<tspan x="0" y="28.7" class="t9">o</tspan><tspan  y="28.7" class="t9">v</tspan><tspan  y="28.7" class="t9">e</tspan><tspan  y="28.7" class="t9">r</tspan><tspan  y="28.7" class="t9">s</tspan><tspan  y="28.7" class="t9">i</tspan><tspan  y="28.7" class="t9">g</tspan><tspan  y="28.7" class="t9">h</tspan><tspan  y="28.7" class="t9">t</tspan><tspan  y="28.7" class="t9">.</tspan><tspan  y="28.7" class="t9"> </tspan><tspan  y="28.7" class="t9">
</tspan>
			</text>
			<text id="Pre-architecture experience. Ear" style="transform: matrix(2,0,0,2,306,428)" >
				<tspan x="0" y="3.8" class="t9">Pre-architecture experience. </tspan>
				<tspan x="0" y="10" class="t9">Early internships, growing </tspan>
				<tspan x="0" y="16.3" class="t9">depth of experience and </tspan>
				<tspan x="0" y="22.5" class="t9">awareness</tspan><tspan  y="22.5" class="t9">.</tspan><tspan  y="22.5" class="t9"> </tspan><tspan  y="22.5" class="t9">C</tspan><tspan  y="22.5" class="t9">o</tspan><tspan  y="22.5" class="t9">r</tspan><tspan  y="22.5" class="t9">e</tspan><tspan  y="22.5" class="t9"> </tspan><tspan  y="22.5" class="t9">l</tspan><tspan  y="22.5" class="t9">e</tspan><tspan  y="22.5" class="t9">a</tspan><tspan  y="22.5" class="t9">r</tspan><tspan  y="22.5" class="t9">n</tspan><tspan  y="22.5" class="t9">i</tspan><tspan  y="22.5" class="t9">n</tspan><tspan  y="22.5" class="t9">g</tspan><tspan  y="22.5" class="t9"> </tspan>
				<tspan x="0" y="28.7" class="t9">a</tspan><tspan  y="28.7" class="t9">n</tspan><tspan  y="28.7" class="t9">d</tspan><tspan  y="28.7" class="t9"> </tspan><tspan  y="28.7" class="t9">d</tspan><tspan  y="28.7" class="t9">e</tspan><tspan  y="28.7" class="t9">v</tspan><tspan  y="28.7" class="t9">e</tspan><tspan  y="28.7" class="t9">l</tspan><tspan  y="28.7" class="t9">o</tspan><tspan  y="28.7" class="t9">p</tspan><tspan  y="28.7" class="t9">m</tspan><tspan  y="28.7" class="t9">e</tspan><tspan  y="28.7" class="t9">n</tspan><tspan  y="28.7" class="t9">t</tspan><tspan  y="28.7" class="t9">.</tspan><tspan  y="28.7" class="t9"> </tspan><tspan  y="28.7" class="t9">
</tspan>
			</text>
			<text id="Early career learning and experi" style="transform: matrix(2,0,0,2,661.133,775.248)" >
				<tspan x="0" y="3.8" class="t9">E</tspan><tspan  y="3.8" class="t9">a</tspan><tspan  y="3.8" class="t9">r</tspan><tspan  y="3.8" class="t9">l</tspan><tspan  y="3.8" class="t9">y</tspan><tspan  y="3.8" class="t9"> </tspan><tspan  y="3.8" class="t9">c</tspan><tspan  y="3.8" class="t9">a</tspan><tspan  y="3.8" class="t9">r</tspan><tspan  y="3.8" class="t9">e</tspan><tspan  y="3.8" class="t9">e</tspan><tspan  y="3.8" class="t9">r</tspan><tspan  y="3.8" class="t9"> </tspan><tspan  y="3.8" class="t9">l</tspan><tspan  y="3.8" class="t9">e</tspan><tspan  y="3.8" class="t9">a</tspan><tspan  y="3.8" class="t9">r</tspan><tspan  y="3.8" class="t9">n</tspan><tspan  y="3.8" class="t9">i</tspan><tspan  y="3.8" class="t9">n</tspan><tspan  y="3.8" class="t9">g</tspan><tspan  y="3.8" class="t9"> </tspan><tspan  y="3.8" class="t9">a</tspan><tspan  y="3.8" class="t9">n</tspan><tspan  y="3.8" class="t9">d</tspan><tspan  y="3.8" class="t9"> </tspan>
				<tspan x="0" y="10" class="t9">e</tspan><tspan  y="10" class="t9">x</tspan><tspan  y="10" class="t9">p</tspan><tspan  y="10" class="t9">e</tspan><tspan  y="10" class="t9">r</tspan><tspan  y="10" class="t9">i</tspan><tspan  y="10" class="t9">e</tspan><tspan  y="10" class="t9">n</tspan><tspan  y="10" class="t9">c</tspan><tspan  y="10" class="t9">e</tspan><tspan  y="10" class="t9">.</tspan><tspan  y="10" class="t9"> </tspan><tspan  y="10" class="t9">M</tspan><tspan  y="10" class="t9">a</tspan><tspan  y="10" class="t9">n</tspan><tspan  y="10" class="t9">a</tspan><tspan  y="10" class="t9">g</tspan><tspan  y="10" class="t9">e</tspan><tspan  y="10" class="t9">d</tspan><tspan  y="10" class="t9"> </tspan>
				<tspan x="0" y="16.3" class="t9">m</tspan><tspan  y="16.3" class="t9">e</tspan><tspan  y="16.3" class="t9">n</tspan><tspan  y="16.3" class="t9">t</tspan><tspan  y="16.3" class="t9">o</tspan><tspan  y="16.3" class="t9">r</tspan><tspan  y="16.3" class="t9">i</tspan><tspan  y="16.3" class="t9">n</tspan><tspan  y="16.3" class="t9">g</tspan><tspan  y="16.3" class="t9">,</tspan><tspan  y="16.3" class="t9"> </tspan><tspan  y="16.3" class="t9">s</tspan><tspan  y="16.3" class="t9">p</tspan><tspan  y="16.3" class="t9">e</tspan><tspan  y="16.3" class="t9">c</tspan><tspan  y="16.3" class="t9">i</tspan><tspan  y="16.3" class="t9">a</tspan><tspan  y="16.3" class="t9">l</tspan><tspan  y="16.3" class="t9">i</tspan><tspan  y="16.3" class="t9">z</tspan><tspan  y="16.3" class="t9">a</tspan><tspan  y="16.3" class="t9">t</tspan><tspan  y="16.3" class="t9">i</tspan><tspan  y="16.3" class="t9">o</tspan><tspan  y="16.3" class="t9">n</tspan><tspan  y="16.3" class="t9"> </tspan>
				<tspan x="0" y="22.5" class="t9">a</tspan><tspan  y="22.5" class="t9">n</tspan><tspan  y="22.5" class="t9">d</tspan><tspan  y="22.5" class="t9"> </tspan><tspan  y="22.5" class="t9">d</tspan><tspan  y="22.5" class="t9">e</tspan><tspan  y="22.5" class="t9">e</tspan><tspan  y="22.5" class="t9">p</tspan><tspan  y="22.5" class="t9"> </tspan><tspan  y="22.5" class="t9">s</tspan><tspan  y="22.5" class="t9">t</tspan><tspan  y="22.5" class="t9">u</tspan><tspan  y="22.5" class="t9">d</tspan><tspan  y="22.5" class="t9">y</tspan><tspan  y="22.5" class="t9">.</tspan><tspan  y="22.5" class="t9"> </tspan><tspan  y="22.5" class="t9">B</tspan><tspan  y="22.5" class="t9">e</tspan><tspan  y="22.5" class="t9">g</tspan><tspan  y="22.5" class="t9">i</tspan><tspan  y="22.5" class="t9">n</tspan><tspan  y="22.5" class="t9">n</tspan><tspan  y="22.5" class="t9">i</tspan><tspan  y="22.5" class="t9">n</tspan><tspan  y="22.5" class="t9">g</tspan><tspan  y="22.5" class="t9"> </tspan>
				<tspan x="0" y="28.7" class="t9">t</tspan><tspan  y="28.7" class="t9">o</tspan><tspan  y="28.7" class="t9"> </tspan><tspan  y="28.7" class="t9">e</tspan><tspan  y="28.7" class="t9">m</tspan><tspan  y="28.7" class="t9">e</tspan><tspan  y="28.7" class="t9">r</tspan><tspan  y="28.7" class="t9">g</tspan><tspan  y="28.7" class="t9">e</tspan><tspan  y="28.7" class="t9"> </tspan><tspan  y="28.7" class="t9">a</tspan><tspan  y="28.7" class="t9">s</tspan><tspan  y="28.7" class="t9"> </tspan><tspan  y="28.7" class="t9">a</tspan><tspan  y="28.7" class="t9">n</tspan><tspan  y="28.7" class="t9"> </tspan>
				<tspan x="0" y="34.9" class="t9">i</tspan><tspan  y="34.9" class="t9">n</tspan><tspan  y="34.9" class="t9">d</tspan><tspan  y="34.9" class="t9">e</tspan><tspan  y="34.9" class="t9">p</tspan><tspan  y="34.9" class="t9">e</tspan><tspan  y="34.9" class="t9">n</tspan><tspan  y="34.9" class="t9">d</tspan><tspan  y="34.9" class="t9">e</tspan><tspan  y="34.9" class="t9">n</tspan><tspan  y="34.9" class="t9">t</tspan><tspan  y="34.9" class="t9"> </tspan><tspan  y="34.9" class="t9">a</tspan><tspan  y="34.9" class="t9">r</tspan><tspan  y="34.9" class="t9">c</tspan><tspan  y="34.9" class="t9">h</tspan><tspan  y="34.9" class="t9">i</tspan><tspan  y="34.9" class="t9">t</tspan><tspan  y="34.9" class="t9">e</tspan><tspan  y="34.9" class="t9">c</tspan><tspan  y="34.9" class="t9">t</tspan><tspan  y="34.9" class="t9">.</tspan><tspan  y="34.9" class="t9"> </tspan><tspan  y="34.9" class="t9">
</tspan>
			</text>
			<text id="Deepest, most complex and most s" style="transform: matrix(2,0,0,2,1053,518)" >
				<tspan x="0" y="3.8" class="t9">D</tspan><tspan  y="3.8" class="t9">e</tspan><tspan  y="3.8" class="t9">e</tspan><tspan  y="3.8" class="t9">p</tspan><tspan  y="3.8" class="t9">e</tspan><tspan  y="3.8" class="t9">s</tspan><tspan  y="3.8" class="t9">t</tspan><tspan  y="3.8" class="t9">,</tspan><tspan  y="3.8" class="t9"> </tspan><tspan  y="3.8" class="t9">m</tspan><tspan  y="3.8" class="t9">o</tspan><tspan  y="3.8" class="t9">s</tspan><tspan  y="3.8" class="t9">t</tspan><tspan  y="3.8" class="t9"> </tspan><tspan  y="3.8" class="t9">c</tspan><tspan  y="3.8" class="t9">o</tspan><tspan  y="3.8" class="t9">m</tspan><tspan  y="3.8" class="t9">p</tspan><tspan  y="3.8" class="t9">l</tspan><tspan  y="3.8" class="t9">e</tspan><tspan  y="3.8" class="t9">x</tspan><tspan  y="3.8" class="t9"> </tspan><tspan  y="3.8" class="t9">a</tspan><tspan  y="3.8" class="t9">n</tspan><tspan  y="3.8" class="t9">d</tspan><tspan  y="3.8" class="t9"> </tspan>
				<tspan x="0" y="10" class="t9">m</tspan><tspan  y="10" class="t9">o</tspan><tspan  y="10" class="t9">s</tspan><tspan  y="10" class="t9">t</tspan><tspan  y="10" class="t9"> </tspan><tspan  y="10" class="t9">specialized problems</tspan><tspan  y="10" class="t9">.</tspan><tspan  y="10" class="t9"> </tspan>
				<tspan x="0" y="16.3" class="t9">G</tspan><tspan  y="16.3" class="t9">i</tspan><tspan  y="16.3" class="t9">v</tspan><tspan  y="16.3" class="t9">i</tspan><tspan  y="16.3" class="t9">n</tspan><tspan  y="16.3" class="t9">g</tspan><tspan  y="16.3" class="t9"> </tspan><tspan  y="16.3" class="t9">b</tspan><tspan  y="16.3" class="t9">a</tspan><tspan  y="16.3" class="t9">c</tspan><tspan  y="16.3" class="t9">k</tspan><tspan  y="16.3" class="t9"> </tspan><tspan  y="16.3" class="t9">t</tspan><tspan  y="16.3" class="t9">o</tspan><tspan  y="16.3" class="t9"> </tspan><tspan  y="16.3" class="t9">p</tspan><tspan  y="16.3" class="t9">r</tspan><tspan  y="16.3" class="t9">o</tspan><tspan  y="16.3" class="t9">f</tspan><tspan  y="16.3" class="t9">e</tspan><tspan  y="16.3" class="t9">s</tspan><tspan  y="16.3" class="t9">s</tspan><tspan  y="16.3" class="t9">i</tspan><tspan  y="16.3" class="t9">o</tspan><tspan  y="16.3" class="t9">n</tspan><tspan  y="16.3" class="t9">.</tspan><tspan  y="16.3" class="t9"> </tspan>
				<tspan x="0" y="22.5" class="t9">L</tspan><tspan  y="22.5" class="t9">e</tspan><tspan  y="22.5" class="t9">a</tspan><tspan  y="22.5" class="t9">d</tspan><tspan  y="22.5" class="t9">i</tspan><tspan  y="22.5" class="t9">n</tspan><tspan  y="22.5" class="t9">g</tspan><tspan  y="22.5" class="t9"> </tspan><tspan  y="22.5" class="t9">p</tspan><tspan  y="22.5" class="t9">r</tspan><tspan  y="22.5" class="t9">a</tspan><tspan  y="22.5" class="t9">c</tspan><tspan  y="22.5" class="t9">t</tspan><tspan  y="22.5" class="t9">i</tspan><tspan  y="22.5" class="t9">c</tspan><tspan  y="22.5" class="t9">e</tspan><tspan  y="22.5" class="t9">s</tspan><tspan  y="22.5" class="t9">.</tspan><tspan  y="22.5" class="t9"> </tspan><tspan  y="22.5" class="t9">
</tspan>
			</text>
			<text id="Leaders of architecture practice" style="transform: matrix(2,0,0,2,1278.178,463.791)" >
				<tspan x="0" y="3.8" class="t9">L</tspan><tspan  y="3.8" class="t9">e</tspan><tspan  y="3.8" class="t9">a</tspan><tspan  y="3.8" class="t9">d</tspan><tspan  y="3.8" class="t9">e</tspan><tspan  y="3.8" class="t9">r</tspan><tspan  y="3.8" class="t9">s</tspan><tspan  y="3.8" class="t9"> </tspan><tspan  y="3.8" class="t9">o</tspan><tspan  y="3.8" class="t9">f</tspan><tspan  y="3.8" class="t9"> </tspan><tspan  y="3.8" class="t9">a</tspan><tspan  y="3.8" class="t9">r</tspan><tspan  y="3.8" class="t9">c</tspan><tspan  y="3.8" class="t9">h</tspan><tspan  y="3.8" class="t9">i</tspan><tspan  y="3.8" class="t9">t</tspan><tspan  y="3.8" class="t9">e</tspan><tspan  y="3.8" class="t9">c</tspan><tspan  y="3.8" class="t9">t</tspan><tspan  y="3.8" class="t9">u</tspan><tspan  y="3.8" class="t9">r</tspan><tspan  y="3.8" class="t9">e</tspan><tspan  y="3.8" class="t9"> </tspan>
				<tspan x="0" y="10" class="t9">p</tspan><tspan  y="10" class="t9">r</tspan><tspan  y="10" class="t9">a</tspan><tspan  y="10" class="t9">c</tspan><tspan  y="10" class="t9">t</tspan><tspan  y="10" class="t9">i</tspan><tspan  y="10" class="t9">c</tspan><tspan  y="10" class="t9">e</tspan><tspan  y="10" class="t9">,</tspan><tspan  y="10" class="t9"> </tspan><tspan  y="10" class="t9">l</tspan><tspan  y="10" class="t9">a</tspan><tspan  y="10" class="t9">r</tspan><tspan  y="10" class="t9">g</tspan><tspan  y="10" class="t9">e</tspan><tspan  y="10" class="t9">s</tspan><tspan  y="10" class="t9">t</tspan><tspan  y="10" class="t9"> </tspan><tspan  y="10" class="t9">m</tspan><tspan  y="10" class="t9">o</tspan><tspan  y="10" class="t9">s</tspan><tspan  y="10" class="t9">t</tspan><tspan  y="10" class="t9"> </tspan>
				<tspan x="0" y="16.3" class="t9">c</tspan><tspan  y="16.3" class="t9">o</tspan><tspan  y="16.3" class="t9">m</tspan><tspan  y="16.3" class="t9">p</tspan><tspan  y="16.3" class="t9">l</tspan><tspan  y="16.3" class="t9">e</tspan><tspan  y="16.3" class="t9">x</tspan><tspan  y="16.3" class="t9"> </tspan><tspan  y="16.3" class="t9">i</tspan><tspan  y="16.3" class="t9">n</tspan><tspan  y="16.3" class="t9">d</tspan><tspan  y="16.3" class="t9">u</tspan><tspan  y="16.3" class="t9">s</tspan><tspan  y="16.3" class="t9">t</tspan><tspan  y="16.3" class="t9">r</tspan><tspan  y="16.3" class="t9">y</tspan><tspan  y="16.3" class="t9"> </tspan><tspan  y="16.3" class="t9">p</tspan><tspan  y="16.3" class="t9">r</tspan><tspan  y="16.3" class="t9">o</tspan><tspan  y="16.3" class="t9">b</tspan><tspan  y="16.3" class="t9">l</tspan><tspan  y="16.3" class="t9">e</tspan><tspan  y="16.3" class="t9">m</tspan><tspan  y="16.3" class="t9">s</tspan><tspan  y="16.3" class="t9">,</tspan><tspan  y="16.3" class="t9"> </tspan>
				<tspan x="0" y="22.5" class="t9">o</tspan><tspan  y="22.5" class="t9">w</tspan><tspan  y="22.5" class="t9">n</tspan><tspan  y="22.5" class="t9"> </tspan><tspan  y="22.5" class="t9">t</tspan><tspan  y="22.5" class="t9">h</tspan><tspan  y="22.5" class="t9">e</tspan><tspan  y="22.5" class="t9"> </tspan><tspan  y="22.5" class="t9">n</tspan><tspan  y="22.5" class="t9">e</tspan><tspan  y="22.5" class="t9">x</tspan><tspan  y="22.5" class="t9">t</tspan><tspan  y="22.5" class="t9"> </tspan><tspan  y="22.5" class="t9">g</tspan><tspan  y="22.5" class="t9">e</tspan><tspan  y="22.5" class="t9">n</tspan><tspan  y="22.5" class="t9">e</tspan><tspan  y="22.5" class="t9">r</tspan><tspan  y="22.5" class="t9">a</tspan><tspan  y="22.5" class="t9">t</tspan><tspan  y="22.5" class="t9">i</tspan><tspan  y="22.5" class="t9">o</tspan><tspan  y="22.5" class="t9">n</tspan><tspan  y="22.5" class="t9"> </tspan>
				<tspan x="0" y="28.7" class="t9">a</tspan><tspan  y="28.7" class="t9">r</tspan><tspan  y="28.7" class="t9">c</tspan><tspan  y="28.7" class="t9">h</tspan><tspan  y="28.7" class="t9">i</tspan><tspan  y="28.7" class="t9">t</tspan><tspan  y="28.7" class="t9">e</tspan><tspan  y="28.7" class="t9">c</tspan><tspan  y="28.7" class="t9">t</tspan><tspan  y="28.7" class="t9">u</tspan><tspan  y="28.7" class="t9">r</tspan><tspan  y="28.7" class="t9">e</tspan><tspan  y="28.7" class="t9"> </tspan><tspan  y="28.7" class="t9">p</tspan><tspan  y="28.7" class="t9">r</tspan><tspan  y="28.7" class="t9">o</tspan><tspan  y="28.7" class="t9">f</tspan><tspan  y="28.7" class="t9">e</tspan><tspan  y="28.7" class="t9">s</tspan><tspan  y="28.7" class="t9">s</tspan><tspan  y="28.7" class="t9">i</tspan><tspan  y="28.7" class="t9">o</tspan><tspan  y="28.7" class="t9">n</tspan><tspan  y="28.7" class="t9">
</tspan>
			</text>
			<g id="&lt;Group&gt;">
				<path id="&lt;Path&gt;" class="s2" d="m72.6 831.3l14 13.9c2.1 2.1 5.5 2.1 7.6 0l14-13.9c2.1-2.1 2.1-5.5 0-7.6l-14-34.9c-2.1-2.1-5.5-2.1-7.6 0l-14 34.9c-2.1 2.1-2.1 5.5 0 7.6z"/>
				<path id="&lt;Path&gt;" class="s10" d="m87 788.5l-0.9 1.6-13.5 33.6c-1.5 1.5-1.9 3.8-1.2 5.7h11.1l7.4 17.3c0.2 0 0.3 0.1 0.5 0.1v-59.6c-1.2 0-2.4 0.5-3.4 1.3z"/>
			</g>
			<g id="&lt;Group&gt;">
			</g>
			<g id="&lt;Group&gt;">
				<path id="&lt;Path&gt;" class="s10" d="m255.8 434.4l14 14c2.1 2.1 5.5 2.1 7.6 0l14-14c2.1-2.1 2.1-5.5 0-7.6l-14-34.8c-2.1-2.1-5.5-2.1-7.6 0l-14 34.8c-2.1 2.1-2.1 5.5 0 7.6z"/>
				<path id="&lt;Path&gt;" class="s11" d="m270.2 391.7l-0.9 1.6-13.5 33.5c-1.5 1.6-1.9 3.9-1.2 5.8h11.1l7.4 17.3c0.2 0 0.3 0.1 0.5 0.1v-59.6c-1.2 0-2.4 0.5-3.4 1.3z"/>
			</g>
			<g id="&lt;Group&gt;">
				<path id="&lt;Path&gt;" class="s4" d="m612.5 775.9l13.9 14c2.1 2.1 5.5 2.1 7.6 0l14-14c2.1-2.1 2.1-5.5 0-7.5l-14-34.9c-2.1-2.1-5.5-2.1-7.6 0l-13.9 34.9c-2.1 2-2.1 5.4 0 7.5z"/>
				<path id="&lt;Path&gt;" class="s12" d="m626.8 733.2l-0.9 1.6-13.4 33.6c-1.6 1.5-2 3.8-1.2 5.7h11l7.4 17.3c0.2 0 0.4 0.1 0.5 0.1v-59.6c-1.2 0-2.4 0.5-3.4 1.3z"/>
			</g>
			<g id="&lt;Group&gt;">
				<path id="&lt;Path&gt;" class="s7" d="m1005.6 532.5l14 14c2.1 2.1 5.5 2.1 7.6 0l14-14c2.1-2.1 2.1-5.5 0-7.6l-14-34.8c-2.1-2.1-5.5-2.1-7.6 0l-14 34.8c-2.1 2.1-2.1 5.5 0 7.6z"/>
				<path id="&lt;Path&gt;" class="s13" d="m1020 489.8l-0.9 1.6-13.5 33.5c-1.5 1.6-1.9 3.9-1.2 5.8h11.1l7.4 17.3c0.2 0 0.3 0.1 0.5 0.1v-59.6c-1.2 0-2.4 0.5-3.4 1.3z"/>
			</g>
			<g id="&lt;Group&gt;">
				<path id="&lt;Path&gt;" class="s14" d="m1231.1 471.4l14 14c2.1 2.1 5.5 2.1 7.6 0l14-14c2.1-2.1 2.1-5.5 0-7.6l-14-34.8c-2.1-2.1-5.5-2.1-7.6 0l-14 34.8c-2 2.1-2 5.5 0 7.6z"/>
				<path id="&lt;Path&gt;" class="s15" d="m1245.5 428.7l-0.9 1.6-13.5 33.5c-1.5 1.6-1.9 3.9-1.1 5.8h11l7.4 17.3c0.2 0 0.3 0.1 0.5 0.1v-59.6c-1.2 0-2.4 0.5-3.4 1.3z"/>
			</g>
			<g id="&lt;Group&gt;">
				<path id="&lt;Path&gt;" class="s6" d="m823.6 684.5l14 14c2.1 2.1 5.5 2.1 7.6 0l14-14c2.1-2.1 2.1-5.5 0-7.6l-14-34.8c-2.1-2.1-5.5-2.1-7.6 0l-14 34.8c-2.1 2.1-2.1 5.5 0 7.6z"/>
				<path id="&lt;Path&gt;" class="s16" d="m838 641.8l-0.9 1.6-13.5 33.5c-1.5 1.6-1.9 3.9-1.1 5.8h11l7.4 17.3c0.2 0 0.3 0.1 0.5 0.1v-59.6c-1.2 0-2.4 0.5-3.4 1.3z"/>
			</g>
			<g id="&lt;Group&gt;">
				<path id="&lt;Path&gt;" class="s10" d="m274.9 654.1h-2.6v-133.8h2.6z"/>
			</g>
			<g id="&lt;Group&gt;">
				<path id="&lt;Path&gt;" class="s4" d="m631.5 712.9h-2.6v-176.5h2.6z"/>
			</g>
			<g id="&lt;Group&gt;">
				<path id="&lt;Path&gt;" class="s17" d="m1024.7 480.4h-2.6v-136.5h2.6z"/>
			</g>
			<g id="&lt;Group&gt;">
				<path id="&lt;Path&gt;" class="s6" d="m842.7 631h-2.6v-250h2.6z"/>
			</g>
			<g id="&lt;Group&gt;">
				<g id="&lt;Group&gt;">
					<path id="&lt;Path&gt;" class="s18" d="m311 634.5h-16.8v-16.7h16.8z"/>
					<path id="&lt;Path&gt;" class="s18" d="m311 642.8v-33.6l17.2 17.3z"/>
					<path id="&lt;Path&gt;" class="s19" d="m311 617.8l-5.5 16.7h5.5z"/>
				</g>
				<path id="&lt;Path&gt;" class="s18" d="m292.2 634.5h-4.6v-16.7h4.6z"/>
			</g>
			<g id="&lt;Group&gt;">
				<g id="&lt;Group&gt;">
					<path id="&lt;Path&gt;" class="s18" d="m553.9 681.5h-16.7v-16.7h16.7z"/>
					<path id="&lt;Path&gt;" class="s18" d="m553.9 689.8v-33.5l17.3 17.2z"/>
					<path id="&lt;Path&gt;" class="s19" d="m553.9 664.8l-5.4 16.7h5.4z"/>
				</g>
				<path id="&lt;Path&gt;" class="s18" d="m535.2 681.5h-4.6v-16.7h4.6z"/>
			</g>
			<g id="&lt;Group&gt;">
				<g id="&lt;Group&gt;">
					<path id="&lt;Path&gt;" class="s18" d="m756.4 414h-16.8v-16.7h16.8z"/>
					<path id="&lt;Path&gt;" class="s18" d="m756.4 422.3v-33.5l17.2 17.2z"/>
					<path id="&lt;Path&gt;" class="s19" d="m756.4 397.3l-5.5 16.7h5.5z"/>
				</g>
				<path id="&lt;Path&gt;" class="s18" d="m737.7 414h-4.7v-16.7h4.7z"/>
			</g>
			<g id="&lt;Group&gt;">
				<g id="&lt;Group&gt;">
					<path id="&lt;Path&gt;" class="s18" d="m720.8 267.5h-16.7v-16.7h16.7z"/>
					<path id="&lt;Path&gt;" class="s18" d="m720.8 275.9v-33.6l17.3 17.2z"/>
					<path id="&lt;Path&gt;" class="s19" d="m720.8 250.8l-5.4 16.7h5.4z"/>
				</g>
				<path id="&lt;Path&gt;" class="s18" d="m702.1 267.5h-4.6v-16.7h4.6z"/>
			</g>
			<g id="&lt;Group&gt;">
				<g id="&lt;Group&gt;">
					<path id="&lt;Path&gt;" class="s18" d="m1254.6 95.3h-16.7v-16.8h16.7z"/>
					<path id="&lt;Path&gt;" class="s18" d="m1254.6 103.6v-33.6l17.3 17.3z"/>
					<path id="&lt;Path&gt;" class="s19" d="m1254.6 78.5l-5.4 16.8h5.4z"/>
				</g>
				<path id="&lt;Path&gt;" class="s18" d="m1235.9 95.3h-4.6v-16.8h4.6z"/>
			</g>
			<g id="&lt;Group&gt;">
				<g id="&lt;Group&gt;">
					<path id="&lt;Path&gt;" class="s18" d="m534.1 475.4l-7.6 14.9-14.9-7.6 7.7-14.9z"/>
					<path id="&lt;Path&gt;" class="s18" d="m541.5 479.2l-29.8-15.3 23.2-7.5z"/>
					<path id="&lt;Path&gt;" class="s19" d="m519.3 467.8l12.3 12.5 2.5-4.9z"/>
				</g>
				<path id="&lt;Path&gt;" class="s18" d="m525.6 492.1l-2.2 4.1-14.8-7.6 2.1-4.2z"/>
			</g>
			<g id="&lt;Group&gt;">
				<g id="&lt;Group&gt;">
					<path id="&lt;Path&gt;" class="s18" d="m1056 180.6l-13 10.6-10.5-13 12.9-10.5z"/>
					<path id="&lt;Path&gt;" class="s18" d="m1061.2 187.1l-21.2-26.1 24.3 2.5z"/>
					<path id="&lt;Path&gt;" class="s19" d="m1045.4 167.7l6.4 16.3 4.2-3.4z"/>
				</g>
				<path id="&lt;Path&gt;" class="s18" d="m1041.5 192.4l-3.6 3-10.6-13 3.6-2.9z"/>
			</g>
			<g id="&lt;Group&gt;">
				<path id="&lt;Path&gt;" class="s20" d="m243 790.8l-2.8-2.7 57.6-60.8h0.8l155.7-3.3c7.7-6.4 26.6-23.2 29.2-31.8l8.4-81.2 69.2-7.5 148.4-242.2 1-0.1 273.2-14.8 188.2-150.7h147.7l1.6 3.8h-147.9l-188.1 150.8h-0.7l-272.8 14.8-148.2 242-68.1 7.4-8.1 78.5c-3.6 12-30 33.5-31.1 34.4l-0.5 0.4-156.2 3.4z"/>
			</g>
			<text id="1
" style="transform: matrix(2,0,0,2,76.088,912.153)" >
				<tspan x="0" y="0" class="t21">1
</tspan>
			</text>
			<text id="2
" style="transform: matrix(2,0,0,2,257.618,508.946)" >
				<tspan x="0" y="0" class="t21">2
</tspan>
			</text>
			<text id="4
" style="transform: matrix(2,0,0,2,610.883,849.692)" >
				<tspan x="0" y="0" class="t21">4
</tspan>
			</text>
			<text id="5
" style="transform: matrix(2,0,0,2,826.69,763.719)" >
				<tspan x="0" y="0" class="t21">5
</tspan>
			</text>
			<text id="6
" style="transform: matrix(2,0,0,2,1005.747,611.801)" >
				<tspan x="0" y="0" class="t21">6
</tspan>
			</text>
			<g id="&lt;Group&gt;">
				<path id="&lt;Path&gt;" class="s1" d="m1250.2 411.1h-2.6v-184.1h2.6z"/>
			</g>
			<text id="7
" style="transform: matrix(2,0,0,2,1235.266,553.6)" >
				<tspan x="0" y="0" class="t21">7
</tspan>
			</text>
			<text id="Aspiring" style="transform: matrix(2,0,0,2,122.898,824.524)" >
				<tspan x="0" y="0" class="t22">A</tspan><tspan  y="0" class="t22">s</tspan><tspan  y="0" class="t22">p</tspan><tspan  y="0" class="t22">i</tspan><tspan  y="0" class="t22">r</tspan><tspan  y="0" class="t22">i</tspan><tspan  y="0" class="t22">n</tspan><tspan  y="0" class="t22">g
</tspan>
			</text>
			<text id="Professional" style="transform: matrix(2,0,0,2,871.018,663.826)" >
				<tspan x="0" y="0" class="t22">P</tspan><tspan  y="0" class="t22">r</tspan><tspan  y="0" class="t22">o</tspan><tspan  y="0" class="t22">f</tspan><tspan  y="0" class="t22">e</tspan><tspan  y="0" class="t22">s</tspan><tspan  y="0" class="t22">s</tspan><tspan  y="0" class="t22">i</tspan><tspan  y="0" class="t22">o</tspan><tspan  y="0" class="t22">n</tspan><tspan  y="0" class="t22">a</tspan><tspan  y="0" class="t22">l
</tspan>
			</text>
			<text id="A Career Path for Architects" style="transform: matrix(2,0,0,2,1112.834,717.094)" >
				<tspan x="0" y="0" class="t22">A</tspan><tspan  y="0" class="t22"> </tspan><tspan  y="0" class="t22">C</tspan><tspan  y="0" class="t22">a</tspan><tspan  y="0" class="t22">r</tspan><tspan  y="0" class="t22">e</tspan><tspan  y="0" class="t22">e</tspan><tspan  y="0" class="t22">r</tspan><tspan  y="0" class="t22"> </tspan><tspan  y="0" class="t22">P</tspan><tspan  y="0" class="t22">a</tspan><tspan  y="0" class="t22">t</tspan><tspan  y="0" class="t22">h</tspan><tspan  y="0" class="t22"> </tspan><tspan  y="0" class="t22">f</tspan><tspan  y="0" class="t22">o</tspan><tspan  y="0" class="t22">r</tspan><tspan  y="0" class="t22"> </tspan><tspan  y="0" class="t22">A</tspan><tspan  y="0" class="t22">r</tspan><tspan  y="0" class="t22">c</tspan><tspan  y="0" class="t22">h</tspan><tspan  y="0" class="t22">i</tspan><tspan  y="0" class="t22">t</tspan><tspan  y="0" class="t22">e</tspan><tspan  y="0" class="t22">c</tspan><tspan  y="0" class="t22">t</tspan><tspan  y="0" class="t22">s
</tspan>
			</text>
			<text id="Distinguished" style="transform: matrix(2,0,0,2,1054.293,505.266)" >
				<tspan x="0" y="0" class="t22">D</tspan><tspan  y="0" class="t22">i</tspan><tspan  y="0" class="t22">s</tspan><tspan  y="0" class="t22">t</tspan><tspan  y="0" class="t22">i</tspan><tspan  y="0" class="t22">n</tspan><tspan  y="0" class="t22">g</tspan><tspan  y="0" class="t22">u</tspan><tspan  y="0" class="t22">i</tspan><tspan  y="0" class="t22">s</tspan><tspan  y="0" class="t22">h</tspan><tspan  y="0" class="t22">e</tspan><tspan  y="0" class="t22">d</tspan><tspan  y="0" class="t22">
</tspan>
			</text>
			<text id="Chief" style="transform: matrix(2,0,0,2,1278.176,449.678)" >
				<tspan x="0" y="0" class="t22">C</tspan><tspan  y="0" class="t22">h</tspan><tspan  y="0" class="t22">i</tspan><tspan  y="0" class="t22">e</tspan><tspan  y="0" class="t22">f
</tspan>
			</text>
			<text id="Foundations" style="transform: matrix(2,0,0,2,306.211,416.325)" >
				<tspan x="0" y="0" class="t22">F</tspan><tspan  y="0" class="t22">o</tspan><tspan  y="0" class="t22">u</tspan><tspan  y="0" class="t22">n</tspan><tspan  y="0" class="t22">d</tspan><tspan  y="0" class="t22">a</tspan><tspan  y="0" class="t22">t</tspan><tspan  y="0" class="t22">i</tspan><tspan  y="0" class="t22">o</tspan><tspan  y="0" class="t22">n</tspan><tspan  y="0" class="t22">s
</tspan>
			</text>
			<text id="Associate " style="transform: matrix(2,0,0,2,661.137,761.903)" >
				<tspan x="0" y="0" class="t22">A</tspan><tspan  y="0" class="t22">s</tspan><tspan  y="0" class="t22">s</tspan><tspan  y="0" class="t22">o</tspan><tspan  y="0" class="t22">c</tspan><tspan  y="0" class="t22">i</tspan><tspan  y="0" class="t22">a</tspan><tspan  y="0" class="t22">t</tspan><tspan  y="0" class="t22">e</tspan><tspan  y="0" class="t22">
</tspan>
			</text>
			<text id="CAREER PATH INFOGRAPHIC" style="transform: matrix(2,0,0,2,83.918,146.748)" >
				<tspan x="0" y="0" class="t23">C</tspan><tspan  y="0" class="t23">A</tspan><tspan  y="0" class="t23">R</tspan><tspan  y="0" class="t23">E</tspan><tspan  y="0" class="t23">E</tspan><tspan  y="0" class="t23">R</tspan><tspan  y="0" class="t23"> </tspan><tspan  y="0" class="t23">P</tspan><tspan  y="0" class="t23">A</tspan><tspan  y="0" class="t23">T</tspan><tspan  y="0" class="t23">H</tspan><tspan  y="0" class="t23"> INFOGRAPHIC
</tspan>
			</text>
			<g id="&lt;Group&gt;">
			</g>
			<path id="&lt;Path&gt;" class="s2" d="m226 731.9c0 32.1-26 58.2-58.1 58.2-32.1 0-58.2-26.1-58.2-58.2 0-32.1 26.1-58.1 58.2-58.1 32.1 0 58.1 26 58.1 58.1z"/>
			<path id="&lt;Path&gt;" class="s10" d="m410.6 319.9c0 32.1-26 58.1-58.1 58.1-32.2 0-58.2-26-58.2-58.1 0-32.1 26-58.2 58.2-58.2 32.1 0 58.1 26.1 58.1 58.2z"/>
			<path id="&lt;Path&gt;" class="s24" d="m620.5 137.5c0 32.1-26.1 58.2-58.2 58.2-32.1 0-58.1-26.1-58.1-58.2 0-32.1 26-58.1 58.1-58.1 32.1 0 58.2 26 58.2 58.1z"/>
			<path id="&lt;Path&gt;" class="s4" d="m781.1 673.8c0 32.1-26 58.1-58.1 58.1-32.2 0-58.2-26-58.2-58.1 0-32.1 26-58.2 58.2-58.2 32.1 0 58.1 26.1 58.1 58.2z"/>
			<path id="&lt;Path&gt;" class="s4" d="m811.2 611.8c0 12.6-10.1 22.8-22.7 22.8-12.6 0-22.8-10.2-22.8-22.8 0-12.6 10.2-22.8 22.8-22.8 12.6 0 22.7 10.2 22.7 22.8z"/>
			<path id="&lt;Path&gt;" class="s6" d="m1006.9 482c0 12.6-10.2 22.8-22.8 22.8-12.5 0-22.7-10.2-22.7-22.8 0-12.6 10.2-22.8 22.7-22.8 12.6 0 22.8 10.2 22.8 22.8z"/>
			<path id="&lt;Path&gt;" class="s24" d="m709.2 137.5c0 12.6-10.2 22.8-22.8 22.8-12.5 0-22.7-10.2-22.7-22.8 0-12.6 10.2-22.8 22.7-22.8 12.6 0 22.8 10.2 22.8 22.8z"/>
			<path id="&lt;Path&gt;" class="s10" d="m433.4 236.3c0 12.6-10.2 22.8-22.8 22.8-12.6 0-22.7-10.2-22.7-22.8 0-12.6 10.1-22.7 22.7-22.7 12.6 0 22.8 10.1 22.8 22.7z"/>
			<path id="&lt;Path&gt;" class="s2" d="m240.3 648.7c0 12.6-10.2 22.8-22.7 22.8-12.6 0-22.8-10.2-22.8-22.8 0-12.6 10.2-22.8 22.8-22.8 12.5 0 22.7 10.2 22.7 22.8z"/>
			<path id="&lt;Path&gt;" class="s2" d="m182.1 648.7c0 5.8-4.7 10.6-10.6 10.6-5.8 0-10.6-4.8-10.6-10.6 0-5.9 4.8-10.6 10.6-10.6 5.9 0 10.6 4.7 10.6 10.6z"/>
			<path id="&lt;Path&gt;" class="s10" d="m371.2 241.6c0 5.9-4.7 10.6-10.6 10.6-5.8 0-10.6-4.7-10.6-10.6 0-5.8 4.8-10.6 10.6-10.6 5.9 0 10.6 4.8 10.6 10.6z"/>
			<path id="&lt;Path&gt;" class="s24" d="m653.5 137.5c0 5.9-4.7 10.6-10.6 10.6-5.8 0-10.5-4.7-10.5-10.6 0-5.8 4.7-10.6 10.5-10.6 5.9 0 10.6 4.8 10.6 10.6z"/>
			<path id="&lt;Path&gt;" class="s4" d="m758.1 591.8c0 5.9-4.7 10.6-10.6 10.6-5.8 0-10.6-4.7-10.6-10.6 0-5.8 4.8-10.6 10.6-10.6 5.9 0 10.6 4.8 10.6 10.6z"/>
			<g id="&lt;Group&gt;">
				<path id="&lt;Path&gt;" class="s2" d="m368.4 876.2c0 5.9-4.8 10.6-10.6 10.6-5.9 0-10.6-4.7-10.6-10.6 0-5.8 4.7-10.6 10.6-10.6 5.8 0 10.6 4.8 10.6 10.6z"/>
				<path id="&lt;Path&gt;" class="s10" d="m397.2 876.2c0 5.9-4.7 10.6-10.6 10.6-5.8 0-10.5-4.7-10.5-10.6 0-5.8 4.7-10.6 10.5-10.6 5.9 0 10.6 4.8 10.6 10.6z"/>
				<path id="&lt;Path&gt;" class="s24" d="m426.1 876.2c0 5.9-4.7 10.6-10.6 10.6-5.9 0-10.6-4.7-10.6-10.6 0-5.8 4.7-10.6 10.6-10.6 5.9 0 10.6 4.8 10.6 10.6z"/>
				<path id="&lt;Path&gt;" class="s4" d="m455 876.2c0 5.9-4.8 10.6-10.6 10.6-5.9 0-10.6-4.7-10.6-10.6 0-5.8 4.7-10.6 10.6-10.6 5.8 0 10.6 4.8 10.6 10.6z"/>
				<path id="&lt;Path&gt;" class="s6" d="m483.8 876.2c0 5.9-4.7 10.6-10.6 10.6-5.8 0-10.6-4.7-10.6-10.6 0-5.8 4.8-10.6 10.6-10.6 5.9 0 10.6 4.8 10.6 10.6z"/>
				<path id="&lt;Path&gt;" class="s7" d="m512.7 876.2c0 5.9-4.8 10.6-10.6 10.6-5.9 0-10.6-4.7-10.6-10.6 0-5.8 4.7-10.6 10.6-10.6 5.8 0 10.6 4.8 10.6 10.6z"/>
				<path id="&lt;Path&gt;" class="s1" d="m541.5 876.2c0 5.9-4.7 10.6-10.6 10.6-5.8 0-10.6-4.7-10.6-10.6 0-5.8 4.8-10.6 10.6-10.6 5.9 0 10.6 4.8 10.6 10.6z"/>
			</g>
			<path id="&lt;Path&gt;" class="s6" d="m953.4 474c0 5.9-4.8 10.6-10.6 10.6-5.9 0-10.6-4.7-10.6-10.6 0-5.8 4.7-10.6 10.6-10.6 5.8 0 10.6 4.8 10.6 10.6z"/>
			<path id="&lt;Path&gt;" class="s7" d="m1144.8 331.7c0 5.9-4.8 10.6-10.6 10.6-5.9 0-10.6-4.7-10.6-10.6 0-5.8 4.7-10.6 10.6-10.6 5.8 0 10.6 4.8 10.6 10.6z"/>
			<path id="&lt;Path&gt;" class="s1" d="m1344.8 267.4c0 5.8-4.8 10.5-10.6 10.5-5.9 0-10.6-4.7-10.6-10.5 0-5.9 4.7-10.6 10.6-10.6 5.8 0 10.6 4.7 10.6 10.6z"/>
			<path id="&lt;Path&gt;" class="s7" d="m1201.6 344.4c0 12.5-10.2 22.7-22.8 22.7-12.6 0-22.7-10.2-22.7-22.7 0-12.6 10.1-22.8 22.7-22.8 12.6 0 22.8 10.2 22.8 22.8z"/>
			<path id="&lt;Path&gt;" class="s1" d="m1406 267.4c0 12.5-10.1 22.7-22.7 22.7-12.6 0-22.8-10.2-22.8-22.7 0-12.6 10.2-22.8 22.8-22.8 12.6 0 22.7 10.2 22.7 22.8z"/>
			<path id="&lt;Path&gt;" class="s6" d="m984.1 554.4c0 32.1-26 58.1-58.1 58.1-32.1 0-58.2-26-58.2-58.1 0-32.2 26.1-58.2 58.2-58.2 32.1 0 58.1 26 58.1 58.2z"/>
			<path id="&lt;Path&gt;" class="s7" d="m1169.1 411.1c0 32.2-26 58.2-58.2 58.2-32.1 0-58.1-26-58.1-58.2 0-32.1 26-58.1 58.1-58.1 32.2 0 58.2 26 58.2 58.1z"/>
			<path id="&lt;Path&gt;" class="s25" d="m1392.3 348.9c0 32.1-26 58.1-58.1 58.1-32.1 0-58.2-26-58.2-58.1 0-32.1 26.1-58.2 58.2-58.2 32.1 0 58.1 26.1 58.1 58.2z"/>
			<g id="&lt;Group&gt;">
				<path id="&lt;Path&gt;" class="s20" d="m157.3 740q-1-2.1-1.4-4.5c-0.3-1.6-0.4-3.2-0.4-4.8l-1.1 1.6-1.2 2.6c0.1 0.4 0.1 0.7 0.1 1.1q0.5 2.4 1.4 4.6v-0.1l1.8 0.1c0.2 0 0.6-0.1 0.7-0.4z"/>
				<path id="&lt;Path&gt;" class="s20" d="m181.1 706.8q0.9 1.4 1.5 2.8c8.3 2 15.1 8.5 16.8 17.4 2.4 12-5.5 23.7-17.5 26-8.6 1.7-16.9-1.9-21.9-8.4-0.5 0.4-1.1 0.8-1.8 1l-0.2 0.5c5.5 7.3 14.8 11.3 24.4 9.5 13.4-2.6 22.2-15.7 19.6-29.1-2.1-10.6-10.7-18.2-20.9-19.7z"/>
			</g>
			<g id="&lt;Group&gt;">
				<g id="&lt;Group&gt;">
					<g id="&lt;Group&gt;">
						<path id="&lt;Path&gt;" class="s20" d="m180.1 724.4c-3.8 9-14.2 13.2-23.3 9.3-9-3.8-13.2-14.3-9.3-23.3 3.8-9 14.3-13.2 23.3-9.3 9 3.8 13.2 14.2 9.3 23.3z"/>
						<path id="&lt;Path&gt;" class="s2" d="m175.4 722.3c-2.8 6.4-10.1 9.4-16.5 6.6-6.4-2.7-9.4-10.1-6.6-16.4 2.7-6.4 10.1-9.4 16.4-6.7 6.4 2.8 9.4 10.1 6.7 16.5z"/>
					</g>
					<path id="&lt;Path&gt;" class="s20" d="m161.2 732l0.1-0.2-6.1-2.6-0.1 0.2c-1.3-0.1-2.6 0.6-3.2 1.9l-2.4 5.6c-0.5 1.3-0.2 2.8 0.8 3.7l-8.9 21 6.1 2.6 8.9-21c1.3 0.1 2.6-0.7 3.2-2l2.4-5.6c0.5-1.3 0.2-2.7-0.8-3.6z"/>
				</g>
				<path id="&lt;Path&gt;" class="s20" d="m171.5 717.4c0 4.1-3.3 7.4-7.3 7.4-4.1 0-7.4-3.3-7.4-7.4 0-4.1 3.3-7.4 7.4-7.4 4 0 7.3 3.3 7.3 7.4z"/>
			</g>
			<g id="&lt;Group&gt;">
				<path id="&lt;Path&gt;" class="s20" d="m375.5 348.8h-45.9v-62.7h45.9z"/>
				<path id="&lt;Path&gt;" class="s20" d="m376.9 291v59.7h-43.5v3h45.9v-62.7z"/>
				<path id="&lt;Path&gt;" class="s10" d="m343.8 296.4l-4.3 4.6-4.4-4.6v-10.3h8.7z"/>
			</g>
			<g id="&lt;Group&gt;">
				<path id="&lt;Path&gt;" class="s20" d="m579.5 107.2h-30.8c-6.1 0-11.1 5-11.1 11.1v30.8c0 6.2 5 11.2 11.1 11.2v16l15.4-16h15.4c6.1 0 11.1-5 11.1-11.2v-30.8c0-6.1-5-11.1-11.1-11.1z"/>
				<path id="&lt;Compound Path&gt;" class="s24" d="m551.9 143.7c-1.4 0-2.5 1.2-2.5 2.5 0 1.4 1.1 2.6 2.5 2.6 1.4 0 2.5-1.2 2.5-2.6 0-1.3-1.1-2.5-2.5-2.5zm8.1 0c-1.4 0-2.5 1.2-2.5 2.5 0 1.4 1.1 2.6 2.5 2.6 1.4 0 2.5-1.2 2.5-2.6 0-1.3-1.1-2.5-2.5-2.5zm8.2 0c-1.4 0-2.5 1.2-2.5 2.5 0 1.4 1.1 2.6 2.5 2.6 1.4 0 2.5-1.2 2.5-2.6 0-1.3-1.1-2.5-2.5-2.5zm8.1 0c-1.4 0-2.5 1.2-2.5 2.5 0 1.4 1.1 2.6 2.5 2.6 1.4 0 2.5-1.2 2.5-2.6 0-1.3-1.1-2.5-2.5-2.5z"/>
			</g>
			<path id="&lt;Path&gt;" class="s24" d="m762.4 676c0-0.2 0.1-0.3 0.2-0.3 0.2 0 0.3 0.1 0.3 0.3 0 0.1-0.1 0.2-0.3 0.2-0.1 0-0.2-0.1-0.2-0.2z"/>
			<path id="&lt;Compound Path&gt;" class="s20" d="m759.2 668.1c-1-9-7.2-15.9-14.7-15.9-6.7 0-12.3 5.4-14.2 12.8-1.5-0.7-3.1-1.1-4.9-1.1-1.4 0-2.8 0.3-4.1 0.8-3.6-5.6-9.1-9.3-15.4-9.3-7 0-13.1 4.6-16.6 11.4-4.6 0.3-8.4 5-8.4 10.8 0 4.5 2.3 8.4 5.6 10q0 0.4 0 0.5c0 0 66.8 0.3 67.7 0.3q1.2 0 2.5-0.3h0.2q0-0.1 0-0.1c4.6-1.2 8.1-5.4 8.1-10.4 0-4.2-2.4-7.7-5.8-9.5zm-71.1 27.2h45.3v-2.6h-45.3zm51.6 0h15.6v-2.6h-15.6z"/>
			<g id="&lt;Group&gt;">
				<path id="&lt;Compound Path&gt;" fill-rule="evenodd" class="s20" d="m934.4 585.8v-3.5h-16.7v3.6c-13.7-3.7-23.8-16.1-23.8-31 0-17.7 14.4-32.1 32.1-32.1 17.7 0 32 14.4 32 32.1 0 14.8-10 27.2-23.6 30.9zm8.4-22.2l-16.4-17.2-17.2 17.2h8.5v16.7h16.7v-16.7z"/>
			</g>
			<g id="&lt;Group&gt;">
				<path id="&lt;Path&gt;" class="s20" d="m1074.2 435.9l16.9-34.6 15.3 19.6 26.1-45.9 15.2 58.4z"/>
				<g id="&lt;Group&gt;">
					<path id="&lt;Path&gt;" class="s20" d="m1070.4 421.5l-2.2-1.2 20.1-37.8 16.5 20.7 20.1-33.7 2.2 1.3-22 37-16.4-20.6z"/>
				</g>
			</g>
			<g id="&lt;Group&gt;">
				<path id="&lt;Path&gt;" class="s20" d="m1334.2 348.9v-32.4c-17.9 0-32.4 14.5-32.4 32.4 0 17.9 14.5 32.3 32.4 32.3 17.8 0 32.3-14.4 32.3-32.3 0-4.7-1-9.1-2.7-13.1z"/>
				<path id="&lt;Path&gt;" class="s20" d="m1366.5 330.2c-5-11.4-16.3-19.3-29.5-19.3v32.4z"/>
			</g>
			<text id="The recommended architecture car" style="transform: matrix(2,0,0,2,1112.831,733.893)" >
				<tspan x="0" y="5.8" class="t26">T</tspan><tspan  y="5.8" class="t27">h</tspan><tspan  y="5.8" class="t27">e</tspan><tspan  y="5.8" class="t27"> </tspan><tspan  y="5.8" class="t27">r</tspan><tspan  y="5.8" class="t27">e</tspan><tspan  y="5.8" class="t27">c</tspan><tspan  y="5.8" class="t27">o</tspan><tspan  y="5.8" class="t27">m</tspan><tspan  y="5.8" class="t27">m</tspan><tspan  y="5.8" class="t27">e</tspan><tspan  y="5.8" class="t27">n</tspan><tspan  y="5.8" class="t27">d</tspan><tspan  y="5.8" class="t27">e</tspan><tspan  y="5.8" class="t27">d</tspan><tspan  y="5.8" class="t27"> </tspan><tspan  y="5.8" class="t27">a</tspan><tspan  y="5.8" class="t27">r</tspan><tspan  y="5.8" class="t27">c</tspan><tspan  y="5.8" class="t27">h</tspan><tspan  y="5.8" class="t27">i</tspan><tspan  y="5.8" class="t27">t</tspan><tspan  y="5.8" class="t27">e</tspan><tspan  y="5.8" class="t27">c</tspan><tspan  y="5.8" class="t27">t</tspan><tspan  y="5.8" class="t27">u</tspan><tspan  y="5.8" class="t27">r</tspan><tspan  y="5.8" class="t27">e</tspan><tspan  y="5.8" class="t27"> </tspan><tspan  y="5.8" class="t27">c</tspan><tspan  y="5.8" class="t27">a</tspan><tspan  y="5.8" class="t27">r</tspan><tspan  y="5.8" class="t27">e</tspan><tspan  y="5.8" class="t27">e</tspan><tspan  y="5.8" class="t27">r</tspan><tspan  y="5.8" class="t27"> </tspan>
				<tspan x="0" y="15.1" class="t27">p</tspan><tspan  y="15.1" class="t27">a</tspan><tspan  y="15.1" class="t27">t</tspan><tspan  y="15.1" class="t27">h</tspan><tspan  y="15.1" class="t27"> </tspan><tspan  y="15.1" class="t27">f</tspan><tspan  y="15.1" class="t27">r</tspan><tspan  y="15.1" class="t27">o</tspan><tspan  y="15.1" class="t27">m</tspan><tspan  y="15.1" class="t27"> </tspan><tspan  y="15.1" class="t27">t</tspan><tspan  y="15.1" class="t27">h</tspan><tspan  y="15.1" class="t27">e</tspan><tspan  y="15.1" class="t27"> </tspan><tspan  y="15.1" class="t27">B</tspan><tspan  y="15.1" class="t27">T</tspan><tspan  y="15.1" class="t27">A</tspan><tspan  y="15.1" class="t27">B</tspan><tspan  y="15.1" class="t27">o</tspan><tspan  y="15.1" class="t27">K</tspan><tspan  y="15.1" class="t27">.</tspan><tspan  y="15.1" class="t27"> </tspan>
				<tspan x="0" y="24.4" class="t27">https://iasa-global.github.io/btabok/
</tspan>
			</text>
			<g id="&lt;Group&gt;">
				<path id="&lt;Path&gt;" class="s7" d="m1091.9 824.5h-2.6v-89.4h2.6z"/>
			</g>
		</g>
	</g>
</svg>