<?xml version="1.0" standalone="no"?>
<!DOCTYPE svg PUBLIC "-//W3C//DTD SVG 20010904//EN"
 "http://www.w3.org/TR/2001/REC-SVG-20010904/DTD/svg10.dtd">
<svg version="1.0" xmlns="http://www.w3.org/2000/svg"
 width="220.000000pt" height="185.000000pt" viewBox="0 0 220.000000 185.000000"
 preserveAspectRatio="xMidYMid meet">

<g transform="translate(0.000000,185.000000) scale(0.100000,-0.100000)"
fill="#000000" stroke="none">
<path d="M893 1824 c-7 -18 4 -31 30 -36 25 -4 17 -23 -10 -23 -13 1 -19 -3
-14 -8 5 -5 19 -7 32 -5 32 4 33 40 1 48 -29 6 -25 25 5 25 12 -1 19 3 17 7
-9 14 -54 8 -61 -8z"/>
<path d="M992 1828 c-15 -15 -15 -51 0 -66 14 -14 44 -16 52 -4 2 4 -8 8 -22
7 -23 0 -27 4 -27 30 0 26 4 30 27 30 14 -1 24 3 22 7 -8 12 -38 10 -52 -4z"/>
<path d="M1080 1826 c-28 -35 11 -93 48 -70 35 22 22 84 -18 84 -10 0 -23 -7
-30 -14z m55 -15 c8 -26 -4 -51 -25 -51 -10 0 -21 7 -24 16 -10 25 3 54 24 54
10 0 21 -8 25 -19z"/>
<path d="M1171 1793 c1 -26 3 -40 6 -31 2 9 14 18 26 20 16 2 22 10 22 28 0
20 -6 26 -27 28 -27 3 -28 2 -27 -45z m44 17 c0 -8 -8 -16 -17 -18 -13 -2 -18
3 -18 18 0 15 5 20 18 18 9 -2 17 -10 17 -18z"/>
<path d="M1250 1795 c0 -44 0 -45 33 -44 30 2 30 2 5 6 -16 2 -28 10 -28 18 0
8 12 16 28 18 l27 4 -27 2 c-17 0 -28 7 -28 15 0 8 12 17 28 19 25 4 25 4 -5
6 -33 1 -33 0 -33 -44z"/>
<path d="M652 932 l-442 -767 882 -3 c485 -1 883 0 885 2 4 4 -860 1511 -876
1528 -3 4 -205 -338 -449 -760z m877 -10 c233 -404 421 -736 418 -738 -2 -2
-387 -3 -855 -2 l-851 3 427 742 c235 408 430 739 433 735 3 -4 196 -337 428
-740z"/>
<path d="M840 756 c-19 -24 -7 -58 27 -77 23 -13 31 -14 27 -5 -3 8 -1 17 5
21 15 8 14 48 -1 63 -16 16 -43 15 -58 -2z m55 -15 c8 -26 -4 -51 -25 -51 -10
0 -21 7 -24 16 -10 25 3 54 24 54 10 0 21 -8 25 -19z"/>
<path d="M934 736 c1 -46 25 -68 54 -50 11 7 18 25 18 50 l2 39 -7 -40 c-5
-34 -10 -40 -31 -40 -21 0 -26 6 -31 40 l-7 40 2 -39z"/>
<path d="M1041 752 c-6 -11 -16 -33 -21 -49 -9 -25 -8 -26 4 -10 7 9 21 17 31
17 10 0 24 -8 32 -17 10 -14 10 -8 -2 22 -21 53 -31 61 -44 37z m29 -24 c0 -5
-7 -8 -15 -8 -17 0 -18 2 -9 25 5 13 8 14 15 3 5 -7 9 -16 9 -20z"/>
<path d="M1122 728 l-2 -48 33 1 c29 2 29 2 5 6 -24 4 -27 10 -31 46 l-4 42
-1 -47z"/>
<path d="M1193 725 c0 -27 2 -38 4 -22 2 15 2 37 0 50 -2 12 -4 0 -4 -28z"/>
<path d="M1222 763 c12 -3 18 -17 21 -46 l4 -42 1 43 c2 35 5 42 22 42 11 0
20 -1 20 -2 1 -17 29 -78 30 -65 0 10 7 32 16 50 l15 32 -19 -24 -20 -24 -11
21 c-9 18 -20 22 -54 21 -23 -1 -34 -3 -25 -6z"/>
<path d="M32 118 c-15 -15 -15 -51 0 -66 14 -14 44 -16 52 -4 2 4 -8 8 -22 7
-23 0 -27 4 -27 30 0 26 4 30 27 30 14 -1 24 3 22 7 -8 12 -38 10 -52 -4z"/>
<path d="M130 116 c-28 -35 11 -93 48 -70 35 22 22 84 -18 84 -10 0 -23 -7
-30 -14z m55 -15 c8 -26 -4 -51 -25 -51 -21 0 -33 25 -25 51 8 24 42 24 50 0z"/>
<path d="M213 114 c-7 -18 4 -31 30 -36 25 -4 17 -23 -10 -23 -13 1 -19 -3
-14 -8 5 -5 19 -7 32 -5 32 4 33 40 1 48 -29 6 -25 25 5 25 12 -1 19 3 17 7
-9 14 -54 8 -61 -8z"/>
<path d="M312 123 c12 -3 18 -17 21 -46 l4 -42 1 42 c2 30 7 43 20 46 9 3 -1
5 -23 5 -22 0 -32 -2 -23 -5z"/>
<path d="M1862 123 c12 -3 18 -17 21 -46 l4 -42 1 42 c2 30 7 43 20 46 9 3 -1
5 -23 5 -22 0 -32 -2 -23 -5z"/>
<path d="M1933 85 c0 -27 2 -38 4 -22 2 15 2 37 0 50 -2 12 -4 0 -4 -28z"/>
<path d="M1961 83 l2 -48 7 40 c4 22 8 35 9 29 0 -5 7 -19 15 -29 14 -19 15
-19 28 10 l13 29 6 -39 6 -40 2 48 c1 54 -11 61 -30 15 l-13 -31 -15 31 c-21
45 -31 40 -30 -15z"/>
<path d="M2070 85 c0 -44 0 -45 33 -44 30 2 30 2 5 6 -36 6 -36 30 0 36 l27 4
-27 2 c-37 1 -37 28 0 34 25 4 25 4 -5 6 -33 1 -33 0 -33 -44z"/>
</g>
</svg>
